{"glyphs":{"0":{"ha":763,"x_min":61,"x_max":761,"o":"m 307 -32 q 170 6 225 -32 q 88 106 115 43 q 61 244 61 168 q 94 408 61 324 q 185 564 126 492 q 324 681 244 636 q 499 726 404 726 q 564 708 536 726 q 592 657 592 689 q 583 638 592 638 q 583 638 583 638 q 581 640 582 639 q 549 666 569 660 q 510 672 528 672 q 374 635 442 672 q 249 534 306 599 q 159 387 193 469 q 125 214 125 304 q 142 111 125 158 q 195 35 158 64 q 292 6 232 6 q 440 50 368 6 q 571 168 513 94 q 664 331 629 242 q 699 507 699 419 q 635 679 699 615 q 581 712 615 699 q 510 733 546 725 q 450 744 475 740 q 425 750 425 749 q 436 763 425 757 q 463 769 447 769 q 615 729 547 769 q 722 619 682 689 q 761 463 761 550 q 725 288 761 375 q 626 128 689 200 q 481 12 563 56 q 307 -32 399 -32 z "},"1":{"ha":433,"x_min":0,"x_max":514,"o":"m 8 -29 q 0 -21 0 -29 q 22 16 0 6 q 81 30 43 26 q 164 39 118 33 q 195 149 172 79 q 249 301 218 218 q 314 468 281 385 q 376 619 347 551 q 335 579 360 603 q 282 531 310 556 q 231 491 254 507 q 196 475 208 475 q 189 481 189 475 q 216 511 190 486 q 276 568 242 536 q 332 625 310 600 q 374 676 350 644 q 419 732 397 707 q 456 757 442 757 q 491 749 468 757 q 514 725 514 740 q 425 545 471 640 q 337 356 379 450 q 263 180 294 261 q 214 40 231 99 l 272 40 q 328 40 300 40 q 381 35 357 39 q 394 22 394 33 q 369 8 394 8 q 326 9 349 8 q 279 10 303 10 q 244 9 263 10 q 207 7 226 8 l 207 6 q 176 -7 197 -7 q 161 0 167 -7 q 85 -17 125 -6 q 8 -29 44 -29 z "},"2":{"ha":810,"x_min":81,"x_max":829,"o":"m 582 -22 q 535 -17 576 -22 q 434 1 494 -11 q 310 28 374 13 q 196 65 246 44 q 172 43 193 61 q 127 8 151 25 q 89 -10 103 -10 q 81 0 81 -10 q 122 90 81 69 q 224 111 164 111 q 337 180 271 139 q 472 271 403 221 q 601 376 542 321 q 698 485 661 431 q 735 590 735 540 q 690 677 735 646 q 572 708 646 708 q 524 705 550 708 q 474 694 499 701 q 426 679 458 690 q 359 650 394 668 q 299 610 324 632 q 275 564 275 589 q 280 547 275 556 q 285 531 285 539 q 275 518 285 518 q 251 540 264 518 q 238 581 238 563 q 266 640 238 613 q 335 690 294 668 q 414 725 375 711 q 475 743 453 739 q 533 752 504 749 q 589 756 563 756 q 761 715 693 756 q 829 604 829 675 q 790 493 829 550 q 688 381 751 436 q 550 274 625 325 q 401 181 475 224 q 267 106 326 138 q 460 61 381 88 q 599 35 540 35 q 698 46 651 35 q 751 83 744 57 q 769 100 758 100 q 779 88 779 100 q 758 41 779 61 q 704 7 736 21 q 639 -15 672 -7 q 582 -22 606 -22 z "},"3":{"ha":750,"x_min":56,"x_max":707,"o":"m 258 -39 q 194 -34 229 -39 q 127 -15 158 -29 q 76 25 96 -1 q 56 96 56 51 q 66 142 56 119 q 94 165 76 165 q 118 143 118 165 q 115 120 118 132 q 111 96 111 108 q 139 32 114 56 q 198 -2 164 8 q 260 -12 232 -12 q 375 11 317 -12 q 483 77 433 35 q 563 174 532 119 q 593 290 593 228 q 564 360 593 329 q 475 408 535 392 q 409 399 440 407 q 354 392 378 392 l 346 392 q 320 402 328 393 q 313 421 313 411 q 320 440 313 432 q 344 447 328 447 q 378 444 360 447 q 417 440 397 440 q 521 462 472 440 q 599 518 569 483 q 629 593 629 553 q 590 672 629 638 q 486 706 551 706 q 425 698 460 706 q 358 675 390 690 q 303 635 325 660 q 282 578 282 611 q 274 565 282 571 q 260 560 267 560 q 251 572 251 560 q 286 669 251 629 q 379 728 321 708 q 510 749 438 749 q 606 733 561 749 q 679 686 651 718 q 707 604 707 654 q 668 497 707 551 q 549 418 629 443 q 638 381 601 417 q 675 285 675 344 q 635 150 675 210 q 533 48 596 90 q 398 -17 471 6 q 258 -39 325 -39 z "},"4":{"ha":651,"x_min":14,"x_max":707,"o":"m 322 -50 q 307 -35 307 -50 q 331 78 307 -1 q 388 251 356 158 l 179 272 q 163 274 171 274 q 147 274 156 274 q 87 260 111 274 q 47 234 63 247 q 18 221 31 221 q 14 228 14 221 q 50 297 14 263 q 153 376 86 331 q 313 488 221 421 q 426 580 372 531 q 523 674 481 629 q 592 747 565 718 q 621 775 618 775 q 654 760 633 775 q 675 732 675 744 q 672 725 675 726 q 572 526 628 632 q 467 308 517 419 q 556 322 508 311 q 639 351 603 333 q 681 392 675 368 q 700 411 688 411 q 707 400 707 411 q 678 335 707 363 q 608 288 650 307 q 523 260 565 269 q 451 250 481 250 q 427 225 440 250 q 402 161 414 200 q 380 81 390 122 q 363 8 369 40 q 354 -35 357 -24 l 354 -39 q 322 -50 343 -50 m 411 310 q 461 440 436 378 q 506 551 486 503 q 535 619 526 599 q 466 559 514 597 q 360 477 418 521 q 247 394 301 433 q 156 331 192 354 l 164 331 l 182 332 l 190 332 q 306 323 247 332 q 411 310 365 314 z "},"5":{"ha":758,"x_min":-3,"x_max":829,"o":"m 232 -40 q 156 -35 196 -40 q 79 -13 115 -29 q 20 34 43 3 q -3 117 -3 65 q 8 169 -3 142 q 42 196 18 196 q 61 190 53 196 q 69 172 69 183 q 65 144 69 160 q 61 117 61 129 q 92 43 64 71 q 158 3 119 15 q 229 -8 197 -8 q 365 18 296 -8 q 492 92 433 44 q 586 203 550 140 q 622 342 622 267 q 599 417 622 389 q 540 459 576 446 q 463 472 504 472 q 371 456 411 472 q 300 417 331 439 q 247 379 269 396 q 210 363 225 363 q 197 375 197 363 q 213 422 197 390 q 251 490 228 453 q 300 563 275 526 q 345 626 325 599 q 372 663 365 653 q 360 685 367 674 q 354 707 354 697 q 391 733 354 725 q 488 742 428 740 q 613 743 547 743 l 656 743 q 735 742 694 743 q 802 735 775 740 q 829 718 829 731 q 821 705 829 711 q 794 699 813 699 q 699 698 753 699 q 590 694 644 697 q 494 685 536 690 q 432 668 451 679 q 401 631 424 663 q 351 555 378 599 q 301 468 324 511 q 385 496 333 489 q 479 503 436 503 q 560 496 518 503 q 637 470 601 489 q 694 419 672 451 q 717 336 717 386 q 671 181 717 250 q 552 62 625 111 q 394 -14 479 13 q 232 -40 310 -40 z "},"6":{"ha":717,"x_min":83,"x_max":707,"o":"m 299 -25 q 173 4 221 -25 q 104 82 125 33 q 83 190 83 131 q 117 363 83 279 q 204 516 150 446 q 323 640 258 586 q 450 722 388 693 q 561 751 513 751 q 629 739 596 751 q 685 697 663 726 q 707 613 707 667 q 705 578 707 599 q 686 557 703 557 q 675 564 675 557 l 675 572 l 676 589 q 554 713 676 713 q 463 684 514 713 q 361 604 413 656 q 267 485 310 553 q 199 340 225 418 q 172 179 172 261 q 206 60 172 110 q 325 10 239 10 q 436 47 389 10 q 512 141 483 85 q 546 251 540 197 q 549 267 549 258 q 549 282 549 275 q 530 355 549 328 q 483 394 511 382 q 425 406 454 406 q 362 389 390 406 q 310 353 333 372 q 297 347 306 347 q 289 354 289 347 q 315 390 289 371 q 378 421 342 408 q 446 433 415 433 q 528 419 489 433 q 594 372 568 404 q 621 285 621 340 q 593 167 621 224 q 518 68 565 111 q 414 0 471 25 q 299 -25 357 -25 z "},"7":{"ha":578,"x_min":150,"x_max":790,"o":"m 176 -14 q 150 0 150 -14 q 181 61 150 14 q 263 176 213 108 q 374 317 314 243 q 492 462 433 392 q 597 586 550 532 q 668 665 644 640 q 537 681 606 676 q 399 685 468 685 q 239 652 288 685 q 175 567 190 619 q 161 550 172 550 q 150 565 150 550 q 196 681 165 643 q 276 731 226 718 q 396 743 325 743 q 440 741 407 743 q 514 735 472 739 q 597 728 556 732 q 671 722 639 725 q 713 717 703 719 q 741 744 722 731 q 774 758 760 758 q 790 731 790 758 q 770 697 790 708 q 733 668 750 686 q 549 453 635 560 q 389 237 464 347 q 242 3 314 126 q 213 -8 233 -3 q 176 -14 193 -14 z "},"8":{"ha":681,"x_min":47,"x_max":710,"o":"m 204 -15 q 131 -8 168 -15 q 71 22 94 0 q 47 86 47 43 q 77 189 47 140 q 153 278 107 238 q 253 351 200 319 q 354 404 307 383 q 271 451 307 421 q 235 544 235 482 q 264 644 235 601 q 340 717 293 688 q 444 760 388 746 q 554 775 500 775 q 669 749 628 775 q 710 675 710 722 q 674 574 710 618 q 587 498 638 531 q 490 442 536 465 q 579 383 542 419 q 617 289 617 346 q 588 186 617 233 q 513 102 560 139 q 410 39 465 65 q 301 -1 356 13 q 204 -15 247 -15 m 461 454 q 521 485 488 467 q 585 526 554 503 q 635 578 615 550 q 656 638 656 606 q 613 714 656 689 q 513 739 571 739 q 417 721 465 739 q 335 668 368 703 q 301 581 301 633 q 325 522 301 544 q 383 485 349 499 q 447 458 417 471 l 461 454 m 251 38 q 403 69 335 38 q 513 151 472 101 q 554 250 554 200 q 515 331 554 301 q 386 393 476 361 q 292 342 342 372 q 199 277 243 313 q 128 203 156 242 q 101 125 101 164 q 124 72 101 92 q 180 45 146 53 q 251 38 214 38 z "},"9":{"ha":690,"x_min":57,"x_max":681,"o":"m 203 -21 q 135 -8 168 -21 q 79 35 101 4 q 57 121 57 67 q 58 154 57 132 q 76 176 60 176 q 89 168 89 176 l 89 160 l 86 142 q 210 18 86 18 q 304 47 253 18 q 406 128 356 76 q 499 249 457 181 q 567 394 542 317 q 593 553 593 472 q 559 673 593 622 q 439 724 525 724 q 348 699 389 724 q 278 633 307 674 q 233 544 249 592 q 218 450 218 496 q 257 356 218 383 q 339 328 296 328 q 401 344 374 328 q 454 381 428 361 q 468 386 458 386 q 478 378 478 386 q 451 344 478 363 q 387 313 424 325 q 318 300 350 300 q 236 314 276 300 q 169 360 196 328 q 143 449 143 393 q 171 565 143 510 q 245 664 199 621 q 349 733 292 707 q 467 758 407 758 q 592 729 544 758 q 660 651 639 700 q 681 543 681 603 q 647 369 681 453 q 559 214 614 285 q 440 90 504 143 q 314 8 376 38 q 203 -21 251 -21 z "},"\r":{"ha":833,"x_min":0,"x_max":0,"o":""}," ":{"ha":304,"x_min":0,"x_max":0,"o":""}," ":{"ha":304,"x_min":0,"x_max":0,"o":""},"A":{"ha":1176,"x_min":15,"x_max":1274,"o":"m 197 -115 q 110 -100 151 -115 q 42 -51 68 -85 q 15 33 15 -18 q 22 56 15 46 q 33 67 28 67 q 44 33 44 67 q 85 -40 44 -14 q 171 -61 117 -61 q 283 -42 225 -61 q 394 14 342 -22 q 534 134 457 56 q 694 306 611 213 q 562 321 628 313 q 429 329 496 329 q 340 320 385 329 q 260 286 296 311 q 206 213 224 261 q 202 200 204 207 q 200 186 200 193 q 207 161 200 172 q 210 151 210 153 q 199 139 210 139 q 183 149 189 139 q 169 213 169 174 q 197 325 169 286 q 269 378 224 364 q 368 392 315 392 q 417 390 392 392 q 468 385 443 388 q 594 366 529 379 q 725 339 660 353 q 867 510 797 424 q 999 673 938 596 q 1103 806 1060 750 q 1108 811 1104 810 q 1113 814 1111 814 q 1151 828 1128 822 q 1183 835 1175 835 q 1197 819 1197 835 q 1190 804 1197 815 q 1072 563 1121 686 q 985 308 1022 439 l 982 299 q 999 298 990 299 q 1015 297 1008 297 q 1117 310 1075 293 q 1158 342 1147 321 q 1165 347 1163 347 q 1175 340 1172 347 q 1174 325 1178 332 q 1119 286 1158 299 q 1069 274 1097 276 q 1010 272 1040 271 l 1001 272 l 985 274 l 976 274 q 947 115 956 197 q 946 102 946 108 q 946 89 946 96 q 989 10 946 10 q 1055 35 1017 10 q 1133 96 1093 60 q 1204 167 1172 132 q 1251 224 1236 203 q 1260 226 1254 226 q 1268 211 1274 226 q 1244 178 1265 207 q 1188 110 1224 150 q 1103 32 1151 71 q 1026 -8 1064 1 q 968 -17 988 -17 q 906 19 929 -17 q 883 110 883 54 q 892 193 883 150 q 911 279 900 236 q 829 288 871 283 q 746 299 788 293 q 580 109 663 197 q 425 -33 497 21 q 313 -94 371 -72 q 197 -115 256 -115 m 917 306 q 976 501 942 403 q 1043 679 1010 599 l 1050 696 q 919 518 990 613 q 774 331 847 424 q 846 317 810 324 q 917 306 882 311 z "},"Æ":{"ha":1183,"x_min":0,"x_max":1185,"o":"m 32 -100 q 13 -85 24 -100 q 1 -64 3 -69 q 0 -51 0 -57 q 0 -39 0 -44 q 12 49 0 0 q 42 147 24 97 q 81 238 61 196 q 117 307 100 281 l 89 307 q 61 328 61 307 q 72 347 61 338 q 106 357 83 356 q 131 358 119 357 q 147 361 142 360 q 211 447 169 394 q 307 556 253 499 q 420 665 361 614 q 538 747 479 715 q 644 779 596 779 q 672 776 654 779 q 707 765 690 772 q 728 746 724 758 q 847 760 783 758 q 967 763 910 763 q 1043 761 1004 763 q 1117 757 1082 760 q 1120 758 1118 757 q 1125 758 1122 758 q 1153 756 1140 761 q 1165 740 1165 751 q 1157 724 1165 732 q 1133 704 1149 715 q 1101 678 1117 693 q 1063 631 1079 656 q 1046 581 1046 606 q 1054 551 1046 567 q 1055 549 1054 550 q 1056 547 1056 549 q 1046 538 1056 538 q 1032 546 1040 538 q 1022 592 1022 556 q 1027 637 1022 613 q 1042 681 1032 661 q 1058 706 1049 692 q 1082 732 1068 721 q 974 724 1029 731 q 872 707 918 717 q 803 685 826 697 q 774 651 793 679 q 731 584 754 624 q 683 501 707 544 q 638 418 658 457 q 607 356 618 379 q 768 354 694 354 q 881 354 842 354 q 899 352 888 354 q 911 340 911 350 q 888 327 911 329 q 819 322 865 325 q 717 317 779 319 q 590 315 654 315 q 571 247 579 285 q 563 172 563 208 q 576 94 563 131 q 624 35 590 57 q 717 13 658 13 q 879 38 794 13 q 1040 107 964 63 q 1168 211 1117 151 q 1175 215 1172 215 q 1185 200 1185 215 q 1181 189 1185 193 q 1067 88 1140 139 q 895 1 994 36 q 676 -33 796 -33 q 564 -10 606 -33 q 505 51 522 13 q 488 135 488 89 q 499 224 488 178 q 526 314 510 271 q 457 314 488 314 q 411 313 426 314 q 409 313 410 313 q 406 313 408 314 l 174 313 q 112 184 142 258 q 63 38 82 110 q 39 -86 43 -35 q 37 -94 38 -87 q 32 -100 36 -100 m 543 356 q 599 463 568 411 q 656 570 631 515 q 683 688 681 625 q 674 738 686 725 q 653 756 661 750 q 475 665 558 729 q 322 519 392 601 q 196 357 251 438 l 263 357 q 395 356 322 357 q 543 356 468 356 z "},"Ǽ":{"ha":1183,"x_min":0,"x_max":1185,"o":"m 32 -100 q 13 -85 24 -100 q 1 -64 3 -69 q 0 -51 0 -57 q 0 -39 0 -44 q 12 49 0 0 q 42 147 24 97 q 81 238 61 196 q 117 307 100 281 l 89 307 q 61 328 61 307 q 72 347 61 338 q 106 357 83 356 q 131 358 119 357 q 147 361 142 360 q 211 447 169 394 q 307 556 253 499 q 420 665 361 614 q 538 747 479 715 q 644 779 596 779 q 672 776 654 779 q 707 765 690 772 q 728 746 724 758 q 847 760 783 758 q 967 763 910 763 q 1043 761 1004 763 q 1117 757 1082 760 q 1120 758 1118 757 q 1125 758 1122 758 q 1153 756 1140 761 q 1165 740 1165 751 q 1157 724 1165 732 q 1133 704 1149 715 q 1101 678 1117 693 q 1063 631 1079 656 q 1046 581 1046 606 q 1054 551 1046 567 q 1055 549 1054 550 q 1056 547 1056 549 q 1046 538 1056 538 q 1032 546 1040 538 q 1022 592 1022 556 q 1027 637 1022 613 q 1042 681 1032 661 q 1058 706 1049 692 q 1082 732 1068 721 q 974 724 1029 731 q 872 707 918 717 q 803 685 826 697 q 774 651 793 679 q 731 584 754 624 q 683 501 707 544 q 638 418 658 457 q 607 356 618 379 q 768 354 694 354 q 881 354 842 354 q 899 352 888 354 q 911 340 911 350 q 888 327 911 329 q 819 322 865 325 q 717 317 779 319 q 590 315 654 315 q 571 247 579 285 q 563 172 563 208 q 576 94 563 131 q 624 35 590 57 q 717 13 658 13 q 879 38 794 13 q 1040 107 964 63 q 1168 211 1117 151 q 1175 215 1172 215 q 1185 200 1185 215 q 1181 189 1185 193 q 1067 88 1140 139 q 895 1 994 36 q 676 -33 796 -33 q 564 -10 606 -33 q 505 51 522 13 q 488 135 488 89 q 499 224 488 178 q 526 314 510 271 q 457 314 488 314 q 411 313 426 314 q 409 313 410 313 q 406 313 408 314 l 174 313 q 112 184 142 258 q 63 38 82 110 q 39 -86 43 -35 q 37 -94 38 -87 q 32 -100 36 -100 m 543 356 q 599 463 568 411 q 656 570 631 515 q 683 688 681 625 q 674 738 686 725 q 653 756 661 750 q 475 665 558 729 q 322 519 392 601 q 196 357 251 438 l 263 357 q 395 356 322 357 q 543 356 468 356 m 735 858 q 724 864 724 858 q 744 883 724 871 q 788 913 758 892 q 856 963 818 933 q 888 989 875 979 q 906 999 900 999 q 916 999 910 999 q 929 992 922 999 q 944 972 944 981 q 942 962 944 967 q 935 951 939 957 q 896 928 925 943 q 832 897 867 913 q 769 869 797 881 q 735 858 742 858 z "},"Á":{"ha":1176,"x_min":15,"x_max":1329,"o":"m 197 -115 q 110 -100 151 -115 q 42 -51 68 -85 q 15 33 15 -18 q 22 56 15 46 q 33 67 28 67 q 44 33 44 67 q 85 -40 44 -14 q 171 -61 117 -61 q 283 -42 225 -61 q 394 14 342 -22 q 534 134 457 56 q 694 306 611 213 q 562 321 628 313 q 429 329 496 329 q 340 320 385 329 q 260 286 296 311 q 206 213 224 261 q 202 200 204 207 q 200 186 200 193 q 207 161 200 172 q 210 151 210 153 q 199 139 210 139 q 183 149 189 139 q 169 213 169 174 q 197 325 169 286 q 269 378 224 364 q 368 392 315 392 q 417 390 392 392 q 468 385 443 388 q 594 366 529 379 q 725 339 660 353 q 867 510 797 424 q 999 673 938 596 q 1103 806 1060 750 q 1108 811 1104 810 q 1113 814 1111 814 q 1151 828 1128 822 q 1183 835 1175 835 q 1197 819 1197 835 q 1190 804 1197 815 q 1072 563 1121 686 q 985 308 1022 439 l 982 299 q 999 298 990 299 q 1015 297 1008 297 q 1117 310 1075 293 q 1158 342 1147 321 q 1165 347 1163 347 q 1175 340 1172 347 q 1174 325 1178 332 q 1119 286 1158 299 q 1069 274 1097 276 q 1010 272 1040 271 l 1001 272 l 985 274 l 976 274 q 947 115 956 197 q 946 102 946 108 q 946 89 946 96 q 989 10 946 10 q 1055 35 1017 10 q 1133 96 1093 60 q 1204 167 1172 132 q 1251 224 1236 203 q 1260 226 1254 226 q 1268 211 1274 226 q 1244 178 1265 207 q 1188 110 1224 150 q 1103 32 1151 71 q 1026 -8 1064 1 q 968 -17 988 -17 q 906 19 929 -17 q 883 110 883 54 q 892 193 883 150 q 911 279 900 236 q 829 288 871 283 q 746 299 788 293 q 580 109 663 197 q 425 -33 497 21 q 313 -94 371 -72 q 197 -115 256 -115 m 917 306 q 976 501 942 403 q 1043 679 1010 599 l 1050 696 q 919 518 990 613 q 774 331 847 424 q 846 317 810 324 q 917 306 882 311 m 1119 931 q 1108 936 1108 931 q 1129 956 1108 943 q 1173 985 1143 964 q 1240 1035 1203 1006 q 1272 1061 1260 1051 q 1290 1071 1285 1071 q 1301 1071 1294 1071 q 1314 1064 1307 1071 q 1329 1044 1329 1053 q 1326 1034 1329 1039 q 1319 1024 1324 1029 q 1281 1000 1310 1015 q 1217 969 1251 985 q 1154 942 1182 953 q 1119 931 1126 931 z "},"Ă":{"ha":1176,"x_min":15,"x_max":1365,"o":"m 197 -115 q 110 -100 151 -115 q 42 -51 68 -85 q 15 33 15 -18 q 22 56 15 46 q 33 67 28 67 q 44 33 44 67 q 85 -40 44 -14 q 171 -61 117 -61 q 283 -42 225 -61 q 394 14 342 -22 q 534 134 457 56 q 694 306 611 213 q 562 321 628 313 q 429 329 496 329 q 340 320 385 329 q 260 286 296 311 q 206 213 224 261 q 202 200 204 207 q 200 186 200 193 q 207 161 200 172 q 210 151 210 153 q 199 139 210 139 q 183 149 189 139 q 169 213 169 174 q 197 325 169 286 q 269 378 224 364 q 368 392 315 392 q 417 390 392 392 q 468 385 443 388 q 594 366 529 379 q 725 339 660 353 q 867 510 797 424 q 999 673 938 596 q 1103 806 1060 750 q 1108 811 1104 810 q 1113 814 1111 814 q 1151 828 1128 822 q 1183 835 1175 835 q 1197 819 1197 835 q 1190 804 1197 815 q 1072 563 1121 686 q 985 308 1022 439 l 982 299 q 999 298 990 299 q 1015 297 1008 297 q 1117 310 1075 293 q 1158 342 1147 321 q 1165 347 1163 347 q 1175 340 1172 347 q 1174 325 1178 332 q 1119 286 1158 299 q 1069 274 1097 276 q 1010 272 1040 271 l 1001 272 l 985 274 l 976 274 q 947 115 956 197 q 946 102 946 108 q 946 89 946 96 q 989 10 946 10 q 1055 35 1017 10 q 1133 96 1093 60 q 1204 167 1172 132 q 1251 224 1236 203 q 1260 226 1254 226 q 1268 211 1274 226 q 1244 178 1265 207 q 1188 110 1224 150 q 1103 32 1151 71 q 1026 -8 1064 1 q 968 -17 988 -17 q 906 19 929 -17 q 883 110 883 54 q 892 193 883 150 q 911 279 900 236 q 829 288 871 283 q 746 299 788 293 q 580 109 663 197 q 425 -33 497 21 q 313 -94 371 -72 q 197 -115 256 -115 m 917 306 q 976 501 942 403 q 1043 679 1010 599 l 1050 696 q 919 518 990 613 q 774 331 847 424 q 846 317 810 324 q 917 306 882 311 m 1190 932 q 1118 955 1149 932 q 1088 1028 1088 978 q 1094 1059 1088 1047 q 1110 1071 1101 1071 q 1123 1066 1117 1071 q 1129 1054 1129 1061 q 1156 985 1129 1008 q 1218 961 1182 961 q 1283 987 1247 961 q 1336 1071 1318 1013 q 1346 1076 1336 1076 q 1365 1061 1365 1076 q 1303 965 1351 999 q 1190 932 1256 932 z "},"Ắ":{"ha":1176,"x_min":15,"x_max":1369,"o":"m 197 -115 q 110 -100 151 -115 q 42 -51 68 -85 q 15 33 15 -18 q 22 56 15 46 q 33 67 28 67 q 44 33 44 67 q 85 -40 44 -14 q 171 -61 117 -61 q 283 -42 225 -61 q 394 14 342 -22 q 534 134 457 56 q 694 306 611 213 q 562 321 628 313 q 429 329 496 329 q 340 320 385 329 q 260 286 296 311 q 206 213 224 261 q 202 200 204 207 q 200 186 200 193 q 207 161 200 172 q 210 151 210 153 q 199 139 210 139 q 183 149 189 139 q 169 213 169 174 q 197 325 169 286 q 269 378 224 364 q 368 392 315 392 q 417 390 392 392 q 468 385 443 388 q 594 366 529 379 q 725 339 660 353 q 867 510 797 424 q 999 673 938 596 q 1103 806 1060 750 q 1108 811 1104 810 q 1113 814 1111 814 q 1151 828 1128 822 q 1183 835 1175 835 q 1197 819 1197 835 q 1190 804 1197 815 q 1072 563 1121 686 q 985 308 1022 439 l 982 299 q 999 298 990 299 q 1015 297 1008 297 q 1117 310 1075 293 q 1158 342 1147 321 q 1165 347 1163 347 q 1175 340 1172 347 q 1174 325 1178 332 q 1119 286 1158 299 q 1069 274 1097 276 q 1010 272 1040 271 l 1001 272 l 985 274 l 976 274 q 947 115 956 197 q 946 102 946 108 q 946 89 946 96 q 989 10 946 10 q 1055 35 1017 10 q 1133 96 1093 60 q 1204 167 1172 132 q 1251 224 1236 203 q 1260 226 1254 226 q 1268 211 1274 226 q 1244 178 1265 207 q 1188 110 1224 150 q 1103 32 1151 71 q 1026 -8 1064 1 q 968 -17 988 -17 q 906 19 929 -17 q 883 110 883 54 q 892 193 883 150 q 911 279 900 236 q 829 288 871 283 q 746 299 788 293 q 580 109 663 197 q 425 -33 497 21 q 313 -94 371 -72 q 197 -115 256 -115 m 917 306 q 976 501 942 403 q 1043 679 1010 599 l 1050 696 q 919 518 990 613 q 774 331 847 424 q 846 317 810 324 q 917 306 882 311 m 1160 1113 q 1149 1118 1149 1113 q 1169 1138 1149 1125 q 1213 1167 1183 1146 q 1281 1217 1243 1188 q 1313 1243 1300 1233 q 1331 1253 1325 1253 q 1341 1253 1335 1253 q 1354 1246 1347 1253 q 1369 1226 1369 1235 q 1367 1216 1369 1221 q 1360 1206 1364 1211 q 1321 1182 1350 1197 q 1257 1151 1292 1167 q 1194 1124 1222 1135 q 1160 1113 1167 1113 m 1190 932 q 1118 955 1149 932 q 1088 1028 1088 978 q 1094 1059 1088 1047 q 1110 1071 1101 1071 q 1123 1066 1117 1071 q 1129 1054 1129 1061 q 1156 985 1129 1008 q 1218 961 1182 961 q 1283 987 1247 961 q 1336 1071 1318 1013 q 1346 1076 1336 1076 q 1365 1061 1365 1076 q 1303 965 1351 999 q 1190 932 1256 932 z "},"Ặ":{"ha":1176,"x_min":15,"x_max":1365,"o":"m 197 -115 q 110 -100 151 -115 q 42 -51 68 -85 q 15 33 15 -18 q 22 56 15 46 q 33 67 28 67 q 44 33 44 67 q 85 -40 44 -14 q 171 -61 117 -61 q 283 -42 225 -61 q 394 14 342 -22 q 534 134 457 56 q 694 306 611 213 q 562 321 628 313 q 429 329 496 329 q 340 320 385 329 q 260 286 296 311 q 206 213 224 261 q 202 200 204 207 q 200 186 200 193 q 207 161 200 172 q 210 151 210 153 q 199 139 210 139 q 183 149 189 139 q 169 213 169 174 q 197 325 169 286 q 269 378 224 364 q 368 392 315 392 q 417 390 392 392 q 468 385 443 388 q 594 366 529 379 q 725 339 660 353 q 867 510 797 424 q 999 673 938 596 q 1103 806 1060 750 q 1108 811 1104 810 q 1113 814 1111 814 q 1151 828 1128 822 q 1183 835 1175 835 q 1197 819 1197 835 q 1190 804 1197 815 q 1072 563 1121 686 q 985 308 1022 439 l 982 299 q 999 298 990 299 q 1015 297 1008 297 q 1117 310 1075 293 q 1158 342 1147 321 q 1165 347 1163 347 q 1175 340 1172 347 q 1174 325 1178 332 q 1119 286 1158 299 q 1069 274 1097 276 q 1010 272 1040 271 l 1001 272 l 985 274 l 976 274 q 947 115 956 197 q 946 102 946 108 q 946 89 946 96 q 989 10 946 10 q 1055 35 1017 10 q 1133 96 1093 60 q 1204 167 1172 132 q 1251 224 1236 203 q 1260 226 1254 226 q 1268 211 1274 226 q 1244 178 1265 207 q 1188 110 1224 150 q 1103 32 1151 71 q 1026 -8 1064 1 q 968 -17 988 -17 q 906 19 929 -17 q 883 110 883 54 q 892 193 883 150 q 911 279 900 236 q 829 288 871 283 q 746 299 788 293 q 580 109 663 197 q 425 -33 497 21 q 313 -94 371 -72 q 197 -115 256 -115 m 917 306 q 976 501 942 403 q 1043 679 1010 599 l 1050 696 q 919 518 990 613 q 774 331 847 424 q 846 317 810 324 q 917 306 882 311 m 663 -186 q 628 -183 647 -186 q 608 -158 608 -179 q 620 -144 608 -156 q 645 -120 632 -132 q 661 -106 658 -108 q 696 -87 688 -87 q 707 -107 707 -87 l 707 -124 q 699 -146 707 -131 q 681 -174 692 -161 q 663 -186 671 -186 m 1190 932 q 1118 955 1149 932 q 1088 1028 1088 978 q 1094 1059 1088 1047 q 1110 1071 1101 1071 q 1123 1066 1117 1071 q 1129 1054 1129 1061 q 1156 985 1129 1008 q 1218 961 1182 961 q 1283 987 1247 961 q 1336 1071 1318 1013 q 1346 1076 1336 1076 q 1365 1061 1365 1076 q 1303 965 1351 999 q 1190 932 1256 932 z "},"Ằ":{"ha":1176,"x_min":15,"x_max":1365,"o":"m 197 -115 q 110 -100 151 -115 q 42 -51 68 -85 q 15 33 15 -18 q 22 56 15 46 q 33 67 28 67 q 44 33 44 67 q 85 -40 44 -14 q 171 -61 117 -61 q 283 -42 225 -61 q 394 14 342 -22 q 534 134 457 56 q 694 306 611 213 q 562 321 628 313 q 429 329 496 329 q 340 320 385 329 q 260 286 296 311 q 206 213 224 261 q 202 200 204 207 q 200 186 200 193 q 207 161 200 172 q 210 151 210 153 q 199 139 210 139 q 183 149 189 139 q 169 213 169 174 q 197 325 169 286 q 269 378 224 364 q 368 392 315 392 q 417 390 392 392 q 468 385 443 388 q 594 366 529 379 q 725 339 660 353 q 867 510 797 424 q 999 673 938 596 q 1103 806 1060 750 q 1108 811 1104 810 q 1113 814 1111 814 q 1151 828 1128 822 q 1183 835 1175 835 q 1197 819 1197 835 q 1190 804 1197 815 q 1072 563 1121 686 q 985 308 1022 439 l 982 299 q 999 298 990 299 q 1015 297 1008 297 q 1117 310 1075 293 q 1158 342 1147 321 q 1165 347 1163 347 q 1175 340 1172 347 q 1174 325 1178 332 q 1119 286 1158 299 q 1069 274 1097 276 q 1010 272 1040 271 l 1001 272 l 985 274 l 976 274 q 947 115 956 197 q 946 102 946 108 q 946 89 946 96 q 989 10 946 10 q 1055 35 1017 10 q 1133 96 1093 60 q 1204 167 1172 132 q 1251 224 1236 203 q 1260 226 1254 226 q 1268 211 1274 226 q 1244 178 1265 207 q 1188 110 1224 150 q 1103 32 1151 71 q 1026 -8 1064 1 q 968 -17 988 -17 q 906 19 929 -17 q 883 110 883 54 q 892 193 883 150 q 911 279 900 236 q 829 288 871 283 q 746 299 788 293 q 580 109 663 197 q 425 -33 497 21 q 313 -94 371 -72 q 197 -115 256 -115 m 917 306 q 976 501 942 403 q 1043 679 1010 599 l 1050 696 q 919 518 990 613 q 774 331 847 424 q 846 317 810 324 q 917 306 882 311 m 1296 1114 q 1260 1125 1288 1114 q 1199 1152 1232 1136 q 1137 1183 1165 1168 q 1099 1207 1108 1199 q 1089 1215 1093 1211 q 1085 1225 1085 1219 q 1100 1249 1085 1238 q 1121 1257 1111 1257 q 1142 1246 1128 1257 q 1175 1218 1156 1235 q 1242 1167 1213 1189 q 1286 1139 1272 1146 q 1307 1119 1307 1129 q 1296 1114 1307 1114 m 1190 932 q 1118 955 1149 932 q 1088 1028 1088 978 q 1094 1059 1088 1047 q 1110 1071 1101 1071 q 1123 1066 1117 1071 q 1129 1054 1129 1061 q 1156 985 1129 1008 q 1218 961 1182 961 q 1283 987 1247 961 q 1336 1071 1318 1013 q 1346 1076 1336 1076 q 1365 1061 1365 1076 q 1303 965 1351 999 q 1190 932 1256 932 z "},"Ẳ":{"ha":1176,"x_min":15,"x_max":1365,"o":"m 197 -115 q 110 -100 151 -115 q 42 -51 68 -85 q 15 33 15 -18 q 22 56 15 46 q 33 67 28 67 q 44 33 44 67 q 85 -40 44 -14 q 171 -61 117 -61 q 283 -42 225 -61 q 394 14 342 -22 q 534 134 457 56 q 694 306 611 213 q 562 321 628 313 q 429 329 496 329 q 340 320 385 329 q 260 286 296 311 q 206 213 224 261 q 202 200 204 207 q 200 186 200 193 q 207 161 200 172 q 210 151 210 153 q 199 139 210 139 q 183 149 189 139 q 169 213 169 174 q 197 325 169 286 q 269 378 224 364 q 368 392 315 392 q 417 390 392 392 q 468 385 443 388 q 594 366 529 379 q 725 339 660 353 q 867 510 797 424 q 999 673 938 596 q 1103 806 1060 750 q 1108 811 1104 810 q 1113 814 1111 814 q 1151 828 1128 822 q 1183 835 1175 835 q 1197 819 1197 835 q 1190 804 1197 815 q 1072 563 1121 686 q 985 308 1022 439 l 982 299 q 999 298 990 299 q 1015 297 1008 297 q 1117 310 1075 293 q 1158 342 1147 321 q 1165 347 1163 347 q 1175 340 1172 347 q 1174 325 1178 332 q 1119 286 1158 299 q 1069 274 1097 276 q 1010 272 1040 271 l 1001 272 l 985 274 l 976 274 q 947 115 956 197 q 946 102 946 108 q 946 89 946 96 q 989 10 946 10 q 1055 35 1017 10 q 1133 96 1093 60 q 1204 167 1172 132 q 1251 224 1236 203 q 1260 226 1254 226 q 1268 211 1274 226 q 1244 178 1265 207 q 1188 110 1224 150 q 1103 32 1151 71 q 1026 -8 1064 1 q 968 -17 988 -17 q 906 19 929 -17 q 883 110 883 54 q 892 193 883 150 q 911 279 900 236 q 829 288 871 283 q 746 299 788 293 q 580 109 663 197 q 425 -33 497 21 q 313 -94 371 -72 q 197 -115 256 -115 m 917 306 q 976 501 942 403 q 1043 679 1010 599 l 1050 696 q 919 518 990 613 q 774 331 847 424 q 846 317 810 324 q 917 306 882 311 m 1265 1113 q 1253 1108 1257 1108 q 1246 1114 1246 1108 q 1251 1125 1246 1119 q 1290 1176 1271 1147 q 1308 1233 1308 1206 q 1296 1265 1308 1254 q 1265 1275 1283 1275 q 1219 1267 1236 1275 q 1200 1260 1203 1260 q 1193 1268 1192 1260 q 1215 1285 1196 1276 q 1257 1301 1235 1294 q 1290 1308 1279 1308 q 1335 1294 1314 1308 q 1356 1251 1356 1279 q 1340 1190 1356 1218 q 1304 1141 1325 1161 q 1265 1113 1283 1121 m 1190 932 q 1118 955 1149 932 q 1088 1028 1088 978 q 1094 1059 1088 1047 q 1110 1071 1101 1071 q 1123 1066 1117 1071 q 1129 1054 1129 1061 q 1156 985 1129 1008 q 1218 961 1182 961 q 1283 987 1247 961 q 1336 1071 1318 1013 q 1346 1076 1336 1076 q 1365 1061 1365 1076 q 1303 965 1351 999 q 1190 932 1256 932 z "},"Ẵ":{"ha":1176,"x_min":15,"x_max":1419,"o":"m 197 -115 q 110 -100 151 -115 q 42 -51 68 -85 q 15 33 15 -18 q 22 56 15 46 q 33 67 28 67 q 44 33 44 67 q 85 -40 44 -14 q 171 -61 117 -61 q 283 -42 225 -61 q 394 14 342 -22 q 534 134 457 56 q 694 306 611 213 q 562 321 628 313 q 429 329 496 329 q 340 320 385 329 q 260 286 296 311 q 206 213 224 261 q 202 200 204 207 q 200 186 200 193 q 207 161 200 172 q 210 151 210 153 q 199 139 210 139 q 183 149 189 139 q 169 213 169 174 q 197 325 169 286 q 269 378 224 364 q 368 392 315 392 q 417 390 392 392 q 468 385 443 388 q 594 366 529 379 q 725 339 660 353 q 867 510 797 424 q 999 673 938 596 q 1103 806 1060 750 q 1108 811 1104 810 q 1113 814 1111 814 q 1151 828 1128 822 q 1183 835 1175 835 q 1197 819 1197 835 q 1190 804 1197 815 q 1072 563 1121 686 q 985 308 1022 439 l 982 299 q 999 298 990 299 q 1015 297 1008 297 q 1117 310 1075 293 q 1158 342 1147 321 q 1165 347 1163 347 q 1175 340 1172 347 q 1174 325 1178 332 q 1119 286 1158 299 q 1069 274 1097 276 q 1010 272 1040 271 l 1001 272 l 985 274 l 976 274 q 947 115 956 197 q 946 102 946 108 q 946 89 946 96 q 989 10 946 10 q 1055 35 1017 10 q 1133 96 1093 60 q 1204 167 1172 132 q 1251 224 1236 203 q 1260 226 1254 226 q 1268 211 1274 226 q 1244 178 1265 207 q 1188 110 1224 150 q 1103 32 1151 71 q 1026 -8 1064 1 q 968 -17 988 -17 q 906 19 929 -17 q 883 110 883 54 q 892 193 883 150 q 911 279 900 236 q 829 288 871 283 q 746 299 788 293 q 580 109 663 197 q 425 -33 497 21 q 313 -94 371 -72 q 197 -115 256 -115 m 917 306 q 976 501 942 403 q 1043 679 1010 599 l 1050 696 q 919 518 990 613 q 774 331 847 424 q 846 317 810 324 q 917 306 882 311 m 1122 1122 q 1111 1128 1111 1122 l 1111 1129 q 1159 1190 1135 1161 q 1215 1218 1183 1218 q 1253 1206 1229 1218 q 1305 1180 1278 1193 q 1354 1167 1332 1167 q 1377 1177 1368 1167 q 1393 1197 1386 1188 q 1407 1207 1400 1207 q 1419 1203 1419 1207 l 1419 1200 q 1382 1149 1406 1172 q 1331 1126 1358 1126 q 1288 1137 1310 1126 q 1246 1158 1267 1147 q 1203 1168 1225 1168 q 1171 1157 1189 1168 q 1140 1134 1153 1146 q 1122 1122 1126 1122 m 1190 932 q 1118 955 1149 932 q 1088 1028 1088 978 q 1094 1059 1088 1047 q 1110 1071 1101 1071 q 1123 1066 1117 1071 q 1129 1054 1129 1061 q 1156 985 1129 1008 q 1218 961 1182 961 q 1283 987 1247 961 q 1336 1071 1318 1013 q 1346 1076 1336 1076 q 1365 1061 1365 1076 q 1303 965 1351 999 q 1190 932 1256 932 z "},"Ǎ":{"ha":1176,"x_min":15,"x_max":1390,"o":"m 197 -115 q 110 -100 151 -115 q 42 -51 68 -85 q 15 33 15 -18 q 22 56 15 46 q 33 67 28 67 q 44 33 44 67 q 85 -40 44 -14 q 171 -61 117 -61 q 283 -42 225 -61 q 394 14 342 -22 q 534 134 457 56 q 694 306 611 213 q 562 321 628 313 q 429 329 496 329 q 340 320 385 329 q 260 286 296 311 q 206 213 224 261 q 202 200 204 207 q 200 186 200 193 q 207 161 200 172 q 210 151 210 153 q 199 139 210 139 q 183 149 189 139 q 169 213 169 174 q 197 325 169 286 q 269 378 224 364 q 368 392 315 392 q 417 390 392 392 q 468 385 443 388 q 594 366 529 379 q 725 339 660 353 q 867 510 797 424 q 999 673 938 596 q 1103 806 1060 750 q 1108 811 1104 810 q 1113 814 1111 814 q 1151 828 1128 822 q 1183 835 1175 835 q 1197 819 1197 835 q 1190 804 1197 815 q 1072 563 1121 686 q 985 308 1022 439 l 982 299 q 999 298 990 299 q 1015 297 1008 297 q 1117 310 1075 293 q 1158 342 1147 321 q 1165 347 1163 347 q 1175 340 1172 347 q 1174 325 1178 332 q 1119 286 1158 299 q 1069 274 1097 276 q 1010 272 1040 271 l 1001 272 l 985 274 l 976 274 q 947 115 956 197 q 946 102 946 108 q 946 89 946 96 q 989 10 946 10 q 1055 35 1017 10 q 1133 96 1093 60 q 1204 167 1172 132 q 1251 224 1236 203 q 1260 226 1254 226 q 1268 211 1274 226 q 1244 178 1265 207 q 1188 110 1224 150 q 1103 32 1151 71 q 1026 -8 1064 1 q 968 -17 988 -17 q 906 19 929 -17 q 883 110 883 54 q 892 193 883 150 q 911 279 900 236 q 829 288 871 283 q 746 299 788 293 q 580 109 663 197 q 425 -33 497 21 q 313 -94 371 -72 q 197 -115 256 -115 m 917 306 q 976 501 942 403 q 1043 679 1010 599 l 1050 696 q 919 518 990 613 q 774 331 847 424 q 846 317 810 324 q 917 306 882 311 m 1201 936 q 1172 960 1190 936 q 1138 1010 1154 983 q 1115 1050 1122 1038 q 1107 1076 1107 1069 q 1118 1092 1107 1089 q 1149 1065 1129 1086 q 1191 1022 1169 1044 q 1224 986 1213 1000 q 1279 1024 1247 1000 q 1341 1067 1311 1047 q 1383 1086 1371 1086 q 1390 1081 1390 1086 q 1371 1057 1390 1072 q 1332 1025 1357 1044 q 1280 985 1307 1006 q 1231 950 1253 964 q 1201 936 1210 936 z "},"Â":{"ha":1176,"x_min":15,"x_max":1317,"o":"m 197 -115 q 110 -100 151 -115 q 42 -51 68 -85 q 15 33 15 -18 q 22 56 15 46 q 33 67 28 67 q 44 33 44 67 q 85 -40 44 -14 q 171 -61 117 -61 q 283 -42 225 -61 q 394 14 342 -22 q 534 134 457 56 q 694 306 611 213 q 562 321 628 313 q 429 329 496 329 q 340 320 385 329 q 260 286 296 311 q 206 213 224 261 q 202 200 204 207 q 200 186 200 193 q 207 161 200 172 q 210 151 210 153 q 199 139 210 139 q 183 149 189 139 q 169 213 169 174 q 197 325 169 286 q 269 378 224 364 q 368 392 315 392 q 417 390 392 392 q 468 385 443 388 q 594 366 529 379 q 725 339 660 353 q 867 510 797 424 q 999 673 938 596 q 1103 806 1060 750 q 1108 811 1104 810 q 1113 814 1111 814 q 1151 828 1128 822 q 1183 835 1175 835 q 1197 819 1197 835 q 1190 804 1197 815 q 1072 563 1121 686 q 985 308 1022 439 l 982 299 q 999 298 990 299 q 1015 297 1008 297 q 1117 310 1075 293 q 1158 342 1147 321 q 1165 347 1163 347 q 1175 340 1172 347 q 1174 325 1178 332 q 1119 286 1158 299 q 1069 274 1097 276 q 1010 272 1040 271 l 1001 272 l 985 274 l 976 274 q 947 115 956 197 q 946 102 946 108 q 946 89 946 96 q 989 10 946 10 q 1055 35 1017 10 q 1133 96 1093 60 q 1204 167 1172 132 q 1251 224 1236 203 q 1260 226 1254 226 q 1268 211 1274 226 q 1244 178 1265 207 q 1188 110 1224 150 q 1103 32 1151 71 q 1026 -8 1064 1 q 968 -17 988 -17 q 906 19 929 -17 q 883 110 883 54 q 892 193 883 150 q 911 279 900 236 q 829 288 871 283 q 746 299 788 293 q 580 109 663 197 q 425 -33 497 21 q 313 -94 371 -72 q 197 -115 256 -115 m 917 306 q 976 501 942 403 q 1043 679 1010 599 l 1050 696 q 919 518 990 613 q 774 331 847 424 q 846 317 810 324 q 917 306 882 311 m 1247 1089 q 1272 1063 1258 1089 q 1296 1007 1285 1038 q 1313 963 1307 976 q 1316 944 1315 950 q 1317 933 1317 939 q 1304 917 1315 919 q 1278 947 1294 924 q 1246 994 1263 969 q 1221 1033 1229 1019 q 1164 993 1197 1019 q 1101 945 1131 967 q 1058 924 1071 924 q 1053 929 1053 924 q 1075 956 1054 939 q 1115 990 1089 968 q 1168 1035 1140 1013 q 1218 1074 1196 1058 q 1247 1089 1240 1089 z "},"Ấ":{"ha":1176,"x_min":15,"x_max":1358,"o":"m 197 -115 q 110 -100 151 -115 q 42 -51 68 -85 q 15 33 15 -18 q 22 56 15 46 q 33 67 28 67 q 44 33 44 67 q 85 -40 44 -14 q 171 -61 117 -61 q 283 -42 225 -61 q 394 14 342 -22 q 534 134 457 56 q 694 306 611 213 q 562 321 628 313 q 429 329 496 329 q 340 320 385 329 q 260 286 296 311 q 206 213 224 261 q 202 200 204 207 q 200 186 200 193 q 207 161 200 172 q 210 151 210 153 q 199 139 210 139 q 183 149 189 139 q 169 213 169 174 q 197 325 169 286 q 269 378 224 364 q 368 392 315 392 q 417 390 392 392 q 468 385 443 388 q 594 366 529 379 q 725 339 660 353 q 867 510 797 424 q 999 673 938 596 q 1103 806 1060 750 q 1108 811 1104 810 q 1113 814 1111 814 q 1151 828 1128 822 q 1183 835 1175 835 q 1197 819 1197 835 q 1190 804 1197 815 q 1072 563 1121 686 q 985 308 1022 439 l 982 299 q 999 298 990 299 q 1015 297 1008 297 q 1117 310 1075 293 q 1158 342 1147 321 q 1165 347 1163 347 q 1175 340 1172 347 q 1174 325 1178 332 q 1119 286 1158 299 q 1069 274 1097 276 q 1010 272 1040 271 l 1001 272 l 985 274 l 976 274 q 947 115 956 197 q 946 102 946 108 q 946 89 946 96 q 989 10 946 10 q 1055 35 1017 10 q 1133 96 1093 60 q 1204 167 1172 132 q 1251 224 1236 203 q 1260 226 1254 226 q 1268 211 1274 226 q 1244 178 1265 207 q 1188 110 1224 150 q 1103 32 1151 71 q 1026 -8 1064 1 q 968 -17 988 -17 q 906 19 929 -17 q 883 110 883 54 q 892 193 883 150 q 911 279 900 236 q 829 288 871 283 q 746 299 788 293 q 580 109 663 197 q 425 -33 497 21 q 313 -94 371 -72 q 197 -115 256 -115 m 917 306 q 976 501 942 403 q 1043 679 1010 599 l 1050 696 q 919 518 990 613 q 774 331 847 424 q 846 317 810 324 q 917 306 882 311 m 1161 1117 q 1150 1122 1150 1117 q 1169 1140 1150 1128 q 1211 1168 1182 1149 q 1275 1215 1240 1188 q 1321 1249 1313 1249 q 1331 1249 1325 1249 q 1343 1242 1338 1249 q 1358 1224 1358 1233 q 1349 1204 1358 1217 q 1312 1183 1339 1197 q 1252 1153 1285 1168 q 1194 1127 1219 1138 q 1161 1117 1168 1117 m 1247 1089 q 1272 1063 1258 1089 q 1297 1007 1285 1038 q 1313 963 1308 976 q 1316 944 1315 949 q 1317 933 1317 939 q 1304 917 1314 918 q 1279 946 1296 924 q 1247 994 1263 968 q 1221 1033 1231 1019 q 1164 993 1197 1019 q 1101 945 1131 967 q 1058 924 1071 924 q 1053 929 1053 924 q 1075 956 1054 939 q 1115 990 1090 968 q 1168 1035 1140 1013 q 1218 1074 1196 1058 q 1247 1089 1240 1089 z "},"Ậ":{"ha":1176,"x_min":15,"x_max":1317,"o":"m 197 -115 q 110 -100 151 -115 q 42 -51 68 -85 q 15 33 15 -18 q 22 56 15 46 q 33 67 28 67 q 44 33 44 67 q 85 -40 44 -14 q 171 -61 117 -61 q 283 -42 225 -61 q 394 14 342 -22 q 534 134 457 56 q 694 306 611 213 q 562 321 628 313 q 429 329 496 329 q 340 320 385 329 q 260 286 296 311 q 206 213 224 261 q 202 200 204 207 q 200 186 200 193 q 207 161 200 172 q 210 151 210 153 q 199 139 210 139 q 183 149 189 139 q 169 213 169 174 q 197 325 169 286 q 269 378 224 364 q 368 392 315 392 q 417 390 392 392 q 468 385 443 388 q 594 366 529 379 q 725 339 660 353 q 867 510 797 424 q 999 673 938 596 q 1103 806 1060 750 q 1108 811 1104 810 q 1113 814 1111 814 q 1151 828 1128 822 q 1183 835 1175 835 q 1197 819 1197 835 q 1190 804 1197 815 q 1072 563 1121 686 q 985 308 1022 439 l 982 299 q 999 298 990 299 q 1015 297 1008 297 q 1117 310 1075 293 q 1158 342 1147 321 q 1165 347 1163 347 q 1175 340 1172 347 q 1174 325 1178 332 q 1119 286 1158 299 q 1069 274 1097 276 q 1010 272 1040 271 l 1001 272 l 985 274 l 976 274 q 947 115 956 197 q 946 102 946 108 q 946 89 946 96 q 989 10 946 10 q 1055 35 1017 10 q 1133 96 1093 60 q 1204 167 1172 132 q 1251 224 1236 203 q 1260 226 1254 226 q 1268 211 1274 226 q 1244 178 1265 207 q 1188 110 1224 150 q 1103 32 1151 71 q 1026 -8 1064 1 q 968 -17 988 -17 q 906 19 929 -17 q 883 110 883 54 q 892 193 883 150 q 911 279 900 236 q 829 288 871 283 q 746 299 788 293 q 580 109 663 197 q 425 -33 497 21 q 313 -94 371 -72 q 197 -115 256 -115 m 917 306 q 976 501 942 403 q 1043 679 1010 599 l 1050 696 q 919 518 990 613 q 774 331 847 424 q 846 317 810 324 q 917 306 882 311 m 663 -186 q 628 -183 647 -186 q 608 -158 608 -179 q 620 -144 608 -156 q 645 -120 632 -132 q 661 -106 658 -108 q 696 -87 688 -87 q 707 -107 707 -87 l 707 -124 q 699 -146 707 -131 q 681 -174 692 -161 q 663 -186 671 -186 m 1247 1089 q 1272 1063 1258 1089 q 1296 1007 1285 1038 q 1313 963 1307 976 q 1316 944 1315 950 q 1317 933 1317 939 q 1304 917 1315 919 q 1278 947 1294 924 q 1246 994 1263 969 q 1221 1033 1229 1019 q 1164 993 1197 1019 q 1101 945 1131 967 q 1058 924 1071 924 q 1053 929 1053 924 q 1075 956 1054 939 q 1115 990 1089 968 q 1168 1035 1140 1013 q 1218 1074 1196 1058 q 1247 1089 1240 1089 z "},"Ầ":{"ha":1176,"x_min":15,"x_max":1401,"o":"m 197 -115 q 110 -100 151 -115 q 42 -51 68 -85 q 15 33 15 -18 q 22 56 15 46 q 33 67 28 67 q 44 33 44 67 q 85 -40 44 -14 q 171 -61 117 -61 q 283 -42 225 -61 q 394 14 342 -22 q 534 134 457 56 q 694 306 611 213 q 562 321 628 313 q 429 329 496 329 q 340 320 385 329 q 260 286 296 311 q 206 213 224 261 q 202 200 204 207 q 200 186 200 193 q 207 161 200 172 q 210 151 210 153 q 199 139 210 139 q 183 149 189 139 q 169 213 169 174 q 197 325 169 286 q 269 378 224 364 q 368 392 315 392 q 417 390 392 392 q 468 385 443 388 q 594 366 529 379 q 725 339 660 353 q 867 510 797 424 q 999 673 938 596 q 1103 806 1060 750 q 1108 811 1104 810 q 1113 814 1111 814 q 1151 828 1128 822 q 1183 835 1175 835 q 1197 819 1197 835 q 1190 804 1197 815 q 1072 563 1121 686 q 985 308 1022 439 l 982 299 q 999 298 990 299 q 1015 297 1008 297 q 1117 310 1075 293 q 1158 342 1147 321 q 1165 347 1163 347 q 1175 340 1172 347 q 1174 325 1178 332 q 1119 286 1158 299 q 1069 274 1097 276 q 1010 272 1040 271 l 1001 272 l 985 274 l 976 274 q 947 115 956 197 q 946 102 946 108 q 946 89 946 96 q 989 10 946 10 q 1055 35 1017 10 q 1133 96 1093 60 q 1204 167 1172 132 q 1251 224 1236 203 q 1260 226 1254 226 q 1268 211 1274 226 q 1244 178 1265 207 q 1188 110 1224 150 q 1103 32 1151 71 q 1026 -8 1064 1 q 968 -17 988 -17 q 906 19 929 -17 q 883 110 883 54 q 892 193 883 150 q 911 279 900 236 q 829 288 871 283 q 746 299 788 293 q 580 109 663 197 q 425 -33 497 21 q 313 -94 371 -72 q 197 -115 256 -115 m 917 306 q 976 501 942 403 q 1043 679 1010 599 l 1050 696 q 919 518 990 613 q 774 331 847 424 q 846 317 810 324 q 917 306 882 311 m 1390 1100 q 1356 1110 1382 1100 q 1299 1136 1331 1121 q 1240 1166 1267 1151 q 1204 1188 1214 1181 q 1196 1195 1200 1192 q 1192 1204 1192 1199 q 1206 1226 1192 1217 q 1226 1235 1217 1235 q 1246 1224 1233 1235 q 1276 1199 1258 1214 q 1340 1151 1313 1171 q 1382 1124 1368 1131 q 1401 1106 1401 1113 q 1390 1100 1401 1100 m 1247 1089 q 1272 1063 1258 1089 q 1297 1007 1285 1038 q 1313 963 1308 976 q 1316 944 1315 949 q 1317 933 1317 939 q 1304 917 1314 918 q 1279 946 1296 924 q 1247 994 1263 968 q 1221 1033 1231 1019 q 1164 993 1197 1019 q 1101 945 1131 967 q 1058 924 1071 924 q 1053 929 1053 924 q 1075 956 1054 939 q 1115 990 1090 968 q 1168 1035 1140 1013 q 1218 1074 1196 1058 q 1247 1089 1240 1089 z "},"Ẩ":{"ha":1176,"x_min":15,"x_max":1467,"o":"m 197 -115 q 110 -100 151 -115 q 42 -51 68 -85 q 15 33 15 -18 q 22 56 15 46 q 33 67 28 67 q 44 33 44 67 q 85 -40 44 -14 q 171 -61 117 -61 q 283 -42 225 -61 q 394 14 342 -22 q 534 134 457 56 q 694 306 611 213 q 562 321 628 313 q 429 329 496 329 q 340 320 385 329 q 260 286 296 311 q 206 213 224 261 q 202 200 204 207 q 200 186 200 193 q 207 161 200 172 q 210 151 210 153 q 199 139 210 139 q 183 149 189 139 q 169 213 169 174 q 197 325 169 286 q 269 378 224 364 q 368 392 315 392 q 417 390 392 392 q 468 385 443 388 q 594 366 529 379 q 725 339 660 353 q 867 510 797 424 q 999 673 938 596 q 1103 806 1060 750 q 1108 811 1104 810 q 1113 814 1111 814 q 1151 828 1128 822 q 1183 835 1175 835 q 1197 819 1197 835 q 1190 804 1197 815 q 1072 563 1121 686 q 985 308 1022 439 l 982 299 q 999 298 990 299 q 1015 297 1008 297 q 1117 310 1075 293 q 1158 342 1147 321 q 1165 347 1163 347 q 1175 340 1172 347 q 1174 325 1178 332 q 1119 286 1158 299 q 1069 274 1097 276 q 1010 272 1040 271 l 1001 272 l 985 274 l 976 274 q 947 115 956 197 q 946 102 946 108 q 946 89 946 96 q 989 10 946 10 q 1055 35 1017 10 q 1133 96 1093 60 q 1204 167 1172 132 q 1251 224 1236 203 q 1260 226 1254 226 q 1268 211 1274 226 q 1244 178 1265 207 q 1188 110 1224 150 q 1103 32 1151 71 q 1026 -8 1064 1 q 968 -17 988 -17 q 906 19 929 -17 q 883 110 883 54 q 892 193 883 150 q 911 279 900 236 q 829 288 871 283 q 746 299 788 293 q 580 109 663 197 q 425 -33 497 21 q 313 -94 371 -72 q 197 -115 256 -115 m 917 306 q 976 501 942 403 q 1043 679 1010 599 l 1050 696 q 919 518 990 613 q 774 331 847 424 q 846 317 810 324 q 917 306 882 311 m 1376 1025 q 1364 1021 1368 1021 q 1357 1026 1357 1021 q 1363 1038 1357 1032 q 1401 1089 1382 1060 q 1419 1146 1419 1118 q 1407 1177 1419 1167 q 1376 1188 1394 1188 q 1331 1180 1347 1188 q 1311 1172 1314 1172 q 1304 1181 1303 1172 q 1326 1198 1307 1189 q 1368 1214 1346 1207 q 1401 1221 1390 1221 q 1446 1206 1425 1221 q 1467 1164 1467 1192 q 1451 1101 1467 1129 q 1415 1053 1436 1074 q 1376 1025 1394 1033 m 1247 1089 q 1272 1063 1258 1089 q 1297 1007 1285 1038 q 1313 963 1308 976 q 1316 944 1315 949 q 1317 933 1317 939 q 1304 917 1314 918 q 1279 946 1296 924 q 1247 994 1263 968 q 1221 1033 1231 1019 q 1164 993 1197 1019 q 1101 945 1131 967 q 1058 924 1071 924 q 1053 929 1053 924 q 1075 956 1054 939 q 1115 990 1090 968 q 1168 1035 1140 1013 q 1218 1074 1196 1058 q 1247 1089 1240 1089 z "},"Ẫ":{"ha":1176,"x_min":15,"x_max":1413,"o":"m 197 -115 q 110 -100 151 -115 q 42 -51 68 -85 q 15 33 15 -18 q 22 56 15 46 q 33 67 28 67 q 44 33 44 67 q 85 -40 44 -14 q 171 -61 117 -61 q 283 -42 225 -61 q 394 14 342 -22 q 534 134 457 56 q 694 306 611 213 q 562 321 628 313 q 429 329 496 329 q 340 320 385 329 q 260 286 296 311 q 206 213 224 261 q 202 200 204 207 q 200 186 200 193 q 207 161 200 172 q 210 151 210 153 q 199 139 210 139 q 183 149 189 139 q 169 213 169 174 q 197 325 169 286 q 269 378 224 364 q 368 392 315 392 q 417 390 392 392 q 468 385 443 388 q 594 366 529 379 q 725 339 660 353 q 867 510 797 424 q 999 673 938 596 q 1103 806 1060 750 q 1108 811 1104 810 q 1113 814 1111 814 q 1151 828 1128 822 q 1183 835 1175 835 q 1197 819 1197 835 q 1190 804 1197 815 q 1072 563 1121 686 q 985 308 1022 439 l 982 299 q 999 298 990 299 q 1015 297 1008 297 q 1117 310 1075 293 q 1158 342 1147 321 q 1165 347 1163 347 q 1175 340 1172 347 q 1174 325 1178 332 q 1119 286 1158 299 q 1069 274 1097 276 q 1010 272 1040 271 l 1001 272 l 985 274 l 976 274 q 947 115 956 197 q 946 102 946 108 q 946 89 946 96 q 989 10 946 10 q 1055 35 1017 10 q 1133 96 1093 60 q 1204 167 1172 132 q 1251 224 1236 203 q 1260 226 1254 226 q 1268 211 1274 226 q 1244 178 1265 207 q 1188 110 1224 150 q 1103 32 1151 71 q 1026 -8 1064 1 q 968 -17 988 -17 q 906 19 929 -17 q 883 110 883 54 q 892 193 883 150 q 911 279 900 236 q 829 288 871 283 q 746 299 788 293 q 580 109 663 197 q 425 -33 497 21 q 313 -94 371 -72 q 197 -115 256 -115 m 917 306 q 976 501 942 403 q 1043 679 1010 599 l 1050 696 q 919 518 990 613 q 774 331 847 424 q 846 317 810 324 q 917 306 882 311 m 1115 1119 q 1104 1125 1104 1119 l 1104 1126 q 1152 1187 1128 1158 q 1208 1215 1176 1215 q 1247 1203 1222 1215 q 1298 1177 1271 1190 q 1347 1164 1325 1164 q 1370 1174 1361 1164 q 1386 1194 1379 1185 q 1400 1204 1393 1204 q 1413 1200 1413 1204 l 1413 1197 q 1375 1147 1399 1169 q 1324 1124 1351 1124 q 1281 1134 1303 1124 q 1239 1155 1260 1144 q 1196 1165 1218 1165 q 1164 1154 1182 1165 q 1133 1131 1146 1143 q 1115 1119 1119 1119 m 1247 1089 q 1272 1063 1258 1089 q 1297 1007 1285 1038 q 1313 963 1308 976 q 1316 944 1315 949 q 1317 933 1317 939 q 1304 917 1314 918 q 1279 946 1296 924 q 1247 994 1263 968 q 1221 1033 1231 1019 q 1164 993 1197 1019 q 1101 945 1131 967 q 1058 924 1071 924 q 1053 929 1053 924 q 1075 956 1054 939 q 1115 990 1090 968 q 1168 1035 1140 1013 q 1218 1074 1196 1058 q 1247 1089 1240 1089 z "},"Ȁ":{"ha":1176,"x_min":15,"x_max":1274,"o":"m 197 -115 q 110 -100 151 -115 q 42 -51 68 -85 q 15 33 15 -18 q 22 56 15 46 q 33 67 28 67 q 44 33 44 67 q 85 -40 44 -14 q 171 -61 117 -61 q 283 -42 225 -61 q 394 14 342 -22 q 534 134 457 56 q 694 306 611 213 q 562 321 628 313 q 429 329 496 329 q 340 320 385 329 q 260 286 296 311 q 206 213 224 261 q 202 200 204 207 q 200 186 200 193 q 207 161 200 172 q 210 151 210 153 q 199 139 210 139 q 183 149 189 139 q 169 213 169 174 q 197 325 169 286 q 269 378 224 364 q 368 392 315 392 q 417 390 392 392 q 468 385 443 388 q 594 366 529 379 q 725 339 660 353 q 867 510 797 424 q 999 673 938 596 q 1103 806 1060 750 q 1108 811 1104 810 q 1113 814 1111 814 q 1151 828 1128 822 q 1183 835 1175 835 q 1197 819 1197 835 q 1190 804 1197 815 q 1072 563 1121 686 q 985 308 1022 439 l 982 299 q 999 298 990 299 q 1015 297 1008 297 q 1117 310 1075 293 q 1158 342 1147 321 q 1165 347 1163 347 q 1175 340 1172 347 q 1174 325 1178 332 q 1119 286 1158 299 q 1069 274 1097 276 q 1010 272 1040 271 l 1001 272 l 985 274 l 976 274 q 947 115 956 197 q 946 102 946 108 q 946 89 946 96 q 989 10 946 10 q 1055 35 1017 10 q 1133 96 1093 60 q 1204 167 1172 132 q 1251 224 1236 203 q 1260 226 1254 226 q 1268 211 1274 226 q 1244 178 1265 207 q 1188 110 1224 150 q 1103 32 1151 71 q 1026 -8 1064 1 q 968 -17 988 -17 q 906 19 929 -17 q 883 110 883 54 q 892 193 883 150 q 911 279 900 236 q 829 288 871 283 q 746 299 788 293 q 580 109 663 197 q 425 -33 497 21 q 313 -94 371 -72 q 197 -115 256 -115 m 917 306 q 976 501 942 403 q 1043 679 1010 599 l 1050 696 q 919 518 990 613 q 774 331 847 424 q 846 317 810 324 q 917 306 882 311 m 1103 921 q 1075 943 1096 924 q 1029 989 1054 963 q 984 1038 1004 1015 q 958 1072 964 1061 q 952 1083 954 1078 q 951 1093 950 1088 q 974 1108 956 1104 q 994 1108 986 1113 q 1010 1092 1001 1107 q 1031 1056 1018 1078 q 1074 988 1054 1017 q 1103 947 1093 958 q 1115 922 1118 931 q 1103 921 1114 917 m 1228 921 q 1200 943 1221 924 q 1154 989 1179 963 q 1109 1038 1129 1015 q 1083 1072 1089 1061 q 1077 1083 1079 1078 q 1076 1093 1075 1088 q 1099 1108 1081 1104 q 1119 1108 1111 1113 q 1135 1092 1126 1107 q 1156 1056 1143 1078 q 1199 988 1179 1017 q 1228 947 1218 958 q 1240 922 1243 931 q 1228 921 1239 917 z "},"Ä":{"ha":1176,"x_min":15,"x_max":1311,"o":"m 197 -115 q 110 -100 151 -115 q 42 -51 68 -85 q 15 33 15 -18 q 22 56 15 46 q 33 67 28 67 q 44 33 44 67 q 85 -40 44 -14 q 171 -61 117 -61 q 283 -42 225 -61 q 394 14 342 -22 q 534 134 457 56 q 694 306 611 213 q 562 321 628 313 q 429 329 496 329 q 340 320 385 329 q 260 286 296 311 q 206 213 224 261 q 202 200 204 207 q 200 186 200 193 q 207 161 200 172 q 210 151 210 153 q 199 139 210 139 q 183 149 189 139 q 169 213 169 174 q 197 325 169 286 q 269 378 224 364 q 368 392 315 392 q 417 390 392 392 q 468 385 443 388 q 594 366 529 379 q 725 339 660 353 q 867 510 797 424 q 999 673 938 596 q 1103 806 1060 750 q 1108 811 1104 810 q 1113 814 1111 814 q 1151 828 1128 822 q 1183 835 1175 835 q 1197 819 1197 835 q 1190 804 1197 815 q 1072 563 1121 686 q 985 308 1022 439 l 982 299 q 999 298 990 299 q 1015 297 1008 297 q 1117 310 1075 293 q 1158 342 1147 321 q 1165 347 1163 347 q 1175 340 1172 347 q 1174 325 1178 332 q 1119 286 1158 299 q 1069 274 1097 276 q 1010 272 1040 271 l 1001 272 l 985 274 l 976 274 q 947 115 956 197 q 946 102 946 108 q 946 89 946 96 q 989 10 946 10 q 1055 35 1017 10 q 1133 96 1093 60 q 1204 167 1172 132 q 1251 224 1236 203 q 1260 226 1254 226 q 1268 211 1274 226 q 1244 178 1265 207 q 1188 110 1224 150 q 1103 32 1151 71 q 1026 -8 1064 1 q 968 -17 988 -17 q 906 19 929 -17 q 883 110 883 54 q 892 193 883 150 q 911 279 900 236 q 829 288 871 283 q 746 299 788 293 q 580 109 663 197 q 425 -33 497 21 q 313 -94 371 -72 q 197 -115 256 -115 m 917 306 q 976 501 942 403 q 1043 679 1010 599 l 1050 696 q 919 518 990 613 q 774 331 847 424 q 846 317 810 324 q 917 306 882 311 m 1128 933 q 1097 936 1113 933 q 1081 956 1081 939 q 1095 972 1081 960 q 1126 996 1110 983 q 1146 1011 1143 1008 q 1169 1026 1163 1026 q 1172 1024 1172 1026 q 1167 1008 1172 1018 q 1163 988 1163 997 q 1149 955 1163 976 q 1128 933 1136 933 m 1267 933 q 1236 936 1251 933 q 1221 956 1221 939 q 1235 972 1221 960 q 1267 996 1250 983 q 1286 1011 1283 1008 q 1310 1026 1303 1026 q 1311 1024 1311 1026 q 1307 1008 1311 1018 q 1303 988 1303 997 q 1289 955 1303 976 q 1267 933 1275 933 z "},"Ạ":{"ha":1176,"x_min":15,"x_max":1274,"o":"m 197 -115 q 110 -100 151 -115 q 42 -51 68 -85 q 15 33 15 -18 q 22 56 15 46 q 33 67 28 67 q 44 33 44 67 q 85 -40 44 -14 q 171 -61 117 -61 q 283 -42 225 -61 q 394 14 342 -22 q 534 134 457 56 q 694 306 611 213 q 562 321 628 313 q 429 329 496 329 q 340 320 385 329 q 260 286 296 311 q 206 213 224 261 q 202 200 204 207 q 200 186 200 193 q 207 161 200 172 q 210 151 210 153 q 199 139 210 139 q 183 149 189 139 q 169 213 169 174 q 197 325 169 286 q 269 378 224 364 q 368 392 315 392 q 417 390 392 392 q 468 385 443 388 q 594 366 529 379 q 725 339 660 353 q 867 510 797 424 q 999 673 938 596 q 1103 806 1060 750 q 1108 811 1104 810 q 1113 814 1111 814 q 1151 828 1128 822 q 1183 835 1175 835 q 1197 819 1197 835 q 1190 804 1197 815 q 1072 563 1121 686 q 985 308 1022 439 l 982 299 q 999 298 990 299 q 1015 297 1008 297 q 1117 310 1075 293 q 1158 342 1147 321 q 1165 347 1163 347 q 1175 340 1172 347 q 1174 325 1178 332 q 1119 286 1158 299 q 1069 274 1097 276 q 1010 272 1040 271 l 1001 272 l 985 274 l 976 274 q 947 115 956 197 q 946 102 946 108 q 946 89 946 96 q 989 10 946 10 q 1055 35 1017 10 q 1133 96 1093 60 q 1204 167 1172 132 q 1251 224 1236 203 q 1260 226 1254 226 q 1268 211 1274 226 q 1244 178 1265 207 q 1188 110 1224 150 q 1103 32 1151 71 q 1026 -8 1064 1 q 968 -17 988 -17 q 906 19 929 -17 q 883 110 883 54 q 892 193 883 150 q 911 279 900 236 q 829 288 871 283 q 746 299 788 293 q 580 109 663 197 q 425 -33 497 21 q 313 -94 371 -72 q 197 -115 256 -115 m 917 306 q 976 501 942 403 q 1043 679 1010 599 l 1050 696 q 919 518 990 613 q 774 331 847 424 q 846 317 810 324 q 917 306 882 311 m 663 -186 q 628 -183 647 -186 q 608 -158 608 -179 q 620 -144 608 -156 q 645 -120 632 -132 q 661 -106 658 -108 q 696 -87 688 -87 q 707 -107 707 -87 l 707 -124 q 699 -146 707 -131 q 681 -174 692 -161 q 663 -186 671 -186 z "},"À":{"ha":1176,"x_min":15,"x_max":1274,"o":"m 197 -115 q 110 -100 151 -115 q 42 -51 68 -85 q 15 33 15 -18 q 22 56 15 46 q 33 67 28 67 q 44 33 44 67 q 85 -40 44 -14 q 171 -61 117 -61 q 283 -42 225 -61 q 394 14 342 -22 q 534 134 457 56 q 694 306 611 213 q 562 321 628 313 q 429 329 496 329 q 340 320 385 329 q 260 286 296 311 q 206 213 224 261 q 202 200 204 207 q 200 186 200 193 q 207 161 200 172 q 210 151 210 153 q 199 139 210 139 q 183 149 189 139 q 169 213 169 174 q 197 325 169 286 q 269 378 224 364 q 368 392 315 392 q 417 390 392 392 q 468 385 443 388 q 594 366 529 379 q 725 339 660 353 q 867 510 797 424 q 999 673 938 596 q 1103 806 1060 750 q 1108 811 1104 810 q 1113 814 1111 814 q 1151 828 1128 822 q 1183 835 1175 835 q 1197 819 1197 835 q 1190 804 1197 815 q 1072 563 1121 686 q 985 308 1022 439 l 982 299 q 999 298 990 299 q 1015 297 1008 297 q 1117 310 1075 293 q 1158 342 1147 321 q 1165 347 1163 347 q 1175 340 1172 347 q 1174 325 1178 332 q 1119 286 1158 299 q 1069 274 1097 276 q 1010 272 1040 271 l 1001 272 l 985 274 l 976 274 q 947 115 956 197 q 946 102 946 108 q 946 89 946 96 q 989 10 946 10 q 1055 35 1017 10 q 1133 96 1093 60 q 1204 167 1172 132 q 1251 224 1236 203 q 1260 226 1254 226 q 1268 211 1274 226 q 1244 178 1265 207 q 1188 110 1224 150 q 1103 32 1151 71 q 1026 -8 1064 1 q 968 -17 988 -17 q 906 19 929 -17 q 883 110 883 54 q 892 193 883 150 q 911 279 900 236 q 829 288 871 283 q 746 299 788 293 q 580 109 663 197 q 425 -33 497 21 q 313 -94 371 -72 q 197 -115 256 -115 m 917 306 q 976 501 942 403 q 1043 679 1010 599 l 1050 696 q 919 518 990 613 q 774 331 847 424 q 846 317 810 324 q 917 306 882 311 m 1256 932 q 1219 943 1247 932 q 1158 970 1192 954 q 1097 1001 1125 986 q 1058 1025 1068 1017 q 1049 1033 1053 1029 q 1044 1043 1044 1038 q 1060 1067 1044 1056 q 1081 1075 1071 1075 q 1101 1064 1088 1075 q 1135 1036 1115 1053 q 1202 985 1172 1007 q 1246 957 1232 964 q 1267 938 1267 947 q 1256 932 1267 932 z "},"Ả":{"ha":1176,"x_min":15,"x_max":1315,"o":"m 197 -115 q 110 -100 151 -115 q 42 -51 68 -85 q 15 33 15 -18 q 22 56 15 46 q 33 67 28 67 q 44 33 44 67 q 85 -40 44 -14 q 171 -61 117 -61 q 283 -42 225 -61 q 394 14 342 -22 q 534 134 457 56 q 694 306 611 213 q 562 321 628 313 q 429 329 496 329 q 340 320 385 329 q 260 286 296 311 q 206 213 224 261 q 202 200 204 207 q 200 186 200 193 q 207 161 200 172 q 210 151 210 153 q 199 139 210 139 q 183 149 189 139 q 169 213 169 174 q 197 325 169 286 q 269 378 224 364 q 368 392 315 392 q 417 390 392 392 q 468 385 443 388 q 594 366 529 379 q 725 339 660 353 q 867 510 797 424 q 999 673 938 596 q 1103 806 1060 750 q 1108 811 1104 810 q 1113 814 1111 814 q 1151 828 1128 822 q 1183 835 1175 835 q 1197 819 1197 835 q 1190 804 1197 815 q 1072 563 1121 686 q 985 308 1022 439 l 982 299 q 999 298 990 299 q 1015 297 1008 297 q 1117 310 1075 293 q 1158 342 1147 321 q 1165 347 1163 347 q 1175 340 1172 347 q 1174 325 1178 332 q 1119 286 1158 299 q 1069 274 1097 276 q 1010 272 1040 271 l 1001 272 l 985 274 l 976 274 q 947 115 956 197 q 946 102 946 108 q 946 89 946 96 q 989 10 946 10 q 1055 35 1017 10 q 1133 96 1093 60 q 1204 167 1172 132 q 1251 224 1236 203 q 1260 226 1254 226 q 1268 211 1274 226 q 1244 178 1265 207 q 1188 110 1224 150 q 1103 32 1151 71 q 1026 -8 1064 1 q 968 -17 988 -17 q 906 19 929 -17 q 883 110 883 54 q 892 193 883 150 q 911 279 900 236 q 829 288 871 283 q 746 299 788 293 q 580 109 663 197 q 425 -33 497 21 q 313 -94 371 -72 q 197 -115 256 -115 m 917 306 q 976 501 942 403 q 1043 679 1010 599 l 1050 696 q 919 518 990 613 q 774 331 847 424 q 846 317 810 324 q 917 306 882 311 m 1225 931 q 1213 926 1217 926 q 1206 932 1206 926 q 1211 943 1206 938 q 1249 994 1231 965 q 1268 1051 1268 1024 q 1256 1083 1268 1072 q 1225 1093 1243 1093 q 1179 1085 1196 1093 q 1160 1078 1163 1078 q 1153 1086 1151 1078 q 1175 1103 1156 1094 q 1217 1119 1194 1113 q 1250 1126 1239 1126 q 1294 1112 1274 1126 q 1315 1069 1315 1097 q 1300 1008 1315 1036 q 1264 959 1285 979 q 1225 931 1243 939 z "},"Ȃ":{"ha":1176,"x_min":15,"x_max":1343,"o":"m 197 -115 q 110 -100 151 -115 q 42 -51 68 -85 q 15 33 15 -18 q 22 56 15 46 q 33 67 28 67 q 44 33 44 67 q 85 -40 44 -14 q 171 -61 117 -61 q 283 -42 225 -61 q 394 14 342 -22 q 534 134 457 56 q 694 306 611 213 q 562 321 628 313 q 429 329 496 329 q 340 320 385 329 q 260 286 296 311 q 206 213 224 261 q 202 200 204 207 q 200 186 200 193 q 207 161 200 172 q 210 151 210 153 q 199 139 210 139 q 183 149 189 139 q 169 213 169 174 q 197 325 169 286 q 269 378 224 364 q 368 392 315 392 q 417 390 392 392 q 468 385 443 388 q 594 366 529 379 q 725 339 660 353 q 867 510 797 424 q 999 673 938 596 q 1103 806 1060 750 q 1108 811 1104 810 q 1113 814 1111 814 q 1151 828 1128 822 q 1183 835 1175 835 q 1197 819 1197 835 q 1190 804 1197 815 q 1072 563 1121 686 q 985 308 1022 439 l 982 299 q 999 298 990 299 q 1015 297 1008 297 q 1117 310 1075 293 q 1158 342 1147 321 q 1165 347 1163 347 q 1175 340 1172 347 q 1174 325 1178 332 q 1119 286 1158 299 q 1069 274 1097 276 q 1010 272 1040 271 l 1001 272 l 985 274 l 976 274 q 947 115 956 197 q 946 102 946 108 q 946 89 946 96 q 989 10 946 10 q 1055 35 1017 10 q 1133 96 1093 60 q 1204 167 1172 132 q 1251 224 1236 203 q 1260 226 1254 226 q 1268 211 1274 226 q 1244 178 1265 207 q 1188 110 1224 150 q 1103 32 1151 71 q 1026 -8 1064 1 q 968 -17 988 -17 q 906 19 929 -17 q 883 110 883 54 q 892 193 883 150 q 911 279 900 236 q 829 288 871 283 q 746 299 788 293 q 580 109 663 197 q 425 -33 497 21 q 313 -94 371 -72 q 197 -115 256 -115 m 917 306 q 976 501 942 403 q 1043 679 1010 599 l 1050 696 q 919 518 990 613 q 774 331 847 424 q 846 317 810 324 q 917 306 882 311 m 1240 1074 q 1313 1051 1282 1074 q 1343 978 1343 1028 q 1336 947 1343 958 q 1321 935 1329 935 q 1308 940 1315 935 q 1301 951 1301 946 q 1275 1021 1301 997 q 1213 1044 1249 1044 q 1149 1019 1183 1044 q 1094 935 1114 993 q 1085 929 1094 929 q 1065 944 1065 929 q 1127 1040 1079 1007 q 1240 1074 1175 1074 z "},"Ā":{"ha":1176,"x_min":15,"x_max":1372,"o":"m 197 -115 q 110 -100 151 -115 q 42 -51 68 -85 q 15 33 15 -18 q 22 56 15 46 q 33 67 28 67 q 44 33 44 67 q 85 -40 44 -14 q 171 -61 117 -61 q 283 -42 225 -61 q 394 14 342 -22 q 534 134 457 56 q 694 306 611 213 q 562 321 628 313 q 429 329 496 329 q 340 320 385 329 q 260 286 296 311 q 206 213 224 261 q 202 200 204 207 q 200 186 200 193 q 207 161 200 172 q 210 151 210 153 q 199 139 210 139 q 183 149 189 139 q 169 213 169 174 q 197 325 169 286 q 269 378 224 364 q 368 392 315 392 q 417 390 392 392 q 468 385 443 388 q 594 366 529 379 q 725 339 660 353 q 867 510 797 424 q 999 673 938 596 q 1103 806 1060 750 q 1108 811 1104 810 q 1113 814 1111 814 q 1151 828 1128 822 q 1183 835 1175 835 q 1197 819 1197 835 q 1190 804 1197 815 q 1072 563 1121 686 q 985 308 1022 439 l 982 299 q 999 298 990 299 q 1015 297 1008 297 q 1117 310 1075 293 q 1158 342 1147 321 q 1165 347 1163 347 q 1175 340 1172 347 q 1174 325 1178 332 q 1119 286 1158 299 q 1069 274 1097 276 q 1010 272 1040 271 l 1001 272 l 985 274 l 976 274 q 947 115 956 197 q 946 102 946 108 q 946 89 946 96 q 989 10 946 10 q 1055 35 1017 10 q 1133 96 1093 60 q 1204 167 1172 132 q 1251 224 1236 203 q 1260 226 1254 226 q 1268 211 1274 226 q 1244 178 1265 207 q 1188 110 1224 150 q 1103 32 1151 71 q 1026 -8 1064 1 q 968 -17 988 -17 q 906 19 929 -17 q 883 110 883 54 q 892 193 883 150 q 911 279 900 236 q 829 288 871 283 q 746 299 788 293 q 580 109 663 197 q 425 -33 497 21 q 313 -94 371 -72 q 197 -115 256 -115 m 917 306 q 976 501 942 403 q 1043 679 1010 599 l 1050 696 q 919 518 990 613 q 774 331 847 424 q 846 317 810 324 q 917 306 882 311 m 1110 928 q 1075 940 1075 928 q 1110 970 1075 964 q 1200 976 1146 976 q 1260 976 1228 976 q 1325 975 1293 975 q 1356 972 1340 975 q 1371 960 1371 969 q 1360 947 1372 951 q 1333 940 1347 942 q 1315 938 1319 939 q 1244 934 1283 936 q 1169 930 1206 932 q 1110 928 1133 928 z "},"Ą":{"ha":1176,"x_min":15,"x_max":1274,"o":"m 197 -115 q 110 -100 151 -115 q 42 -51 68 -85 q 15 33 15 -18 q 22 56 15 46 q 33 67 28 67 q 44 33 44 67 q 85 -40 44 -14 q 171 -61 117 -61 q 283 -42 225 -61 q 394 14 342 -22 q 534 134 457 56 q 694 306 611 213 q 562 321 628 313 q 429 329 496 329 q 340 320 385 329 q 260 286 296 311 q 206 213 224 261 q 202 200 204 207 q 200 186 200 193 q 207 161 200 172 q 210 151 210 153 q 199 139 210 139 q 183 149 189 139 q 169 213 169 174 q 197 325 169 286 q 269 378 224 364 q 368 392 315 392 q 417 390 392 392 q 468 385 443 388 q 594 366 529 379 q 725 339 660 353 q 867 510 797 424 q 999 673 938 596 q 1103 806 1060 750 q 1108 811 1104 810 q 1113 814 1111 814 q 1151 828 1128 822 q 1183 835 1175 835 q 1197 819 1197 835 q 1190 804 1197 815 q 1072 563 1121 686 q 985 308 1022 439 l 982 299 q 999 298 990 299 q 1015 297 1008 297 q 1117 310 1075 293 q 1158 342 1147 321 q 1165 347 1163 347 q 1175 340 1172 347 q 1174 325 1178 332 q 1119 286 1158 299 q 1069 274 1097 276 q 1010 272 1040 271 l 1001 272 l 985 274 l 976 274 q 947 115 956 197 q 946 102 946 108 q 946 89 946 96 q 989 10 946 10 q 1055 35 1017 10 q 1133 96 1093 60 q 1204 167 1172 132 q 1251 224 1236 203 q 1260 226 1254 226 q 1268 211 1274 226 q 1244 178 1265 207 q 1188 110 1224 150 q 1103 32 1151 71 q 1026 -8 1064 1 q 968 -17 988 -17 q 906 19 929 -17 q 883 110 883 54 q 892 193 883 150 q 911 279 900 236 q 829 288 871 283 q 746 299 788 293 q 580 109 663 197 q 425 -33 497 21 q 313 -94 371 -72 q 197 -115 256 -115 m 917 306 q 976 501 942 403 q 1043 679 1010 599 l 1050 696 q 919 518 990 613 q 774 331 847 424 q 846 317 810 324 q 917 306 882 311 m 832 -324 q 776 -299 804 -324 q 747 -240 747 -275 q 765 -178 747 -210 q 814 -124 783 -147 q 881 -70 846 -97 q 944 -24 917 -43 q 982 -6 972 -6 q 994 -10 994 -6 l 992 -11 q 934 -59 971 -29 q 863 -125 897 -89 q 836 -161 853 -136 q 806 -215 819 -186 q 792 -268 792 -243 q 798 -292 792 -278 q 815 -307 804 -307 q 853 -290 831 -307 q 900 -249 876 -272 q 942 -204 924 -225 q 968 -178 961 -183 q 981 -171 978 -171 q 986 -176 986 -171 q 985 -183 986 -178 q 981 -192 985 -187 q 963 -219 976 -199 q 931 -265 950 -240 q 886 -306 911 -289 q 832 -324 861 -324 z "},"Å":{"ha":1176,"x_min":15,"x_max":1338,"o":"m 197 -115 q 110 -100 151 -115 q 42 -51 68 -85 q 15 33 15 -18 q 22 56 15 46 q 33 67 28 67 q 44 33 44 67 q 85 -40 44 -14 q 171 -61 117 -61 q 283 -42 225 -61 q 394 14 342 -22 q 534 134 457 56 q 694 306 611 213 q 562 321 628 313 q 429 329 496 329 q 340 320 385 329 q 260 286 296 311 q 206 213 224 261 q 202 200 204 207 q 200 186 200 193 q 207 161 200 172 q 210 151 210 153 q 199 139 210 139 q 183 149 189 139 q 169 213 169 174 q 197 325 169 286 q 269 378 224 364 q 368 392 315 392 q 417 390 392 392 q 468 385 443 388 q 594 366 529 379 q 725 339 660 353 q 867 510 797 424 q 999 673 938 596 q 1103 806 1060 750 q 1108 811 1104 810 q 1113 814 1111 814 q 1151 828 1128 822 q 1183 835 1175 835 q 1197 819 1197 835 q 1190 804 1197 815 q 1072 563 1121 686 q 985 308 1022 439 l 982 299 q 999 298 990 299 q 1015 297 1008 297 q 1117 310 1075 293 q 1158 342 1147 321 q 1165 347 1163 347 q 1175 340 1172 347 q 1174 325 1178 332 q 1119 286 1158 299 q 1069 274 1097 276 q 1010 272 1040 271 l 1001 272 l 985 274 l 976 274 q 947 115 956 197 q 946 102 946 108 q 946 89 946 96 q 989 10 946 10 q 1055 35 1017 10 q 1133 96 1093 60 q 1204 167 1172 132 q 1251 224 1236 203 q 1260 226 1254 226 q 1268 211 1274 226 q 1244 178 1265 207 q 1188 110 1224 150 q 1103 32 1151 71 q 1026 -8 1064 1 q 968 -17 988 -17 q 906 19 929 -17 q 883 110 883 54 q 892 193 883 150 q 911 279 900 236 q 829 288 871 283 q 746 299 788 293 q 580 109 663 197 q 425 -33 497 21 q 313 -94 371 -72 q 197 -115 256 -115 m 917 306 q 976 501 942 403 q 1043 679 1010 599 l 1050 696 q 919 518 990 613 q 774 331 847 424 q 846 317 810 324 q 917 306 882 311 m 1211 924 q 1149 940 1176 924 q 1122 992 1122 957 q 1134 1028 1122 1003 q 1176 1074 1146 1053 q 1260 1094 1206 1094 q 1313 1081 1288 1094 q 1338 1036 1338 1068 q 1320 983 1338 1010 q 1274 940 1303 957 q 1211 924 1246 924 m 1215 953 q 1266 976 1243 953 q 1289 1029 1289 1000 q 1282 1055 1289 1043 q 1251 1067 1275 1067 q 1216 1053 1233 1067 q 1188 1020 1199 1039 q 1176 986 1176 1001 q 1185 963 1176 972 q 1215 953 1194 953 z "},"Ǻ":{"ha":1176,"x_min":15,"x_max":1436,"o":"m 197 -115 q 110 -100 151 -115 q 42 -51 68 -85 q 15 33 15 -18 q 22 56 15 46 q 33 67 28 67 q 44 33 44 67 q 85 -40 44 -14 q 171 -61 117 -61 q 283 -42 225 -61 q 394 14 342 -22 q 534 134 457 56 q 694 306 611 213 q 562 321 628 313 q 429 329 496 329 q 340 320 385 329 q 260 286 296 311 q 206 213 224 261 q 202 200 204 207 q 200 186 200 193 q 207 161 200 172 q 210 151 210 153 q 199 139 210 139 q 183 149 189 139 q 169 213 169 174 q 197 325 169 286 q 269 378 224 364 q 368 392 315 392 q 417 390 392 392 q 468 385 443 388 q 594 366 529 379 q 725 339 660 353 q 867 510 797 424 q 999 673 938 596 q 1103 806 1060 750 q 1108 811 1104 810 q 1113 814 1111 814 q 1151 828 1128 822 q 1183 835 1175 835 q 1197 819 1197 835 q 1190 804 1197 815 q 1072 563 1121 686 q 985 308 1022 439 l 982 299 q 999 298 990 299 q 1015 297 1008 297 q 1117 310 1075 293 q 1158 342 1147 321 q 1165 347 1163 347 q 1175 340 1172 347 q 1174 325 1178 332 q 1119 286 1158 299 q 1069 274 1097 276 q 1010 272 1040 271 l 1001 272 l 985 274 l 976 274 q 947 115 956 197 q 946 102 946 108 q 946 89 946 96 q 989 10 946 10 q 1055 35 1017 10 q 1133 96 1093 60 q 1204 167 1172 132 q 1251 224 1236 203 q 1260 226 1254 226 q 1268 211 1274 226 q 1244 178 1265 207 q 1188 110 1224 150 q 1103 32 1151 71 q 1026 -8 1064 1 q 968 -17 988 -17 q 906 19 929 -17 q 883 110 883 54 q 892 193 883 150 q 911 279 900 236 q 829 288 871 283 q 746 299 788 293 q 580 109 663 197 q 425 -33 497 21 q 313 -94 371 -72 q 197 -115 256 -115 m 917 306 q 976 501 942 403 q 1043 679 1010 599 l 1050 696 q 919 518 990 613 q 774 331 847 424 q 846 317 810 324 q 917 306 882 311 m 1211 924 q 1149 940 1176 924 q 1122 992 1122 957 q 1134 1028 1122 1003 q 1176 1074 1146 1053 q 1260 1094 1206 1094 q 1313 1081 1288 1094 q 1338 1036 1338 1068 q 1320 983 1338 1010 q 1274 940 1303 957 q 1211 924 1246 924 m 1215 953 q 1266 976 1243 953 q 1289 1029 1289 1000 q 1282 1055 1289 1043 q 1251 1067 1275 1067 q 1216 1053 1233 1067 q 1188 1020 1199 1039 q 1176 986 1176 1001 q 1185 963 1176 972 q 1215 953 1194 953 m 1226 1192 q 1215 1197 1215 1192 q 1236 1217 1215 1204 q 1280 1246 1250 1225 q 1347 1296 1310 1267 q 1379 1322 1367 1313 q 1397 1332 1392 1332 q 1408 1332 1401 1332 q 1421 1325 1414 1332 q 1436 1306 1436 1314 q 1433 1295 1436 1300 q 1426 1285 1431 1290 q 1388 1261 1417 1276 q 1324 1230 1358 1246 q 1261 1203 1289 1214 q 1226 1192 1233 1192 z "},"Ã":{"ha":1176,"x_min":15,"x_max":1343,"o":"m 197 -115 q 110 -100 151 -115 q 42 -51 68 -85 q 15 33 15 -18 q 22 56 15 46 q 33 67 28 67 q 44 33 44 67 q 85 -40 44 -14 q 171 -61 117 -61 q 283 -42 225 -61 q 394 14 342 -22 q 534 134 457 56 q 694 306 611 213 q 562 321 628 313 q 429 329 496 329 q 340 320 385 329 q 260 286 296 311 q 206 213 224 261 q 202 200 204 207 q 200 186 200 193 q 207 161 200 172 q 210 151 210 153 q 199 139 210 139 q 183 149 189 139 q 169 213 169 174 q 197 325 169 286 q 269 378 224 364 q 368 392 315 392 q 417 390 392 392 q 468 385 443 388 q 594 366 529 379 q 725 339 660 353 q 867 510 797 424 q 999 673 938 596 q 1103 806 1060 750 q 1108 811 1104 810 q 1113 814 1111 814 q 1151 828 1128 822 q 1183 835 1175 835 q 1197 819 1197 835 q 1190 804 1197 815 q 1072 563 1121 686 q 985 308 1022 439 l 982 299 q 999 298 990 299 q 1015 297 1008 297 q 1117 310 1075 293 q 1158 342 1147 321 q 1165 347 1163 347 q 1175 340 1172 347 q 1174 325 1178 332 q 1119 286 1158 299 q 1069 274 1097 276 q 1010 272 1040 271 l 1001 272 l 985 274 l 976 274 q 947 115 956 197 q 946 102 946 108 q 946 89 946 96 q 989 10 946 10 q 1055 35 1017 10 q 1133 96 1093 60 q 1204 167 1172 132 q 1251 224 1236 203 q 1260 226 1254 226 q 1268 211 1274 226 q 1244 178 1265 207 q 1188 110 1224 150 q 1103 32 1151 71 q 1026 -8 1064 1 q 968 -17 988 -17 q 906 19 929 -17 q 883 110 883 54 q 892 193 883 150 q 911 279 900 236 q 829 288 871 283 q 746 299 788 293 q 580 109 663 197 q 425 -33 497 21 q 313 -94 371 -72 q 197 -115 256 -115 m 917 306 q 976 501 942 403 q 1043 679 1010 599 l 1050 696 q 919 518 990 613 q 774 331 847 424 q 846 317 810 324 q 917 306 882 311 m 1046 940 q 1035 946 1035 940 l 1035 947 q 1083 1008 1058 979 q 1139 1036 1107 1036 q 1177 1024 1153 1036 q 1228 998 1201 1011 q 1278 985 1256 985 q 1301 995 1292 985 q 1317 1015 1310 1006 q 1331 1025 1324 1025 q 1343 1021 1343 1025 l 1343 1018 q 1306 967 1329 990 q 1254 944 1282 944 q 1212 955 1233 944 q 1169 976 1190 965 q 1126 986 1149 986 q 1094 975 1113 986 q 1063 952 1076 964 q 1046 940 1050 940 z "},"B":{"ha":907,"x_min":19,"x_max":1014,"o":"m 518 -85 q 386 -54 439 -85 q 324 40 333 -24 l 324 49 q 298 13 313 33 q 267 -23 283 -8 q 235 -37 251 -37 q 219 -35 232 -37 q 194 -28 206 -32 q 181 -18 182 -24 q 194 58 176 8 q 240 167 211 107 q 299 286 268 226 q 357 394 331 346 q 394 467 383 442 q 406 492 403 482 q 408 508 408 503 q 406 522 408 517 q 426 567 408 539 q 469 622 443 594 q 526 669 496 650 q 583 688 557 688 q 609 683 592 688 q 642 668 626 678 q 663 640 658 658 q 664 632 664 636 q 661 628 664 628 q 653 630 658 628 q 646 632 649 632 q 576 601 614 632 q 499 519 539 571 q 422 407 460 468 q 351 284 385 346 q 292 170 317 222 q 253 86 267 118 q 242 43 242 56 q 257 24 242 24 q 299 50 276 24 q 327 84 314 68 q 350 97 340 100 q 376 87 369 97 q 385 63 383 76 q 388 38 386 49 q 433 -34 397 -6 q 532 -62 468 -62 q 654 -40 600 -62 q 740 22 708 -18 q 772 111 772 61 q 756 184 772 146 q 703 261 739 222 q 635 329 672 297 q 570 388 597 361 q 543 435 543 415 q 565 465 543 451 q 601 478 588 478 q 683 490 633 478 q 785 524 732 503 q 881 572 838 546 q 946 625 925 599 q 966 658 958 640 q 974 692 974 675 q 951 740 974 718 q 874 771 928 761 q 838 776 858 775 q 793 778 817 778 q 629 765 722 778 q 440 726 536 751 q 261 664 344 701 q 124 577 178 626 q 64 468 71 528 q 81 415 61 433 q 126 388 100 397 q 168 371 153 379 q 181 360 181 365 q 165 353 181 353 q 124 361 149 353 q 74 387 99 369 q 35 429 50 404 q 24 488 19 454 q 22 498 24 490 q 21 510 21 506 q 59 594 25 554 q 140 668 93 635 q 226 724 186 701 q 333 767 271 747 q 467 803 396 788 q 613 827 539 818 q 750 836 686 836 q 869 825 818 836 q 976 771 939 810 q 1014 685 1014 732 q 983 595 1013 633 q 906 531 953 557 q 803 487 858 504 q 696 461 749 469 q 604 451 643 453 q 720 374 663 417 q 816 282 778 332 q 854 172 854 232 q 840 103 854 139 q 793 28 825 68 q 677 -54 751 -24 q 518 -85 603 -85 z "},"C":{"ha":742,"x_min":29,"x_max":846,"o":"m 293 -64 q 160 -40 221 -64 q 65 35 100 -15 q 29 165 29 86 q 42 261 29 210 q 106 425 61 343 q 215 579 151 507 q 353 708 278 651 q 508 797 428 764 q 667 829 588 829 q 715 825 690 829 q 798 784 771 815 q 825 713 825 753 q 794 618 825 665 q 715 528 764 571 q 608 453 665 486 q 494 399 550 419 q 396 375 439 378 q 369 390 369 374 q 378 408 369 399 q 404 418 388 417 q 606 484 513 428 q 750 638 700 540 q 767 680 761 658 q 774 721 774 701 q 756 773 774 751 q 696 794 739 794 q 585 766 649 794 q 451 686 521 738 q 313 565 381 635 q 192 412 246 494 q 110 238 139 329 q 92 135 92 182 q 150 10 92 50 q 301 -29 208 -29 q 478 -1 382 -29 q 667 84 575 26 q 821 231 758 142 q 831 236 825 236 q 841 231 836 236 q 842 219 846 225 q 676 57 769 119 q 482 -35 582 -6 q 293 -64 382 -64 z "},"Ć":{"ha":742,"x_min":29,"x_max":846,"o":"m 293 -64 q 160 -40 221 -64 q 65 35 100 -15 q 29 165 29 86 q 42 261 29 210 q 106 425 61 343 q 215 579 151 507 q 353 708 278 651 q 508 797 428 764 q 667 829 588 829 q 715 825 690 829 q 798 784 771 815 q 825 713 825 753 q 794 618 825 665 q 715 528 764 571 q 608 453 665 486 q 494 399 550 419 q 396 375 439 378 q 369 390 369 374 q 378 408 369 399 q 404 418 388 417 q 606 484 513 428 q 750 638 700 540 q 767 680 761 658 q 774 721 774 701 q 756 773 774 751 q 696 794 739 794 q 585 766 649 794 q 451 686 521 738 q 313 565 381 635 q 192 412 246 494 q 110 238 139 329 q 92 135 92 182 q 150 10 92 50 q 301 -29 208 -29 q 478 -1 382 -29 q 667 84 575 26 q 821 231 758 142 q 831 236 825 236 q 841 231 836 236 q 842 219 846 225 q 676 57 769 119 q 482 -35 582 -6 q 293 -64 382 -64 m 599 924 q 588 929 588 924 q 608 949 588 936 q 652 978 622 957 q 719 1028 682 999 q 751 1054 739 1044 q 769 1064 764 1064 q 780 1064 774 1064 q 793 1057 786 1064 q 808 1038 808 1046 q 806 1027 808 1032 q 799 1017 803 1022 q 760 993 789 1008 q 696 962 731 978 q 633 935 661 946 q 599 924 606 924 z "},"Č":{"ha":742,"x_min":29,"x_max":869,"o":"m 293 -64 q 160 -40 221 -64 q 65 35 100 -15 q 29 165 29 86 q 42 261 29 210 q 106 425 61 343 q 215 579 151 507 q 353 708 278 651 q 508 797 428 764 q 667 829 588 829 q 715 825 690 829 q 798 784 771 815 q 825 713 825 753 q 794 618 825 665 q 715 528 764 571 q 608 453 665 486 q 494 399 550 419 q 396 375 439 378 q 369 390 369 374 q 378 408 369 399 q 404 418 388 417 q 606 484 513 428 q 750 638 700 540 q 767 680 761 658 q 774 721 774 701 q 756 773 774 751 q 696 794 739 794 q 585 766 649 794 q 451 686 521 738 q 313 565 381 635 q 192 412 246 494 q 110 238 139 329 q 92 135 92 182 q 150 10 92 50 q 301 -29 208 -29 q 478 -1 382 -29 q 667 84 575 26 q 821 231 758 142 q 831 236 825 236 q 841 231 836 236 q 842 219 846 225 q 676 57 769 119 q 482 -35 582 -6 q 293 -64 382 -64 m 681 929 q 651 953 669 929 q 617 1003 633 976 q 594 1043 601 1031 q 586 1069 586 1063 q 597 1085 586 1082 q 628 1058 608 1079 q 670 1015 649 1038 q 703 979 692 993 q 758 1017 726 993 q 820 1060 790 1040 q 863 1079 850 1079 q 869 1074 869 1079 q 850 1050 869 1065 q 811 1018 836 1038 q 759 978 786 999 q 710 943 732 957 q 681 929 689 929 z "},"Ç":{"ha":742,"x_min":29,"x_max":846,"o":"m 293 -64 q 160 -40 221 -64 q 65 35 100 -15 q 29 165 29 86 q 42 261 29 210 q 106 425 61 343 q 215 579 151 507 q 353 708 278 651 q 508 797 428 764 q 667 829 588 829 q 715 825 690 829 q 798 784 771 815 q 825 713 825 753 q 794 618 825 665 q 715 528 764 571 q 608 453 665 486 q 494 399 550 419 q 396 375 439 378 q 369 390 369 374 q 378 408 369 399 q 404 418 388 417 q 606 484 513 428 q 750 638 700 540 q 767 680 761 658 q 774 721 774 701 q 756 773 774 751 q 696 794 739 794 q 585 766 649 794 q 451 686 521 738 q 313 565 381 635 q 192 412 246 494 q 110 238 139 329 q 92 135 92 182 q 150 10 92 50 q 301 -29 208 -29 q 478 -1 382 -29 q 667 84 575 26 q 821 231 758 142 q 831 236 825 236 q 841 231 836 236 q 842 219 846 225 q 676 57 769 119 q 482 -35 582 -6 q 293 -64 382 -64 m 161 -367 q 101 -353 129 -367 q 60 -314 74 -340 q 56 -301 56 -306 q 60 -294 56 -294 q 67 -296 64 -293 q 94 -326 72 -306 q 150 -347 117 -347 q 219 -333 186 -347 q 274 -294 253 -319 q 294 -237 294 -269 q 280 -199 294 -214 q 239 -185 265 -185 q 205 -189 224 -185 q 176 -193 186 -193 q 167 -187 167 -193 q 181 -161 167 -183 q 213 -112 194 -139 q 249 -65 232 -85 q 272 -44 267 -44 q 285 -54 285 -44 q 275 -70 285 -56 q 252 -104 265 -85 q 227 -140 239 -124 q 211 -162 215 -156 q 230 -159 222 -160 q 247 -158 238 -158 q 322 -181 296 -158 q 347 -237 347 -204 q 319 -304 347 -275 q 248 -350 290 -333 q 161 -367 206 -367 z "},"Ĉ":{"ha":742,"x_min":29,"x_max":846,"o":"m 293 -64 q 160 -40 221 -64 q 65 35 100 -15 q 29 165 29 86 q 42 261 29 210 q 106 425 61 343 q 215 579 151 507 q 353 708 278 651 q 508 797 428 764 q 667 829 588 829 q 715 825 690 829 q 798 784 771 815 q 825 713 825 753 q 794 618 825 665 q 715 528 764 571 q 608 453 665 486 q 494 399 550 419 q 396 375 439 378 q 369 390 369 374 q 378 408 369 399 q 404 418 388 417 q 606 484 513 428 q 750 638 700 540 q 767 680 761 658 q 774 721 774 701 q 756 773 774 751 q 696 794 739 794 q 585 766 649 794 q 451 686 521 738 q 313 565 381 635 q 192 412 246 494 q 110 238 139 329 q 92 135 92 182 q 150 10 92 50 q 301 -29 208 -29 q 478 -1 382 -29 q 667 84 575 26 q 821 231 758 142 q 831 236 825 236 q 841 231 836 236 q 842 219 846 225 q 676 57 769 119 q 482 -35 582 -6 q 293 -64 382 -64 m 726 1082 q 751 1056 738 1082 q 775 1000 764 1031 q 792 956 786 969 q 795 938 794 943 q 796 926 796 932 q 783 910 794 913 q 758 940 774 917 q 725 988 742 963 q 700 1026 708 1013 q 643 986 676 1013 q 580 938 610 960 q 538 917 550 917 q 532 922 532 917 q 554 949 533 932 q 594 983 568 961 q 647 1028 619 1006 q 697 1067 675 1051 q 726 1082 719 1082 z "},"Ċ":{"ha":742,"x_min":29,"x_max":846,"o":"m 293 -64 q 160 -40 221 -64 q 65 35 100 -15 q 29 165 29 86 q 42 261 29 210 q 106 425 61 343 q 215 579 151 507 q 353 708 278 651 q 508 797 428 764 q 667 829 588 829 q 715 825 690 829 q 798 784 771 815 q 825 713 825 753 q 794 618 825 665 q 715 528 764 571 q 608 453 665 486 q 494 399 550 419 q 396 375 439 378 q 369 390 369 374 q 378 408 369 399 q 404 418 388 417 q 606 484 513 428 q 750 638 700 540 q 767 680 761 658 q 774 721 774 701 q 756 773 774 751 q 696 794 739 794 q 585 766 649 794 q 451 686 521 738 q 313 565 381 635 q 192 412 246 494 q 110 238 139 329 q 92 135 92 182 q 150 10 92 50 q 301 -29 208 -29 q 478 -1 382 -29 q 667 84 575 26 q 821 231 758 142 q 831 236 825 236 q 841 231 836 236 q 842 219 846 225 q 676 57 769 119 q 482 -35 582 -6 q 293 -64 382 -64 m 697 926 q 657 931 679 926 q 635 960 635 935 q 648 977 635 964 q 676 1004 661 990 q 696 1021 692 1018 q 738 1043 728 1043 q 750 1019 750 1043 l 750 1000 q 740 974 750 992 q 719 941 731 956 q 697 926 707 926 z "},"D":{"ha":1206,"x_min":108,"x_max":1258,"o":"m 332 -87 q 290 -71 306 -87 q 265 -32 274 -54 q 254 11 257 -10 q 251 40 251 32 q 255 120 251 86 q 263 189 258 154 l 263 194 q 259 210 263 203 q 253 228 256 218 q 252 232 253 231 q 251 235 251 233 q 261 254 251 244 q 284 266 269 261 q 310 271 299 271 q 321 268 315 271 q 324 263 324 265 q 317 239 324 253 q 308 217 310 221 q 307 194 307 214 q 321 165 307 183 q 353 130 335 147 q 385 100 371 113 q 403 88 400 88 q 429 149 411 110 q 468 235 447 189 q 510 323 489 281 q 544 394 531 365 q 554 421 551 410 q 557 438 557 432 q 556 447 557 443 q 553 451 554 450 q 580 503 556 468 q 639 577 604 539 q 710 642 674 615 q 774 668 746 668 q 800 663 782 668 q 835 647 818 658 q 854 617 851 636 l 854 611 q 853 608 854 608 q 847 611 851 608 q 838 614 843 614 q 768 583 806 614 q 691 499 731 551 q 614 385 651 447 q 543 260 576 322 q 484 145 510 197 q 443 61 458 93 q 538 13 488 28 q 639 -1 588 -1 q 804 31 722 -1 q 958 113 886 63 q 1078 224 1029 164 q 1166 367 1136 293 q 1196 508 1196 440 q 1157 648 1196 586 q 1038 747 1118 710 q 835 783 958 783 q 651 765 746 783 q 469 713 557 746 q 312 634 382 679 q 201 536 242 589 q 160 426 160 483 q 182 374 160 392 q 232 349 204 357 q 275 332 260 340 q 286 322 286 328 q 271 314 286 314 q 226 322 254 314 q 171 347 199 331 q 126 388 143 364 q 113 446 108 413 q 111 456 113 449 q 110 468 110 463 q 149 589 110 535 q 255 685 188 643 q 408 754 322 726 q 588 796 493 782 q 774 810 682 810 q 941 797 856 810 q 1099 748 1026 783 q 1215 649 1171 713 q 1258 483 1258 585 q 1209 278 1258 372 q 1076 113 1160 183 q 891 4 993 43 q 683 -35 789 -35 q 547 -17 613 -35 q 432 38 481 0 q 419 13 429 33 q 394 -30 408 -7 q 363 -70 379 -53 q 332 -87 347 -87 m 326 -46 q 350 -23 338 -46 q 372 26 363 0 q 385 57 382 51 q 344 97 369 69 q 300 142 318 125 q 301 79 300 128 q 310 -18 301 31 q 326 -46 315 -46 z "},"Ǆ":{"ha":1932,"x_min":108,"x_max":2229,"o":"m 332 -87 q 290 -71 306 -87 q 265 -32 274 -54 q 254 11 257 -10 q 251 40 251 32 q 255 120 251 86 q 263 189 258 154 l 263 194 q 259 210 263 203 q 253 228 256 218 q 252 232 253 231 q 251 235 251 233 q 261 254 251 244 q 284 266 269 261 q 310 271 299 271 q 321 268 315 271 q 324 263 324 265 q 317 239 324 253 q 308 217 310 221 q 307 194 307 214 q 321 165 307 183 q 353 130 335 147 q 385 100 371 113 q 403 88 400 88 q 429 149 411 110 q 468 235 447 189 q 510 323 489 281 q 544 394 531 365 q 554 421 551 410 q 557 438 557 432 q 556 447 557 443 q 553 451 554 450 q 580 503 556 468 q 639 577 604 539 q 710 642 674 615 q 774 668 746 668 q 800 663 782 668 q 835 647 818 658 q 854 617 851 636 l 854 611 q 853 608 854 608 q 847 611 851 608 q 838 614 843 614 q 768 583 806 614 q 691 499 731 551 q 614 385 651 447 q 543 260 576 322 q 484 145 510 197 q 443 61 458 93 q 538 13 488 28 q 639 -1 588 -1 q 804 31 722 -1 q 958 113 886 63 q 1078 224 1029 164 q 1166 367 1136 293 q 1196 508 1196 440 q 1157 648 1196 586 q 1038 747 1118 710 q 835 783 958 783 q 651 765 746 783 q 469 713 557 746 q 312 634 382 679 q 201 536 242 589 q 160 426 160 483 q 182 374 160 392 q 232 349 204 357 q 275 332 260 340 q 286 322 286 328 q 271 314 286 314 q 226 322 254 314 q 171 347 199 331 q 126 388 143 364 q 113 446 108 413 q 111 456 113 449 q 110 468 110 463 q 149 589 110 535 q 255 685 188 643 q 408 754 322 726 q 588 796 493 782 q 774 810 682 810 q 941 797 856 810 q 1099 748 1026 783 q 1215 649 1171 713 q 1258 483 1258 585 q 1209 278 1258 372 q 1076 113 1160 183 q 891 4 993 43 q 683 -35 789 -35 q 547 -17 613 -35 q 432 38 481 0 q 419 13 429 33 q 394 -30 408 -7 q 363 -70 379 -53 q 332 -87 347 -87 m 326 -46 q 350 -23 338 -46 q 372 26 363 0 q 385 57 382 51 q 344 97 369 69 q 300 142 318 125 q 301 79 300 128 q 310 -18 301 31 q 326 -46 315 -46 m 2047 -276 q 2025 -278 2036 -278 q 2003 -279 2014 -279 q 1851 -255 1925 -279 q 1710 -192 1778 -231 q 1577 -112 1642 -154 q 1453 -34 1513 -71 q 1336 22 1393 3 q 1285 4 1311 10 q 1251 1 1260 -1 q 1221 43 1221 13 q 1250 83 1221 69 q 1283 80 1258 86 q 1336 71 1307 74 q 1476 168 1396 94 q 1642 333 1556 242 q 1571 331 1603 332 q 1524 331 1539 329 q 1501 342 1514 331 q 1489 369 1489 353 q 1503 392 1489 382 q 1535 406 1518 401 q 1563 411 1553 411 q 1588 398 1581 411 q 1604 383 1594 385 q 1618 382 1611 382 q 1632 382 1625 382 q 1660 383 1646 382 q 1688 383 1674 383 q 1814 519 1751 453 q 1932 635 1876 585 q 2029 708 1988 686 q 1863 747 1960 731 q 1675 764 1767 764 q 1602 760 1638 764 q 1536 749 1567 757 q 1455 706 1489 738 q 1421 644 1421 675 q 1425 625 1421 633 q 1431 607 1431 615 q 1425 599 1431 599 q 1407 613 1419 599 q 1388 665 1388 636 q 1406 722 1388 694 q 1453 772 1425 750 q 1513 803 1482 793 q 1597 822 1553 817 q 1689 828 1642 828 q 1890 808 1788 828 q 2078 767 1993 789 q 2109 792 2088 778 q 2156 818 2131 807 q 2200 829 2181 829 q 2229 797 2229 829 q 2208 743 2229 767 q 2155 706 2186 719 q 2096 693 2124 693 q 2078 694 2083 693 q 1979 619 2031 668 q 1874 510 1928 571 q 1765 388 1821 450 q 1864 397 1814 393 q 1961 399 1914 401 q 1982 394 1972 397 q 1992 386 1992 392 q 1985 379 1992 383 q 1961 369 1979 375 q 1907 360 1944 365 q 1821 349 1869 354 q 1722 339 1772 344 q 1576 192 1653 264 q 1410 68 1500 121 l 1408 68 q 1397 47 1397 58 q 1413 24 1397 33 q 1592 -78 1503 -24 q 1773 -169 1681 -132 q 1963 -207 1865 -207 q 1985 -206 1974 -207 q 2008 -204 1997 -206 q 2066 -187 2036 -200 q 2116 -153 2096 -175 q 2136 -99 2136 -131 q 2114 -32 2136 -68 q 2110 -19 2110 -24 q 2118 -11 2110 -11 q 2136 -25 2131 -11 q 2163 -84 2154 -56 q 2175 -136 2171 -112 q 2176 -144 2175 -140 q 2176 -153 2176 -149 q 2144 -233 2176 -197 q 2047 -276 2113 -269 m 1861 908 q 1832 932 1850 908 q 1798 983 1814 956 q 1775 1022 1782 1010 q 1767 1049 1767 1042 q 1778 1064 1767 1061 q 1809 1038 1789 1058 q 1851 994 1829 1017 q 1883 958 1872 972 q 1939 996 1907 972 q 2001 1039 1971 1019 q 2043 1058 2031 1058 q 2050 1053 2050 1058 q 2031 1029 2050 1044 q 1992 997 2017 1017 q 1940 957 1967 978 q 1891 922 1913 936 q 1861 908 1869 908 z "},"Ď":{"ha":1206,"x_min":108,"x_max":1258,"o":"m 332 -87 q 290 -71 306 -87 q 265 -32 274 -54 q 254 11 257 -10 q 251 40 251 32 q 255 120 251 86 q 263 189 258 154 l 263 194 q 259 210 263 203 q 253 228 256 218 q 252 232 253 231 q 251 235 251 233 q 261 254 251 244 q 284 266 269 261 q 310 271 299 271 q 321 268 315 271 q 324 263 324 265 q 317 239 324 253 q 308 217 310 221 q 307 194 307 214 q 321 165 307 183 q 353 130 335 147 q 385 100 371 113 q 403 88 400 88 q 429 149 411 110 q 468 235 447 189 q 510 323 489 281 q 544 394 531 365 q 554 421 551 410 q 557 438 557 432 q 556 447 557 443 q 553 451 554 450 q 580 503 556 468 q 639 577 604 539 q 710 642 674 615 q 774 668 746 668 q 800 663 782 668 q 835 647 818 658 q 854 617 851 636 l 854 611 q 853 608 854 608 q 847 611 851 608 q 838 614 843 614 q 768 583 806 614 q 691 499 731 551 q 614 385 651 447 q 543 260 576 322 q 484 145 510 197 q 443 61 458 93 q 538 13 488 28 q 639 -1 588 -1 q 804 31 722 -1 q 958 113 886 63 q 1078 224 1029 164 q 1166 367 1136 293 q 1196 508 1196 440 q 1157 648 1196 586 q 1038 747 1118 710 q 835 783 958 783 q 651 765 746 783 q 469 713 557 746 q 312 634 382 679 q 201 536 242 589 q 160 426 160 483 q 182 374 160 392 q 232 349 204 357 q 275 332 260 340 q 286 322 286 328 q 271 314 286 314 q 226 322 254 314 q 171 347 199 331 q 126 388 143 364 q 113 446 108 413 q 111 456 113 449 q 110 468 110 463 q 149 589 110 535 q 255 685 188 643 q 408 754 322 726 q 588 796 493 782 q 774 810 682 810 q 941 797 856 810 q 1099 748 1026 783 q 1215 649 1171 713 q 1258 483 1258 585 q 1209 278 1258 372 q 1076 113 1160 183 q 891 4 993 43 q 683 -35 789 -35 q 547 -17 613 -35 q 432 38 481 0 q 419 13 429 33 q 394 -30 408 -7 q 363 -70 379 -53 q 332 -87 347 -87 m 326 -46 q 350 -23 338 -46 q 372 26 363 0 q 385 57 382 51 q 344 97 369 69 q 300 142 318 125 q 301 79 300 128 q 310 -18 301 31 q 326 -46 315 -46 m 1017 894 q 988 918 1006 894 q 953 969 969 942 q 931 1008 938 996 q 922 1035 922 1028 q 933 1050 922 1047 q 965 1024 944 1044 q 1006 981 985 1003 q 1039 944 1028 958 q 1094 982 1063 958 q 1156 1025 1126 1006 q 1199 1044 1186 1044 q 1206 1039 1206 1044 q 1186 1015 1206 1031 q 1147 983 1172 1003 q 1095 943 1122 964 q 1047 908 1068 922 q 1017 894 1025 894 z "},"Đ":{"ha":1206,"x_min":108,"x_max":1258,"o":"m 332 -87 q 290 -71 306 -87 q 265 -32 274 -54 q 254 11 257 -10 q 251 40 251 32 q 255 120 251 86 q 263 189 258 154 l 263 194 q 259 210 263 203 q 253 228 256 218 q 252 232 253 231 q 251 235 251 233 q 261 254 251 244 q 284 266 269 261 q 310 271 299 271 q 321 268 315 271 q 324 263 324 265 q 317 239 324 253 q 308 217 310 221 q 307 194 307 214 q 321 165 307 183 q 353 130 335 147 q 385 100 371 113 q 403 88 400 88 q 438 169 414 115 q 489 279 463 224 q 411 275 442 275 q 386 278 393 275 q 379 290 379 282 q 418 322 379 315 q 513 329 457 329 q 530 365 521 349 q 544 394 539 381 q 554 421 551 410 q 557 438 557 432 q 556 447 557 443 q 553 451 554 450 q 580 503 556 468 q 639 577 604 539 q 710 642 674 615 q 774 668 746 668 q 800 663 782 668 q 835 647 818 658 q 854 617 851 636 l 854 611 q 853 608 854 608 q 847 611 851 608 q 838 614 843 614 q 756 573 800 614 q 667 467 713 532 q 581 328 622 401 l 629 328 q 684 322 664 328 q 706 310 704 317 q 689 297 706 301 q 654 292 672 293 q 631 289 636 290 q 596 287 615 288 q 556 283 576 286 q 489 156 518 215 q 443 61 460 96 q 538 13 488 28 q 639 -1 588 -1 q 804 31 722 -1 q 958 113 886 63 q 1078 224 1029 164 q 1166 367 1136 293 q 1196 508 1196 440 q 1157 648 1196 586 q 1038 747 1118 710 q 835 783 958 783 q 651 765 746 783 q 469 713 557 746 q 312 634 382 679 q 201 536 242 589 q 160 426 160 483 q 182 374 160 392 q 232 349 204 357 q 275 332 260 340 q 286 322 286 328 q 271 314 286 314 q 226 322 254 314 q 171 347 199 331 q 126 388 143 364 q 113 446 108 413 q 111 456 113 449 q 110 468 110 463 q 149 589 110 535 q 255 685 188 643 q 408 754 322 726 q 588 796 493 782 q 774 810 682 810 q 941 797 856 810 q 1099 748 1026 783 q 1215 649 1171 713 q 1258 483 1258 585 q 1209 278 1258 372 q 1076 113 1160 183 q 891 4 993 43 q 683 -35 789 -35 q 547 -17 613 -35 q 432 38 481 0 q 419 13 429 33 q 394 -30 408 -7 q 363 -70 379 -53 q 332 -87 347 -87 m 326 -46 q 350 -23 338 -46 q 372 26 363 0 q 385 57 382 51 q 344 97 369 69 q 300 142 318 125 q 301 79 300 128 q 310 -18 301 31 q 326 -46 315 -46 z "},"Δ":{"ha":839,"x_min":50,"x_max":733,"o":"m 72 -7 q 58 3 65 -7 q 50 28 50 14 q 51 42 50 36 q 58 53 53 47 l 479 715 q 506 749 489 732 q 535 765 524 765 q 538 764 536 765 l 539 764 l 732 104 q 733 100 732 101 l 733 97 q 719 54 733 75 q 685 17 704 33 q 653 -7 667 1 l 72 -7 m 111 58 l 647 58 l 482 647 l 111 58 z "},"ǅ":{"ha":1790,"x_min":108,"x_max":1892,"o":"m 332 -87 q 290 -71 306 -87 q 265 -32 274 -54 q 254 11 257 -10 q 251 40 251 32 q 255 120 251 86 q 263 189 258 154 l 263 194 q 259 210 263 203 q 253 228 256 218 q 252 232 253 231 q 251 235 251 233 q 261 254 251 244 q 284 266 269 261 q 310 271 299 271 q 321 268 315 271 q 324 263 324 265 q 317 239 324 253 q 308 217 310 221 q 307 194 307 214 q 321 165 307 183 q 353 130 335 147 q 385 100 371 113 q 403 88 400 88 q 429 149 411 110 q 468 235 447 189 q 510 323 489 281 q 544 394 531 365 q 554 421 551 410 q 557 438 557 432 q 556 447 557 443 q 553 451 554 450 q 580 503 556 468 q 639 577 604 539 q 710 642 674 615 q 774 668 746 668 q 800 663 782 668 q 835 647 818 658 q 854 617 851 636 l 854 611 q 853 608 854 608 q 847 611 851 608 q 838 614 843 614 q 768 583 806 614 q 691 499 731 551 q 614 385 651 447 q 543 260 576 322 q 484 145 510 197 q 443 61 458 93 q 538 13 488 28 q 639 -1 588 -1 q 804 31 722 -1 q 958 113 886 63 q 1078 224 1029 164 q 1166 367 1136 293 q 1196 508 1196 440 q 1157 648 1196 586 q 1038 747 1118 710 q 835 783 958 783 q 651 765 746 783 q 469 713 557 746 q 312 634 382 679 q 201 536 242 589 q 160 426 160 483 q 182 374 160 392 q 232 349 204 357 q 275 332 260 340 q 286 322 286 328 q 271 314 286 314 q 226 322 254 314 q 171 347 199 331 q 126 388 143 364 q 113 446 108 413 q 111 456 113 449 q 110 468 110 463 q 149 589 110 535 q 255 685 188 643 q 408 754 322 726 q 588 796 493 782 q 774 810 682 810 q 941 797 856 810 q 1099 748 1026 783 q 1215 649 1171 713 q 1258 483 1258 585 q 1209 278 1258 372 q 1076 113 1160 183 q 891 4 993 43 q 683 -35 789 -35 q 547 -17 613 -35 q 432 38 481 0 q 419 13 429 33 q 394 -30 408 -7 q 363 -70 379 -53 q 332 -87 347 -87 m 326 -46 q 350 -23 338 -46 q 372 26 363 0 q 385 57 382 51 q 344 97 369 69 q 300 142 318 125 q 301 79 300 128 q 310 -18 301 31 q 326 -46 315 -46 m 1600 -46 q 1543 -56 1572 -56 q 1469 -40 1506 -56 q 1392 0 1432 -25 q 1338 25 1368 14 q 1287 -6 1311 7 q 1243 -19 1263 -19 q 1228 -17 1232 -19 q 1219 4 1219 -12 q 1240 53 1219 25 q 1311 81 1261 81 q 1367 72 1338 81 q 1410 110 1403 100 q 1524 213 1467 158 q 1625 310 1582 268 q 1563 328 1590 321 q 1506 339 1535 335 q 1492 341 1499 340 q 1478 342 1485 342 q 1424 331 1446 342 q 1382 301 1401 319 q 1336 255 1358 281 q 1294 204 1314 229 q 1282 188 1290 199 q 1268 183 1274 178 q 1263 194 1263 189 q 1267 206 1263 200 q 1323 283 1297 247 q 1361 333 1349 318 q 1414 385 1388 372 q 1467 399 1440 399 q 1515 392 1490 399 q 1567 379 1540 386 q 1620 367 1592 374 q 1674 356 1649 361 q 1713 381 1685 365 q 1761 396 1742 396 q 1781 376 1781 396 q 1759 334 1781 353 q 1709 306 1738 315 q 1661 301 1681 297 q 1547 205 1614 261 q 1424 97 1481 149 q 1406 83 1415 92 q 1386 65 1397 75 q 1408 56 1397 60 q 1428 46 1418 51 q 1502 6 1467 22 q 1572 -11 1538 -11 q 1638 7 1606 -11 q 1710 60 1667 24 q 1796 142 1753 97 q 1865 222 1839 186 q 1879 228 1869 228 q 1888 226 1885 228 q 1889 218 1892 224 q 1852 168 1878 199 q 1793 103 1826 138 q 1726 40 1760 69 q 1667 -10 1693 10 q 1626 -35 1642 -28 q 1600 -46 1611 -43 m 1628 463 q 1599 486 1617 463 q 1565 537 1581 510 q 1542 576 1549 564 q 1533 603 1533 596 q 1544 618 1533 615 q 1576 592 1556 613 q 1617 549 1596 571 q 1650 513 1639 526 q 1706 550 1674 526 q 1767 593 1738 574 q 1810 613 1797 613 q 1817 607 1817 613 q 1797 583 1817 599 q 1758 551 1783 571 q 1706 511 1733 532 q 1658 476 1679 490 q 1628 463 1636 463 z "},"E":{"ha":994,"x_min":33,"x_max":1003,"o":"m 349 -86 q 235 -76 290 -86 q 133 -44 179 -67 q 60 20 88 -21 q 33 125 33 61 q 67 242 33 194 q 154 320 100 290 q 272 367 208 350 q 395 391 335 383 q 501 400 456 399 q 426 522 460 449 q 393 665 393 596 q 399 714 393 690 q 417 758 404 738 q 461 801 431 783 q 528 828 492 818 q 594 838 564 838 q 679 810 646 838 q 742 756 713 783 q 759 740 749 749 q 782 726 769 731 q 795 724 788 725 q 808 719 803 724 q 828 690 819 710 q 843 656 838 671 q 851 597 851 633 q 845 546 851 569 q 826 522 839 522 q 808 535 819 522 q 785 587 792 554 q 764 646 778 619 q 728 713 747 682 q 681 765 708 743 q 648 790 669 778 q 599 803 626 803 q 564 796 578 803 q 495 732 515 776 q 475 635 475 688 q 496 508 475 571 q 543 411 517 444 q 577 401 550 403 q 615 396 604 399 q 647 386 638 394 q 657 368 657 378 q 639 342 657 353 q 615 335 632 335 q 563 344 592 335 q 514 357 533 353 q 418 343 472 356 q 308 308 364 331 q 203 251 251 285 q 126 176 156 218 q 94 83 96 133 q 138 -12 93 28 q 300 -53 182 -53 q 419 -43 356 -53 q 545 -17 483 -33 q 660 17 607 -1 q 746 53 713 35 q 810 91 772 65 q 884 150 847 117 q 945 219 921 183 q 969 288 969 254 q 969 294 969 290 q 968 301 969 299 q 974 307 967 307 q 983 304 981 307 q 1003 243 1003 276 q 972 156 1003 199 q 897 78 940 113 q 818 24 854 43 q 715 -22 775 -1 q 588 -56 654 -42 q 460 -78 522 -71 q 349 -86 397 -86 z "},"É":{"ha":994,"x_min":33,"x_max":1003,"o":"m 349 -86 q 235 -76 290 -86 q 133 -44 179 -67 q 60 20 88 -21 q 33 125 33 61 q 67 242 33 194 q 154 320 100 290 q 272 367 208 350 q 395 391 335 383 q 501 400 456 399 q 426 522 460 449 q 393 665 393 596 q 399 714 393 690 q 417 758 404 738 q 461 801 431 783 q 528 828 492 818 q 594 838 564 838 q 679 810 646 838 q 742 756 713 783 q 759 740 749 749 q 782 726 769 731 q 795 724 788 725 q 808 719 803 724 q 828 690 819 710 q 843 656 838 671 q 851 597 851 633 q 845 546 851 569 q 826 522 839 522 q 808 535 819 522 q 785 587 792 554 q 764 646 778 619 q 728 713 747 682 q 681 765 708 743 q 648 790 669 778 q 599 803 626 803 q 564 796 578 803 q 495 732 515 776 q 475 635 475 688 q 496 508 475 571 q 543 411 517 444 q 577 401 550 403 q 615 396 604 399 q 647 386 638 394 q 657 368 657 378 q 639 342 657 353 q 615 335 632 335 q 563 344 592 335 q 514 357 533 353 q 418 343 472 356 q 308 308 364 331 q 203 251 251 285 q 126 176 156 218 q 94 83 96 133 q 138 -12 93 28 q 300 -53 182 -53 q 419 -43 356 -53 q 545 -17 483 -33 q 660 17 607 -1 q 746 53 713 35 q 810 91 772 65 q 884 150 847 117 q 945 219 921 183 q 969 288 969 254 q 969 294 969 290 q 968 301 969 299 q 974 307 967 307 q 983 304 981 307 q 1003 243 1003 276 q 972 156 1003 199 q 897 78 940 113 q 818 24 854 43 q 715 -22 775 -1 q 588 -56 654 -42 q 460 -78 522 -71 q 349 -86 397 -86 m 554 944 q 543 950 543 944 q 564 969 543 957 q 608 999 578 978 q 675 1049 638 1019 q 707 1075 694 1065 q 725 1085 719 1085 q 735 1085 729 1085 q 749 1078 742 1085 q 764 1058 764 1067 q 761 1048 764 1053 q 754 1038 758 1043 q 715 1014 744 1029 q 651 983 686 999 q 589 956 617 967 q 554 944 561 944 z "},"Ĕ":{"ha":994,"x_min":33,"x_max":1003,"o":"m 349 -86 q 235 -76 290 -86 q 133 -44 179 -67 q 60 20 88 -21 q 33 125 33 61 q 67 242 33 194 q 154 320 100 290 q 272 367 208 350 q 395 391 335 383 q 501 400 456 399 q 426 522 460 449 q 393 665 393 596 q 399 714 393 690 q 417 758 404 738 q 461 801 431 783 q 528 828 492 818 q 594 838 564 838 q 679 810 646 838 q 742 756 713 783 q 759 740 749 749 q 782 726 769 731 q 795 724 788 725 q 808 719 803 724 q 828 690 819 710 q 843 656 838 671 q 851 597 851 633 q 845 546 851 569 q 826 522 839 522 q 808 535 819 522 q 785 587 792 554 q 764 646 778 619 q 728 713 747 682 q 681 765 708 743 q 648 790 669 778 q 599 803 626 803 q 564 796 578 803 q 495 732 515 776 q 475 635 475 688 q 496 508 475 571 q 543 411 517 444 q 577 401 550 403 q 615 396 604 399 q 647 386 638 394 q 657 368 657 378 q 639 342 657 353 q 615 335 632 335 q 563 344 592 335 q 514 357 533 353 q 418 343 472 356 q 308 308 364 331 q 203 251 251 285 q 126 176 156 218 q 94 83 96 133 q 138 -12 93 28 q 300 -53 182 -53 q 419 -43 356 -53 q 545 -17 483 -33 q 660 17 607 -1 q 746 53 713 35 q 810 91 772 65 q 884 150 847 117 q 945 219 921 183 q 969 288 969 254 q 969 294 969 290 q 968 301 969 299 q 974 307 967 307 q 983 304 981 307 q 1003 243 1003 276 q 972 156 1003 199 q 897 78 940 113 q 818 24 854 43 q 715 -22 775 -1 q 588 -56 654 -42 q 460 -78 522 -71 q 349 -86 397 -86 m 625 946 q 553 969 583 946 q 522 1042 522 992 q 529 1073 522 1061 q 544 1085 536 1085 q 558 1080 551 1085 q 564 1068 564 1075 q 590 999 564 1022 q 653 975 617 975 q 717 1001 682 975 q 771 1085 753 1026 q 781 1090 771 1090 q 800 1075 800 1090 q 738 979 786 1013 q 625 946 690 946 z "},"Ě":{"ha":994,"x_min":33,"x_max":1003,"o":"m 349 -86 q 235 -76 290 -86 q 133 -44 179 -67 q 60 20 88 -21 q 33 125 33 61 q 67 242 33 194 q 154 320 100 290 q 272 367 208 350 q 395 391 335 383 q 501 400 456 399 q 426 522 460 449 q 393 665 393 596 q 399 714 393 690 q 417 758 404 738 q 461 801 431 783 q 528 828 492 818 q 594 838 564 838 q 679 810 646 838 q 742 756 713 783 q 759 740 749 749 q 782 726 769 731 q 795 724 788 725 q 808 719 803 724 q 828 690 819 710 q 843 656 838 671 q 851 597 851 633 q 845 546 851 569 q 826 522 839 522 q 808 535 819 522 q 785 587 792 554 q 764 646 778 619 q 728 713 747 682 q 681 765 708 743 q 648 790 669 778 q 599 803 626 803 q 564 796 578 803 q 495 732 515 776 q 475 635 475 688 q 496 508 475 571 q 543 411 517 444 q 577 401 550 403 q 615 396 604 399 q 647 386 638 394 q 657 368 657 378 q 639 342 657 353 q 615 335 632 335 q 563 344 592 335 q 514 357 533 353 q 418 343 472 356 q 308 308 364 331 q 203 251 251 285 q 126 176 156 218 q 94 83 96 133 q 138 -12 93 28 q 300 -53 182 -53 q 419 -43 356 -53 q 545 -17 483 -33 q 660 17 607 -1 q 746 53 713 35 q 810 91 772 65 q 884 150 847 117 q 945 219 921 183 q 969 288 969 254 q 969 294 969 290 q 968 301 969 299 q 974 307 967 307 q 983 304 981 307 q 1003 243 1003 276 q 972 156 1003 199 q 897 78 940 113 q 818 24 854 43 q 715 -22 775 -1 q 588 -56 654 -42 q 460 -78 522 -71 q 349 -86 397 -86 m 636 950 q 607 974 625 950 q 573 1024 589 997 q 550 1064 557 1051 q 542 1090 542 1083 q 553 1106 542 1103 q 584 1079 564 1100 q 626 1036 604 1058 q 658 1000 647 1014 q 714 1038 682 1014 q 776 1081 746 1061 q 818 1100 806 1100 q 825 1094 825 1100 q 806 1071 825 1086 q 767 1039 792 1058 q 715 999 742 1019 q 666 964 688 978 q 636 950 644 950 z "},"Ê":{"ha":994,"x_min":33,"x_max":1003,"o":"m 349 -86 q 235 -76 290 -86 q 133 -44 179 -67 q 60 20 88 -21 q 33 125 33 61 q 67 242 33 194 q 154 320 100 290 q 272 367 208 350 q 395 391 335 383 q 501 400 456 399 q 426 522 460 449 q 393 665 393 596 q 399 714 393 690 q 417 758 404 738 q 461 801 431 783 q 528 828 492 818 q 594 838 564 838 q 679 810 646 838 q 742 756 713 783 q 759 740 749 749 q 782 726 769 731 q 795 724 788 725 q 808 719 803 724 q 828 690 819 710 q 843 656 838 671 q 851 597 851 633 q 845 546 851 569 q 826 522 839 522 q 808 535 819 522 q 785 587 792 554 q 764 646 778 619 q 728 713 747 682 q 681 765 708 743 q 648 790 669 778 q 599 803 626 803 q 564 796 578 803 q 495 732 515 776 q 475 635 475 688 q 496 508 475 571 q 543 411 517 444 q 577 401 550 403 q 615 396 604 399 q 647 386 638 394 q 657 368 657 378 q 639 342 657 353 q 615 335 632 335 q 563 344 592 335 q 514 357 533 353 q 418 343 472 356 q 308 308 364 331 q 203 251 251 285 q 126 176 156 218 q 94 83 96 133 q 138 -12 93 28 q 300 -53 182 -53 q 419 -43 356 -53 q 545 -17 483 -33 q 660 17 607 -1 q 746 53 713 35 q 810 91 772 65 q 884 150 847 117 q 945 219 921 183 q 969 288 969 254 q 969 294 969 290 q 968 301 969 299 q 974 307 967 307 q 983 304 981 307 q 1003 243 1003 276 q 972 156 1003 199 q 897 78 940 113 q 818 24 854 43 q 715 -22 775 -1 q 588 -56 654 -42 q 460 -78 522 -71 q 349 -86 397 -86 m 682 1103 q 706 1077 693 1103 q 731 1021 719 1051 q 747 976 742 990 q 751 958 750 964 q 751 947 751 953 q 739 931 750 933 q 713 960 729 938 q 681 1008 697 983 q 656 1047 664 1033 q 599 1007 632 1033 q 535 959 565 981 q 493 938 506 938 q 488 943 488 938 q 510 969 489 953 q 549 1004 524 982 q 603 1049 575 1026 q 653 1088 631 1072 q 682 1103 675 1103 z "},"Ế":{"ha":994,"x_min":33,"x_max":1003,"o":"m 349 -86 q 235 -76 290 -86 q 133 -44 179 -67 q 60 20 88 -21 q 33 125 33 61 q 67 242 33 194 q 154 320 100 290 q 272 367 208 350 q 395 391 335 383 q 501 400 456 399 q 426 522 460 449 q 393 665 393 596 q 399 714 393 690 q 417 758 404 738 q 461 801 431 783 q 528 828 492 818 q 594 838 564 838 q 679 810 646 838 q 742 756 713 783 q 759 740 749 749 q 782 726 769 731 q 795 724 788 725 q 808 719 803 724 q 828 690 819 710 q 843 656 838 671 q 851 597 851 633 q 845 546 851 569 q 826 522 839 522 q 808 535 819 522 q 785 587 792 554 q 764 646 778 619 q 728 713 747 682 q 681 765 708 743 q 648 790 669 778 q 599 803 626 803 q 564 796 578 803 q 495 732 515 776 q 475 635 475 688 q 496 508 475 571 q 543 411 517 444 q 577 401 550 403 q 615 396 604 399 q 647 386 638 394 q 657 368 657 378 q 639 342 657 353 q 615 335 632 335 q 563 344 592 335 q 514 357 533 353 q 418 343 472 356 q 308 308 364 331 q 203 251 251 285 q 126 176 156 218 q 94 83 96 133 q 138 -12 93 28 q 300 -53 182 -53 q 419 -43 356 -53 q 545 -17 483 -33 q 660 17 607 -1 q 746 53 713 35 q 810 91 772 65 q 884 150 847 117 q 945 219 921 183 q 969 288 969 254 q 969 294 969 290 q 968 301 969 299 q 974 307 967 307 q 983 304 981 307 q 1003 243 1003 276 q 972 156 1003 199 q 897 78 940 113 q 818 24 854 43 q 715 -22 775 -1 q 588 -56 654 -42 q 460 -78 522 -71 q 349 -86 397 -86 m 596 1131 q 585 1136 585 1131 q 604 1154 585 1142 q 646 1182 617 1163 q 710 1229 675 1201 q 756 1263 747 1263 q 766 1263 760 1263 q 778 1256 772 1263 q 793 1238 793 1247 q 783 1218 793 1231 q 747 1197 774 1211 q 687 1167 719 1182 q 628 1141 654 1151 q 596 1131 603 1131 m 682 1103 q 706 1077 693 1103 q 731 1021 719 1051 q 747 976 743 990 q 751 958 750 963 q 751 947 751 953 q 739 931 749 932 q 714 960 731 938 q 681 1008 697 982 q 656 1047 665 1033 q 599 1007 632 1033 q 535 959 565 981 q 493 938 506 938 q 488 943 488 938 q 510 969 489 953 q 550 1004 525 982 q 603 1049 575 1026 q 653 1088 631 1072 q 682 1103 675 1103 z "},"Ệ":{"ha":994,"x_min":33,"x_max":1003,"o":"m 349 -86 q 235 -76 290 -86 q 133 -44 179 -67 q 60 20 88 -21 q 33 125 33 61 q 67 242 33 194 q 154 320 100 290 q 272 367 208 350 q 395 391 335 383 q 501 400 456 399 q 426 522 460 449 q 393 665 393 596 q 399 714 393 690 q 417 758 404 738 q 461 801 431 783 q 528 828 492 818 q 594 838 564 838 q 679 810 646 838 q 742 756 713 783 q 759 740 749 749 q 782 726 769 731 q 795 724 788 725 q 808 719 803 724 q 828 690 819 710 q 843 656 838 671 q 851 597 851 633 q 845 546 851 569 q 826 522 839 522 q 808 535 819 522 q 785 587 792 554 q 764 646 778 619 q 728 713 747 682 q 681 765 708 743 q 648 790 669 778 q 599 803 626 803 q 564 796 578 803 q 495 732 515 776 q 475 635 475 688 q 496 508 475 571 q 543 411 517 444 q 577 401 550 403 q 615 396 604 399 q 647 386 638 394 q 657 368 657 378 q 639 342 657 353 q 615 335 632 335 q 563 344 592 335 q 514 357 533 353 q 418 343 472 356 q 308 308 364 331 q 203 251 251 285 q 126 176 156 218 q 94 83 96 133 q 138 -12 93 28 q 300 -53 182 -53 q 419 -43 356 -53 q 545 -17 483 -33 q 660 17 607 -1 q 746 53 713 35 q 810 91 772 65 q 884 150 847 117 q 945 219 921 183 q 969 288 969 254 q 969 294 969 290 q 968 301 969 299 q 974 307 967 307 q 983 304 981 307 q 1003 243 1003 276 q 972 156 1003 199 q 897 78 940 113 q 818 24 854 43 q 715 -22 775 -1 q 588 -56 654 -42 q 460 -78 522 -71 q 349 -86 397 -86 m 456 -253 q 421 -249 440 -253 q 401 -225 401 -246 q 413 -210 401 -222 q 438 -187 425 -199 q 454 -172 451 -175 q 489 -154 481 -154 q 500 -174 500 -154 l 500 -190 q 492 -212 500 -197 q 474 -240 485 -228 q 456 -253 464 -253 m 682 1103 q 706 1077 693 1103 q 731 1021 719 1051 q 747 976 742 990 q 751 958 750 964 q 751 947 751 953 q 739 931 750 933 q 713 960 729 938 q 681 1008 697 983 q 656 1047 664 1033 q 599 1007 632 1033 q 535 959 565 981 q 493 938 506 938 q 488 943 488 938 q 510 969 489 953 q 549 1004 524 982 q 603 1049 575 1026 q 653 1088 631 1072 q 682 1103 675 1103 z "},"Ề":{"ha":994,"x_min":33,"x_max":1003,"o":"m 349 -86 q 235 -76 290 -86 q 133 -44 179 -67 q 60 20 88 -21 q 33 125 33 61 q 67 242 33 194 q 154 320 100 290 q 272 367 208 350 q 395 391 335 383 q 501 400 456 399 q 426 522 460 449 q 393 665 393 596 q 399 714 393 690 q 417 758 404 738 q 461 801 431 783 q 528 828 492 818 q 594 838 564 838 q 679 810 646 838 q 742 756 713 783 q 759 740 749 749 q 782 726 769 731 q 795 724 788 725 q 808 719 803 724 q 828 690 819 710 q 843 656 838 671 q 851 597 851 633 q 845 546 851 569 q 826 522 839 522 q 808 535 819 522 q 785 587 792 554 q 764 646 778 619 q 728 713 747 682 q 681 765 708 743 q 648 790 669 778 q 599 803 626 803 q 564 796 578 803 q 495 732 515 776 q 475 635 475 688 q 496 508 475 571 q 543 411 517 444 q 577 401 550 403 q 615 396 604 399 q 647 386 638 394 q 657 368 657 378 q 639 342 657 353 q 615 335 632 335 q 563 344 592 335 q 514 357 533 353 q 418 343 472 356 q 308 308 364 331 q 203 251 251 285 q 126 176 156 218 q 94 83 96 133 q 138 -12 93 28 q 300 -53 182 -53 q 419 -43 356 -53 q 545 -17 483 -33 q 660 17 607 -1 q 746 53 713 35 q 810 91 772 65 q 884 150 847 117 q 945 219 921 183 q 969 288 969 254 q 969 294 969 290 q 968 301 969 299 q 974 307 967 307 q 983 304 981 307 q 1003 243 1003 276 q 972 156 1003 199 q 897 78 940 113 q 818 24 854 43 q 715 -22 775 -1 q 588 -56 654 -42 q 460 -78 522 -71 q 349 -86 397 -86 m 825 1114 q 791 1124 817 1114 q 733 1150 765 1135 q 675 1180 701 1165 q 639 1201 649 1194 q 631 1209 635 1206 q 626 1218 626 1213 q 640 1240 626 1231 q 661 1249 651 1249 q 681 1238 668 1249 q 711 1213 693 1228 q 775 1165 747 1185 q 817 1138 803 1144 q 836 1119 836 1126 q 825 1114 836 1114 m 682 1103 q 706 1077 693 1103 q 731 1021 719 1051 q 747 976 743 990 q 751 958 750 963 q 751 947 751 953 q 739 931 749 932 q 714 960 731 938 q 681 1008 697 982 q 656 1047 665 1033 q 599 1007 632 1033 q 535 959 565 981 q 493 938 506 938 q 488 943 488 938 q 510 969 489 953 q 550 1004 525 982 q 603 1049 575 1026 q 653 1088 631 1072 q 682 1103 675 1103 z "},"Ể":{"ha":994,"x_min":33,"x_max":1003,"o":"m 349 -86 q 235 -76 290 -86 q 133 -44 179 -67 q 60 20 88 -21 q 33 125 33 61 q 67 242 33 194 q 154 320 100 290 q 272 367 208 350 q 395 391 335 383 q 501 400 456 399 q 426 522 460 449 q 393 665 393 596 q 399 714 393 690 q 417 758 404 738 q 461 801 431 783 q 528 828 492 818 q 594 838 564 838 q 679 810 646 838 q 742 756 713 783 q 759 740 749 749 q 782 726 769 731 q 795 724 788 725 q 808 719 803 724 q 828 690 819 710 q 843 656 838 671 q 851 597 851 633 q 845 546 851 569 q 826 522 839 522 q 808 535 819 522 q 785 587 792 554 q 764 646 778 619 q 728 713 747 682 q 681 765 708 743 q 648 790 669 778 q 599 803 626 803 q 564 796 578 803 q 495 732 515 776 q 475 635 475 688 q 496 508 475 571 q 543 411 517 444 q 577 401 550 403 q 615 396 604 399 q 647 386 638 394 q 657 368 657 378 q 639 342 657 353 q 615 335 632 335 q 563 344 592 335 q 514 357 533 353 q 418 343 472 356 q 308 308 364 331 q 203 251 251 285 q 126 176 156 218 q 94 83 96 133 q 138 -12 93 28 q 300 -53 182 -53 q 419 -43 356 -53 q 545 -17 483 -33 q 660 17 607 -1 q 746 53 713 35 q 810 91 772 65 q 884 150 847 117 q 945 219 921 183 q 969 288 969 254 q 969 294 969 290 q 968 301 969 299 q 974 307 967 307 q 983 304 981 307 q 1003 243 1003 276 q 972 156 1003 199 q 897 78 940 113 q 818 24 854 43 q 715 -22 775 -1 q 588 -56 654 -42 q 460 -78 522 -71 q 349 -86 397 -86 m 811 1039 q 799 1035 803 1035 q 792 1040 792 1035 q 797 1051 792 1046 q 835 1103 817 1074 q 854 1160 854 1132 q 842 1191 854 1181 q 811 1201 829 1201 q 765 1194 782 1201 q 746 1186 749 1186 q 739 1194 738 1186 q 761 1212 742 1203 q 803 1228 781 1221 q 836 1235 825 1235 q 881 1220 860 1235 q 901 1178 901 1206 q 886 1115 901 1143 q 850 1067 871 1088 q 811 1039 829 1047 m 682 1103 q 706 1077 693 1103 q 731 1021 719 1051 q 747 976 743 990 q 751 958 750 963 q 751 947 751 953 q 739 931 749 932 q 714 960 731 938 q 681 1008 697 982 q 656 1047 665 1033 q 599 1007 632 1033 q 535 959 565 981 q 493 938 506 938 q 488 943 488 938 q 510 969 489 953 q 550 1004 525 982 q 603 1049 575 1026 q 653 1088 631 1072 q 682 1103 675 1103 z "},"Ễ":{"ha":994,"x_min":33,"x_max":1003,"o":"m 349 -86 q 235 -76 290 -86 q 133 -44 179 -67 q 60 20 88 -21 q 33 125 33 61 q 67 242 33 194 q 154 320 100 290 q 272 367 208 350 q 395 391 335 383 q 501 400 456 399 q 426 522 460 449 q 393 665 393 596 q 399 714 393 690 q 417 758 404 738 q 461 801 431 783 q 528 828 492 818 q 594 838 564 838 q 679 810 646 838 q 742 756 713 783 q 759 740 749 749 q 782 726 769 731 q 795 724 788 725 q 808 719 803 724 q 828 690 819 710 q 843 656 838 671 q 851 597 851 633 q 845 546 851 569 q 826 522 839 522 q 808 535 819 522 q 785 587 792 554 q 764 646 778 619 q 728 713 747 682 q 681 765 708 743 q 648 790 669 778 q 599 803 626 803 q 564 796 578 803 q 495 732 515 776 q 475 635 475 688 q 496 508 475 571 q 543 411 517 444 q 577 401 550 403 q 615 396 604 399 q 647 386 638 394 q 657 368 657 378 q 639 342 657 353 q 615 335 632 335 q 563 344 592 335 q 514 357 533 353 q 418 343 472 356 q 308 308 364 331 q 203 251 251 285 q 126 176 156 218 q 94 83 96 133 q 138 -12 93 28 q 300 -53 182 -53 q 419 -43 356 -53 q 545 -17 483 -33 q 660 17 607 -1 q 746 53 713 35 q 810 91 772 65 q 884 150 847 117 q 945 219 921 183 q 969 288 969 254 q 969 294 969 290 q 968 301 969 299 q 974 307 967 307 q 983 304 981 307 q 1003 243 1003 276 q 972 156 1003 199 q 897 78 940 113 q 818 24 854 43 q 715 -22 775 -1 q 588 -56 654 -42 q 460 -78 522 -71 q 349 -86 397 -86 m 550 1133 q 539 1139 539 1133 l 539 1140 q 587 1201 563 1172 q 643 1229 611 1229 q 681 1217 657 1229 q 733 1191 706 1204 q 782 1178 760 1178 q 805 1188 796 1178 q 821 1208 814 1199 q 835 1218 828 1218 q 847 1214 847 1218 l 847 1211 q 810 1160 833 1183 q 758 1138 786 1138 q 716 1148 738 1138 q 674 1169 694 1158 q 631 1179 653 1179 q 599 1168 617 1179 q 567 1145 581 1157 q 550 1133 554 1133 m 682 1103 q 706 1077 693 1103 q 731 1021 719 1051 q 747 976 743 990 q 751 958 750 963 q 751 947 751 953 q 739 931 749 932 q 714 960 731 938 q 681 1008 697 982 q 656 1047 665 1033 q 599 1007 632 1033 q 535 959 565 981 q 493 938 506 938 q 488 943 488 938 q 510 969 489 953 q 550 1004 525 982 q 603 1049 575 1026 q 653 1088 631 1072 q 682 1103 675 1103 z "},"Ȅ":{"ha":994,"x_min":33,"x_max":1003,"o":"m 349 -86 q 235 -76 290 -86 q 133 -44 179 -67 q 60 20 88 -21 q 33 125 33 61 q 67 242 33 194 q 154 320 100 290 q 272 367 208 350 q 395 391 335 383 q 501 400 456 399 q 426 522 460 449 q 393 665 393 596 q 399 714 393 690 q 417 758 404 738 q 461 801 431 783 q 528 828 492 818 q 594 838 564 838 q 679 810 646 838 q 742 756 713 783 q 759 740 749 749 q 782 726 769 731 q 795 724 788 725 q 808 719 803 724 q 828 690 819 710 q 843 656 838 671 q 851 597 851 633 q 845 546 851 569 q 826 522 839 522 q 808 535 819 522 q 785 587 792 554 q 764 646 778 619 q 728 713 747 682 q 681 765 708 743 q 648 790 669 778 q 599 803 626 803 q 564 796 578 803 q 495 732 515 776 q 475 635 475 688 q 496 508 475 571 q 543 411 517 444 q 577 401 550 403 q 615 396 604 399 q 647 386 638 394 q 657 368 657 378 q 639 342 657 353 q 615 335 632 335 q 563 344 592 335 q 514 357 533 353 q 418 343 472 356 q 308 308 364 331 q 203 251 251 285 q 126 176 156 218 q 94 83 96 133 q 138 -12 93 28 q 300 -53 182 -53 q 419 -43 356 -53 q 545 -17 483 -33 q 660 17 607 -1 q 746 53 713 35 q 810 91 772 65 q 884 150 847 117 q 945 219 921 183 q 969 288 969 254 q 969 294 969 290 q 968 301 969 299 q 974 307 967 307 q 983 304 981 307 q 1003 243 1003 276 q 972 156 1003 199 q 897 78 940 113 q 818 24 854 43 q 715 -22 775 -1 q 588 -56 654 -42 q 460 -78 522 -71 q 349 -86 397 -86 m 538 935 q 510 957 531 938 q 464 1003 489 976 q 419 1052 439 1029 q 393 1086 399 1075 q 387 1097 389 1092 q 386 1107 385 1101 q 408 1122 390 1118 q 429 1122 421 1126 q 444 1106 436 1121 q 465 1069 453 1092 q 508 1001 489 1031 q 538 961 528 972 q 550 936 553 944 q 538 935 549 931 m 663 935 q 635 957 656 938 q 589 1003 614 976 q 544 1052 564 1029 q 518 1086 524 1075 q 512 1097 514 1092 q 511 1107 510 1101 q 533 1122 515 1118 q 554 1122 546 1126 q 569 1106 561 1121 q 590 1069 578 1092 q 633 1001 614 1031 q 663 961 653 972 q 675 936 678 944 q 663 935 674 931 z "},"Ë":{"ha":994,"x_min":33,"x_max":1003,"o":"m 349 -86 q 235 -76 290 -86 q 133 -44 179 -67 q 60 20 88 -21 q 33 125 33 61 q 67 242 33 194 q 154 320 100 290 q 272 367 208 350 q 395 391 335 383 q 501 400 456 399 q 426 522 460 449 q 393 665 393 596 q 399 714 393 690 q 417 758 404 738 q 461 801 431 783 q 528 828 492 818 q 594 838 564 838 q 679 810 646 838 q 742 756 713 783 q 759 740 749 749 q 782 726 769 731 q 795 724 788 725 q 808 719 803 724 q 828 690 819 710 q 843 656 838 671 q 851 597 851 633 q 845 546 851 569 q 826 522 839 522 q 808 535 819 522 q 785 587 792 554 q 764 646 778 619 q 728 713 747 682 q 681 765 708 743 q 648 790 669 778 q 599 803 626 803 q 564 796 578 803 q 495 732 515 776 q 475 635 475 688 q 496 508 475 571 q 543 411 517 444 q 577 401 550 403 q 615 396 604 399 q 647 386 638 394 q 657 368 657 378 q 639 342 657 353 q 615 335 632 335 q 563 344 592 335 q 514 357 533 353 q 418 343 472 356 q 308 308 364 331 q 203 251 251 285 q 126 176 156 218 q 94 83 96 133 q 138 -12 93 28 q 300 -53 182 -53 q 419 -43 356 -53 q 545 -17 483 -33 q 660 17 607 -1 q 746 53 713 35 q 810 91 772 65 q 884 150 847 117 q 945 219 921 183 q 969 288 969 254 q 969 294 969 290 q 968 301 969 299 q 974 307 967 307 q 983 304 981 307 q 1003 243 1003 276 q 972 156 1003 199 q 897 78 940 113 q 818 24 854 43 q 715 -22 775 -1 q 588 -56 654 -42 q 460 -78 522 -71 q 349 -86 397 -86 m 564 946 q 533 949 549 946 q 517 968 517 951 q 531 984 517 972 q 563 1008 546 996 q 582 1024 579 1021 q 606 1039 599 1039 q 608 1036 608 1039 q 603 1020 608 1031 q 599 1000 599 1010 q 585 967 599 989 q 564 946 572 946 m 703 946 q 672 949 688 946 q 657 968 657 951 q 672 984 657 972 q 703 1008 686 996 q 722 1024 719 1021 q 746 1039 739 1039 q 747 1036 747 1039 q 743 1020 747 1031 q 739 1000 739 1010 q 725 967 739 989 q 703 946 711 946 z "},"Ė":{"ha":994,"x_min":33,"x_max":1003,"o":"m 349 -86 q 235 -76 290 -86 q 133 -44 179 -67 q 60 20 88 -21 q 33 125 33 61 q 67 242 33 194 q 154 320 100 290 q 272 367 208 350 q 395 391 335 383 q 501 400 456 399 q 426 522 460 449 q 393 665 393 596 q 399 714 393 690 q 417 758 404 738 q 461 801 431 783 q 528 828 492 818 q 594 838 564 838 q 679 810 646 838 q 742 756 713 783 q 759 740 749 749 q 782 726 769 731 q 795 724 788 725 q 808 719 803 724 q 828 690 819 710 q 843 656 838 671 q 851 597 851 633 q 845 546 851 569 q 826 522 839 522 q 808 535 819 522 q 785 587 792 554 q 764 646 778 619 q 728 713 747 682 q 681 765 708 743 q 648 790 669 778 q 599 803 626 803 q 564 796 578 803 q 495 732 515 776 q 475 635 475 688 q 496 508 475 571 q 543 411 517 444 q 577 401 550 403 q 615 396 604 399 q 647 386 638 394 q 657 368 657 378 q 639 342 657 353 q 615 335 632 335 q 563 344 592 335 q 514 357 533 353 q 418 343 472 356 q 308 308 364 331 q 203 251 251 285 q 126 176 156 218 q 94 83 96 133 q 138 -12 93 28 q 300 -53 182 -53 q 419 -43 356 -53 q 545 -17 483 -33 q 660 17 607 -1 q 746 53 713 35 q 810 91 772 65 q 884 150 847 117 q 945 219 921 183 q 969 288 969 254 q 969 294 969 290 q 968 301 969 299 q 974 307 967 307 q 983 304 981 307 q 1003 243 1003 276 q 972 156 1003 199 q 897 78 940 113 q 818 24 854 43 q 715 -22 775 -1 q 588 -56 654 -42 q 460 -78 522 -71 q 349 -86 397 -86 m 653 947 q 613 951 635 947 q 590 981 590 956 q 603 998 590 985 q 632 1025 617 1011 q 651 1042 647 1039 q 693 1064 683 1064 q 706 1040 706 1064 l 706 1021 q 696 994 706 1013 q 674 962 686 976 q 653 947 663 947 z "},"Ẹ":{"ha":994,"x_min":33,"x_max":1003,"o":"m 349 -86 q 235 -76 290 -86 q 133 -44 179 -67 q 60 20 88 -21 q 33 125 33 61 q 67 242 33 194 q 154 320 100 290 q 272 367 208 350 q 395 391 335 383 q 501 400 456 399 q 426 522 460 449 q 393 665 393 596 q 399 714 393 690 q 417 758 404 738 q 461 801 431 783 q 528 828 492 818 q 594 838 564 838 q 679 810 646 838 q 742 756 713 783 q 759 740 749 749 q 782 726 769 731 q 795 724 788 725 q 808 719 803 724 q 828 690 819 710 q 843 656 838 671 q 851 597 851 633 q 845 546 851 569 q 826 522 839 522 q 808 535 819 522 q 785 587 792 554 q 764 646 778 619 q 728 713 747 682 q 681 765 708 743 q 648 790 669 778 q 599 803 626 803 q 564 796 578 803 q 495 732 515 776 q 475 635 475 688 q 496 508 475 571 q 543 411 517 444 q 577 401 550 403 q 615 396 604 399 q 647 386 638 394 q 657 368 657 378 q 639 342 657 353 q 615 335 632 335 q 563 344 592 335 q 514 357 533 353 q 418 343 472 356 q 308 308 364 331 q 203 251 251 285 q 126 176 156 218 q 94 83 96 133 q 138 -12 93 28 q 300 -53 182 -53 q 419 -43 356 -53 q 545 -17 483 -33 q 660 17 607 -1 q 746 53 713 35 q 810 91 772 65 q 884 150 847 117 q 945 219 921 183 q 969 288 969 254 q 969 294 969 290 q 968 301 969 299 q 974 307 967 307 q 983 304 981 307 q 1003 243 1003 276 q 972 156 1003 199 q 897 78 940 113 q 818 24 854 43 q 715 -22 775 -1 q 588 -56 654 -42 q 460 -78 522 -71 q 349 -86 397 -86 m 456 -253 q 421 -249 440 -253 q 401 -225 401 -246 q 413 -210 401 -222 q 438 -187 425 -199 q 454 -172 451 -175 q 489 -154 481 -154 q 500 -174 500 -154 l 500 -190 q 492 -212 500 -197 q 474 -240 485 -228 q 456 -253 464 -253 z "},"È":{"ha":994,"x_min":33,"x_max":1003,"o":"m 349 -86 q 235 -76 290 -86 q 133 -44 179 -67 q 60 20 88 -21 q 33 125 33 61 q 67 242 33 194 q 154 320 100 290 q 272 367 208 350 q 395 391 335 383 q 501 400 456 399 q 426 522 460 449 q 393 665 393 596 q 399 714 393 690 q 417 758 404 738 q 461 801 431 783 q 528 828 492 818 q 594 838 564 838 q 679 810 646 838 q 742 756 713 783 q 759 740 749 749 q 782 726 769 731 q 795 724 788 725 q 808 719 803 724 q 828 690 819 710 q 843 656 838 671 q 851 597 851 633 q 845 546 851 569 q 826 522 839 522 q 808 535 819 522 q 785 587 792 554 q 764 646 778 619 q 728 713 747 682 q 681 765 708 743 q 648 790 669 778 q 599 803 626 803 q 564 796 578 803 q 495 732 515 776 q 475 635 475 688 q 496 508 475 571 q 543 411 517 444 q 577 401 550 403 q 615 396 604 399 q 647 386 638 394 q 657 368 657 378 q 639 342 657 353 q 615 335 632 335 q 563 344 592 335 q 514 357 533 353 q 418 343 472 356 q 308 308 364 331 q 203 251 251 285 q 126 176 156 218 q 94 83 96 133 q 138 -12 93 28 q 300 -53 182 -53 q 419 -43 356 -53 q 545 -17 483 -33 q 660 17 607 -1 q 746 53 713 35 q 810 91 772 65 q 884 150 847 117 q 945 219 921 183 q 969 288 969 254 q 969 294 969 290 q 968 301 969 299 q 974 307 967 307 q 983 304 981 307 q 1003 243 1003 276 q 972 156 1003 199 q 897 78 940 113 q 818 24 854 43 q 715 -22 775 -1 q 588 -56 654 -42 q 460 -78 522 -71 q 349 -86 397 -86 m 690 946 q 654 957 682 946 q 593 984 626 968 q 531 1015 560 1000 q 493 1039 503 1031 q 483 1047 488 1043 q 479 1057 479 1051 q 494 1081 479 1069 q 515 1089 506 1089 q 536 1078 522 1089 q 569 1050 550 1067 q 637 999 607 1021 q 681 971 667 978 q 701 951 701 961 q 690 946 701 946 z "},"Ẻ":{"ha":994,"x_min":33,"x_max":1003,"o":"m 349 -86 q 235 -76 290 -86 q 133 -44 179 -67 q 60 20 88 -21 q 33 125 33 61 q 67 242 33 194 q 154 320 100 290 q 272 367 208 350 q 395 391 335 383 q 501 400 456 399 q 426 522 460 449 q 393 665 393 596 q 399 714 393 690 q 417 758 404 738 q 461 801 431 783 q 528 828 492 818 q 594 838 564 838 q 679 810 646 838 q 742 756 713 783 q 759 740 749 749 q 782 726 769 731 q 795 724 788 725 q 808 719 803 724 q 828 690 819 710 q 843 656 838 671 q 851 597 851 633 q 845 546 851 569 q 826 522 839 522 q 808 535 819 522 q 785 587 792 554 q 764 646 778 619 q 728 713 747 682 q 681 765 708 743 q 648 790 669 778 q 599 803 626 803 q 564 796 578 803 q 495 732 515 776 q 475 635 475 688 q 496 508 475 571 q 543 411 517 444 q 577 401 550 403 q 615 396 604 399 q 647 386 638 394 q 657 368 657 378 q 639 342 657 353 q 615 335 632 335 q 563 344 592 335 q 514 357 533 353 q 418 343 472 356 q 308 308 364 331 q 203 251 251 285 q 126 176 156 218 q 94 83 96 133 q 138 -12 93 28 q 300 -53 182 -53 q 419 -43 356 -53 q 545 -17 483 -33 q 660 17 607 -1 q 746 53 713 35 q 810 91 772 65 q 884 150 847 117 q 945 219 921 183 q 969 288 969 254 q 969 294 969 290 q 968 301 969 299 q 974 307 967 307 q 983 304 981 307 q 1003 243 1003 276 q 972 156 1003 199 q 897 78 940 113 q 818 24 854 43 q 715 -22 775 -1 q 588 -56 654 -42 q 460 -78 522 -71 q 349 -86 397 -86 m 660 944 q 647 940 651 940 q 640 946 640 940 q 646 957 640 951 q 684 1008 665 979 q 703 1065 703 1038 q 690 1097 703 1086 q 660 1107 678 1107 q 614 1099 631 1107 q 594 1092 597 1092 q 588 1100 586 1092 q 610 1117 590 1108 q 651 1133 629 1126 q 685 1140 674 1140 q 729 1126 708 1140 q 750 1083 750 1111 q 735 1022 750 1050 q 699 973 719 993 q 660 944 678 953 z "},"Ȇ":{"ha":994,"x_min":33,"x_max":1003,"o":"m 349 -86 q 235 -76 290 -86 q 133 -44 179 -67 q 60 20 88 -21 q 33 125 33 61 q 67 242 33 194 q 154 320 100 290 q 272 367 208 350 q 395 391 335 383 q 501 400 456 399 q 426 522 460 449 q 393 665 393 596 q 399 714 393 690 q 417 758 404 738 q 461 801 431 783 q 528 828 492 818 q 594 838 564 838 q 679 810 646 838 q 742 756 713 783 q 759 740 749 749 q 782 726 769 731 q 795 724 788 725 q 808 719 803 724 q 828 690 819 710 q 843 656 838 671 q 851 597 851 633 q 845 546 851 569 q 826 522 839 522 q 808 535 819 522 q 785 587 792 554 q 764 646 778 619 q 728 713 747 682 q 681 765 708 743 q 648 790 669 778 q 599 803 626 803 q 564 796 578 803 q 495 732 515 776 q 475 635 475 688 q 496 508 475 571 q 543 411 517 444 q 577 401 550 403 q 615 396 604 399 q 647 386 638 394 q 657 368 657 378 q 639 342 657 353 q 615 335 632 335 q 563 344 592 335 q 514 357 533 353 q 418 343 472 356 q 308 308 364 331 q 203 251 251 285 q 126 176 156 218 q 94 83 96 133 q 138 -12 93 28 q 300 -53 182 -53 q 419 -43 356 -53 q 545 -17 483 -33 q 660 17 607 -1 q 746 53 713 35 q 810 91 772 65 q 884 150 847 117 q 945 219 921 183 q 969 288 969 254 q 969 294 969 290 q 968 301 969 299 q 974 307 967 307 q 983 304 981 307 q 1003 243 1003 276 q 972 156 1003 199 q 897 78 940 113 q 818 24 854 43 q 715 -22 775 -1 q 588 -56 654 -42 q 460 -78 522 -71 q 349 -86 397 -86 m 675 1088 q 747 1065 717 1088 q 778 992 778 1042 q 771 960 778 972 q 756 949 764 949 q 743 954 750 949 q 736 965 736 960 q 710 1035 736 1011 q 647 1058 683 1058 q 583 1033 618 1058 q 529 949 549 1007 q 519 943 529 943 q 500 958 500 943 q 562 1054 514 1021 q 675 1088 610 1088 z "},"Ē":{"ha":994,"x_min":33,"x_max":1003,"o":"m 349 -86 q 235 -76 290 -86 q 133 -44 179 -67 q 60 20 88 -21 q 33 125 33 61 q 67 242 33 194 q 154 320 100 290 q 272 367 208 350 q 395 391 335 383 q 501 400 456 399 q 426 522 460 449 q 393 665 393 596 q 399 714 393 690 q 417 758 404 738 q 461 801 431 783 q 528 828 492 818 q 594 838 564 838 q 679 810 646 838 q 742 756 713 783 q 759 740 749 749 q 782 726 769 731 q 795 724 788 725 q 808 719 803 724 q 828 690 819 710 q 843 656 838 671 q 851 597 851 633 q 845 546 851 569 q 826 522 839 522 q 808 535 819 522 q 785 587 792 554 q 764 646 778 619 q 728 713 747 682 q 681 765 708 743 q 648 790 669 778 q 599 803 626 803 q 564 796 578 803 q 495 732 515 776 q 475 635 475 688 q 496 508 475 571 q 543 411 517 444 q 577 401 550 403 q 615 396 604 399 q 647 386 638 394 q 657 368 657 378 q 639 342 657 353 q 615 335 632 335 q 563 344 592 335 q 514 357 533 353 q 418 343 472 356 q 308 308 364 331 q 203 251 251 285 q 126 176 156 218 q 94 83 96 133 q 138 -12 93 28 q 300 -53 182 -53 q 419 -43 356 -53 q 545 -17 483 -33 q 660 17 607 -1 q 746 53 713 35 q 810 91 772 65 q 884 150 847 117 q 945 219 921 183 q 969 288 969 254 q 969 294 969 290 q 968 301 969 299 q 974 307 967 307 q 983 304 981 307 q 1003 243 1003 276 q 972 156 1003 199 q 897 78 940 113 q 818 24 854 43 q 715 -22 775 -1 q 588 -56 654 -42 q 460 -78 522 -71 q 349 -86 397 -86 m 544 942 q 510 954 510 942 q 545 984 510 978 q 635 990 581 990 q 695 990 663 990 q 760 989 728 989 q 790 986 775 989 q 806 974 806 983 q 794 960 807 965 q 768 954 782 956 q 750 951 754 953 q 679 948 718 950 q 604 944 640 946 q 544 942 568 942 z "},"Ŋ":{"ha":722,"x_min":10,"x_max":854,"o":"m 282 -449 q 172 -406 208 -449 q 136 -307 136 -362 q 137 -288 136 -297 q 140 -269 138 -279 q 155 -228 143 -254 q 184 -176 167 -203 q 222 -130 201 -149 q 263 -111 242 -111 q 275 -124 275 -111 q 269 -133 275 -129 q 213 -218 239 -162 q 188 -324 188 -274 q 209 -392 188 -364 q 283 -421 231 -421 q 375 -384 328 -421 q 468 -288 422 -347 q 553 -162 514 -229 q 624 -35 593 -96 q 671 65 654 25 q 599 2 636 26 q 521 -22 561 -22 q 429 10 467 -22 q 367 98 392 43 q 329 219 343 153 q 310 355 315 286 q 304 483 304 424 q 306 554 304 519 q 310 624 308 589 q 200 413 254 518 q 105 208 146 308 q 49 13 64 107 q 24 0 42 0 q 10 13 14 0 q 24 89 10 36 q 63 212 39 142 q 116 359 86 282 q 176 510 146 436 q 234 643 207 583 q 281 738 261 703 q 307 774 300 774 q 347 758 324 774 q 369 725 369 742 q 367 656 369 690 q 365 585 365 622 q 368 446 365 521 q 380 297 371 371 q 408 160 389 222 q 461 62 428 99 q 544 25 494 25 q 642 75 599 25 q 716 207 686 125 q 762 387 746 289 q 778 581 778 485 q 773 662 778 624 q 757 724 768 700 q 708 757 743 757 q 683 752 697 757 q 661 747 669 747 q 654 756 654 747 q 668 776 654 768 q 699 790 682 785 q 728 794 717 794 q 825 731 796 794 q 854 572 854 667 q 793 217 854 415 q 601 -186 732 18 q 543 -269 578 -224 q 467 -355 508 -314 q 378 -422 425 -396 q 282 -449 331 -449 z "},"Ę":{"ha":994,"x_min":33,"x_max":1003,"o":"m 349 -86 q 235 -76 290 -86 q 133 -44 179 -67 q 60 20 88 -21 q 33 125 33 61 q 67 242 33 194 q 154 320 100 290 q 272 367 208 350 q 395 391 335 383 q 501 400 456 399 q 426 522 460 449 q 393 665 393 596 q 399 714 393 690 q 417 758 404 738 q 461 801 431 783 q 528 828 492 818 q 594 838 564 838 q 679 810 646 838 q 742 756 713 783 q 759 740 749 749 q 782 726 769 731 q 795 724 788 725 q 808 719 803 724 q 828 690 819 710 q 843 656 838 671 q 851 597 851 633 q 845 546 851 569 q 826 522 839 522 q 808 535 819 522 q 785 587 792 554 q 764 646 778 619 q 728 713 747 682 q 681 765 708 743 q 648 790 669 778 q 599 803 626 803 q 564 796 578 803 q 495 732 515 776 q 475 635 475 688 q 496 508 475 571 q 543 411 517 444 q 577 401 550 403 q 615 396 604 399 q 647 386 638 394 q 657 368 657 378 q 639 342 657 353 q 615 335 632 335 q 563 344 592 335 q 514 357 533 353 q 418 343 472 356 q 308 308 364 331 q 203 251 251 285 q 126 176 156 218 q 94 83 96 133 q 138 -12 93 28 q 300 -53 182 -53 q 419 -43 356 -53 q 545 -17 483 -33 q 660 17 607 -1 q 746 53 713 35 q 810 91 772 65 q 884 150 847 117 q 945 219 921 183 q 969 288 969 254 q 969 294 969 290 q 968 301 969 299 q 974 307 967 307 q 983 304 981 307 q 1003 243 1003 276 q 972 156 1003 199 q 897 78 940 113 q 818 24 854 43 q 715 -22 775 -1 q 588 -56 654 -42 q 460 -78 522 -71 q 349 -86 397 -86 m 321 -371 q 265 -347 293 -371 q 236 -287 236 -322 q 254 -226 236 -257 q 303 -171 272 -194 q 370 -117 335 -144 q 433 -72 406 -90 q 471 -53 461 -53 q 483 -57 483 -53 l 481 -58 q 423 -106 460 -76 q 351 -172 386 -136 q 325 -208 342 -183 q 294 -262 308 -233 q 281 -315 281 -290 q 287 -340 281 -325 q 304 -354 293 -354 q 342 -337 319 -354 q 389 -296 365 -319 q 431 -251 413 -272 q 457 -225 450 -231 q 469 -218 467 -218 q 475 -224 475 -218 q 474 -230 475 -225 q 469 -239 474 -235 q 452 -267 465 -246 q 419 -312 439 -287 q 375 -353 400 -336 q 321 -371 350 -371 z "},"Ð":{"ha":788,"x_min":21,"x_max":826,"o":"m 258 -15 q 173 -8 215 -15 q 97 14 131 0 l 96 8 q 61 -1 83 -1 q 42 8 43 -1 q 44 24 42 15 q 47 47 46 33 q 24 78 31 61 q 22 88 22 83 q 21 97 21 93 q 32 118 21 118 q 42 111 35 118 q 50 101 46 106 q 58 92 54 96 q 89 185 69 132 q 131 294 108 239 l 64 292 q 32 307 32 290 q 47 331 32 318 q 76 344 63 344 l 147 344 q 208 491 178 421 q 261 610 238 561 q 294 672 285 660 q 311 678 300 678 q 353 667 331 678 q 369 643 375 656 q 288 490 329 563 q 211 344 247 417 l 283 344 q 337 339 317 344 q 357 325 357 333 q 342 313 358 317 q 308 307 326 308 q 285 306 290 306 q 240 303 265 304 q 190 299 215 301 q 142 181 164 242 q 104 54 119 121 q 175 24 136 33 q 256 14 214 14 q 429 49 340 14 q 593 148 518 85 q 715 296 668 211 q 761 481 761 381 q 717 630 761 575 q 601 708 672 685 q 450 732 531 732 q 315 719 385 732 q 179 688 244 707 q 148 696 165 685 q 131 721 131 707 q 151 743 131 736 q 231 763 190 758 q 331 774 271 768 q 358 775 344 775 q 386 775 372 775 q 506 767 447 775 q 617 739 565 758 q 777 621 728 697 q 826 457 826 544 q 775 262 826 349 q 640 113 724 175 q 456 18 556 51 q 258 -15 356 -15 z "},"Ẽ":{"ha":994,"x_min":33,"x_max":1003,"o":"m 349 -86 q 235 -76 290 -86 q 133 -44 179 -67 q 60 20 88 -21 q 33 125 33 61 q 67 242 33 194 q 154 320 100 290 q 272 367 208 350 q 395 391 335 383 q 501 400 456 399 q 426 522 460 449 q 393 665 393 596 q 399 714 393 690 q 417 758 404 738 q 461 801 431 783 q 528 828 492 818 q 594 838 564 838 q 679 810 646 838 q 742 756 713 783 q 759 740 749 749 q 782 726 769 731 q 795 724 788 725 q 808 719 803 724 q 828 690 819 710 q 843 656 838 671 q 851 597 851 633 q 845 546 851 569 q 826 522 839 522 q 808 535 819 522 q 785 587 792 554 q 764 646 778 619 q 728 713 747 682 q 681 765 708 743 q 648 790 669 778 q 599 803 626 803 q 564 796 578 803 q 495 732 515 776 q 475 635 475 688 q 496 508 475 571 q 543 411 517 444 q 577 401 550 403 q 615 396 604 399 q 647 386 638 394 q 657 368 657 378 q 639 342 657 353 q 615 335 632 335 q 563 344 592 335 q 514 357 533 353 q 418 343 472 356 q 308 308 364 331 q 203 251 251 285 q 126 176 156 218 q 94 83 96 133 q 138 -12 93 28 q 300 -53 182 -53 q 419 -43 356 -53 q 545 -17 483 -33 q 660 17 607 -1 q 746 53 713 35 q 810 91 772 65 q 884 150 847 117 q 945 219 921 183 q 969 288 969 254 q 969 294 969 290 q 968 301 969 299 q 974 307 967 307 q 983 304 981 307 q 1003 243 1003 276 q 972 156 1003 199 q 897 78 940 113 q 818 24 854 43 q 715 -22 775 -1 q 588 -56 654 -42 q 460 -78 522 -71 q 349 -86 397 -86 m 481 954 q 469 960 469 954 l 469 961 q 517 1022 493 993 q 574 1050 542 1050 q 612 1038 588 1050 q 663 1012 636 1025 q 713 999 690 999 q 735 1009 726 999 q 751 1029 744 1019 q 765 1039 758 1039 q 778 1035 778 1039 l 778 1032 q 740 981 764 1004 q 689 958 717 958 q 647 969 668 958 q 604 990 625 979 q 561 1000 583 1000 q 529 989 547 1000 q 498 966 511 978 q 481 954 485 954 z "},"F":{"ha":735,"x_min":13,"x_max":1029,"o":"m 125 408 q 78 431 104 414 q 32 476 51 449 q 13 536 13 503 q 18 567 13 551 q 19 576 18 568 q 21 590 19 585 q 92 705 36 660 q 228 775 147 750 q 396 806 308 800 q 431 808 414 807 q 463 808 447 808 q 622 797 550 808 q 765 772 694 785 q 919 757 836 760 q 955 790 938 779 q 982 801 972 800 q 993 803 986 803 q 1018 796 1007 803 q 1029 778 1029 789 q 1018 757 1029 768 q 990 735 1008 747 q 953 703 972 722 q 908 649 928 679 q 888 590 888 619 q 899 553 888 568 q 900 549 900 551 q 889 539 900 539 q 872 549 881 539 q 860 608 860 564 q 865 658 860 632 q 882 707 871 685 q 892 723 888 715 q 901 738 896 731 q 703 745 800 733 q 507 757 606 757 q 379 746 451 757 q 238 710 307 735 q 118 644 168 686 q 54 539 68 601 q 52 529 53 533 q 51 521 51 525 q 67 476 51 494 q 104 447 83 458 q 136 425 125 435 q 146 414 146 419 q 140 407 146 408 q 125 408 133 406 m 263 -37 q 246 -35 258 -37 q 222 -28 233 -32 q 210 -18 211 -24 q 224 61 207 10 q 272 175 242 113 q 333 297 301 238 q 276 293 296 293 q 253 303 265 293 q 242 329 242 313 q 257 353 242 343 q 291 369 272 364 q 318 375 310 375 q 343 362 336 375 q 357 349 350 349 l 363 349 q 399 418 383 388 q 425 467 415 449 q 436 506 436 490 q 435 516 436 513 q 433 522 435 519 q 454 567 436 539 q 499 622 472 594 q 555 669 525 650 q 613 688 585 688 q 642 681 621 688 q 679 661 663 675 q 693 625 696 647 q 676 632 683 632 q 594 592 639 632 q 504 487 550 551 q 417 350 458 422 q 464 356 440 353 q 511 363 488 358 q 615 376 561 369 q 717 383 668 383 q 735 381 725 383 q 744 374 744 379 q 738 366 744 371 q 715 354 732 361 q 638 336 693 346 q 515 317 582 326 q 388 301 447 308 q 325 178 353 236 q 283 86 297 121 q 275 61 278 72 q 272 43 272 50 q 286 24 272 24 q 307 31 296 24 q 328 50 318 39 q 356 84 343 68 q 378 97 368 100 q 379 93 379 96 q 371 74 379 85 q 361 61 363 63 q 334 24 350 47 q 300 -19 318 0 q 263 -37 282 -37 z "},"G":{"ha":1108,"x_min":103,"x_max":1121,"o":"m 392 -514 q 312 -486 342 -514 q 282 -411 282 -458 q 303 -327 282 -374 q 369 -229 324 -281 q 580 -51 464 -121 q 829 61 696 18 q 865 169 849 114 q 899 279 882 224 q 749 152 831 215 q 575 47 667 89 q 385 4 483 4 q 248 31 313 4 q 143 114 183 58 q 103 257 103 169 q 294 644 103 472 q 537 791 406 746 q 814 836 668 836 q 862 833 831 836 q 926 819 893 829 q 985 790 960 808 q 1014 742 1010 771 q 1015 732 1015 736 q 1015 724 1015 728 q 1010 699 1015 707 q 997 690 1004 690 q 983 713 983 690 q 959 770 981 750 q 906 797 938 790 q 843 804 875 804 q 720 783 792 804 q 569 723 649 761 q 413 633 490 685 q 274 519 336 581 q 174 389 211 457 q 136 251 136 321 q 199 113 136 156 q 360 71 263 71 q 560 104 454 71 q 696 163 639 128 q 804 245 753 199 q 914 347 856 292 q 979 429 939 411 q 1054 447 1019 447 q 1089 444 1074 447 q 1110 442 1104 442 q 1121 433 1121 440 q 1104 424 1121 421 q 1029 384 1061 426 q 978 283 997 342 q 943 183 960 235 q 907 81 926 132 q 1013 100 978 100 q 1035 96 1029 100 q 1040 85 1040 92 q 1031 76 1040 72 q 1013 79 1022 79 q 967 73 994 79 q 917 57 939 67 q 889 33 894 47 q 763 -222 829 -118 q 628 -391 696 -326 q 500 -485 561 -456 q 392 -514 439 -514 m 431 -478 q 532 -438 482 -478 q 628 -336 582 -399 q 713 -203 675 -274 q 779 -68 751 -132 q 821 35 807 -4 q 610 -65 707 -3 q 436 -222 513 -128 q 376 -318 394 -274 q 357 -397 357 -362 q 377 -456 357 -435 q 431 -478 397 -478 z "},"Ğ":{"ha":1108,"x_min":103,"x_max":1121,"o":"m 392 -514 q 312 -486 342 -514 q 282 -411 282 -458 q 303 -327 282 -374 q 369 -229 324 -281 q 580 -51 464 -121 q 829 61 696 18 q 865 169 849 114 q 899 279 882 224 q 749 152 831 215 q 575 47 667 89 q 385 4 483 4 q 248 31 313 4 q 143 114 183 58 q 103 257 103 169 q 294 644 103 472 q 537 791 406 746 q 814 836 668 836 q 862 833 831 836 q 926 819 893 829 q 985 790 960 808 q 1014 742 1010 771 q 1015 732 1015 736 q 1015 724 1015 728 q 1010 699 1015 707 q 997 690 1004 690 q 983 713 983 690 q 959 770 981 750 q 906 797 938 790 q 843 804 875 804 q 720 783 792 804 q 569 723 649 761 q 413 633 490 685 q 274 519 336 581 q 174 389 211 457 q 136 251 136 321 q 199 113 136 156 q 360 71 263 71 q 560 104 454 71 q 696 163 639 128 q 804 245 753 199 q 914 347 856 292 q 979 429 939 411 q 1054 447 1019 447 q 1089 444 1074 447 q 1110 442 1104 442 q 1121 433 1121 440 q 1104 424 1121 421 q 1029 384 1061 426 q 978 283 997 342 q 943 183 960 235 q 907 81 926 132 q 1013 100 978 100 q 1035 96 1029 100 q 1040 85 1040 92 q 1031 76 1040 72 q 1013 79 1022 79 q 967 73 994 79 q 917 57 939 67 q 889 33 894 47 q 763 -222 829 -118 q 628 -391 696 -326 q 500 -485 561 -456 q 392 -514 439 -514 m 431 -478 q 532 -438 482 -478 q 628 -336 582 -399 q 713 -203 675 -274 q 779 -68 751 -132 q 821 35 807 -4 q 610 -65 707 -3 q 436 -222 513 -128 q 376 -318 394 -274 q 357 -397 357 -362 q 377 -456 357 -435 q 431 -478 397 -478 m 735 933 q 663 956 693 933 q 632 1029 632 979 q 639 1060 632 1049 q 654 1072 646 1072 q 667 1067 661 1072 q 674 1056 674 1063 q 700 986 674 1010 q 763 963 726 963 q 827 988 792 963 q 881 1072 863 1014 q 890 1078 881 1078 q 910 1063 910 1078 q 848 967 896 1000 q 735 933 800 933 z "},"Ǧ":{"ha":1108,"x_min":103,"x_max":1121,"o":"m 392 -514 q 312 -486 342 -514 q 282 -411 282 -458 q 303 -327 282 -374 q 369 -229 324 -281 q 580 -51 464 -121 q 829 61 696 18 q 865 169 849 114 q 899 279 882 224 q 749 152 831 215 q 575 47 667 89 q 385 4 483 4 q 248 31 313 4 q 143 114 183 58 q 103 257 103 169 q 294 644 103 472 q 537 791 406 746 q 814 836 668 836 q 862 833 831 836 q 926 819 893 829 q 985 790 960 808 q 1014 742 1010 771 q 1015 732 1015 736 q 1015 724 1015 728 q 1010 699 1015 707 q 997 690 1004 690 q 983 713 983 690 q 959 770 981 750 q 906 797 938 790 q 843 804 875 804 q 720 783 792 804 q 569 723 649 761 q 413 633 490 685 q 274 519 336 581 q 174 389 211 457 q 136 251 136 321 q 199 113 136 156 q 360 71 263 71 q 560 104 454 71 q 696 163 639 128 q 804 245 753 199 q 914 347 856 292 q 979 429 939 411 q 1054 447 1019 447 q 1089 444 1074 447 q 1110 442 1104 442 q 1121 433 1121 440 q 1104 424 1121 421 q 1029 384 1061 426 q 978 283 997 342 q 943 183 960 235 q 907 81 926 132 q 1013 100 978 100 q 1035 96 1029 100 q 1040 85 1040 92 q 1031 76 1040 72 q 1013 79 1022 79 q 967 73 994 79 q 917 57 939 67 q 889 33 894 47 q 763 -222 829 -118 q 628 -391 696 -326 q 500 -485 561 -456 q 392 -514 439 -514 m 431 -478 q 532 -438 482 -478 q 628 -336 582 -399 q 713 -203 675 -274 q 779 -68 751 -132 q 821 35 807 -4 q 610 -65 707 -3 q 436 -222 513 -128 q 376 -318 394 -274 q 357 -397 357 -362 q 377 -456 357 -435 q 431 -478 397 -478 m 746 938 q 717 961 735 938 q 683 1012 699 985 q 660 1051 667 1039 q 651 1078 651 1071 q 663 1093 651 1090 q 694 1067 674 1088 q 735 1024 714 1046 q 768 988 757 1001 q 824 1025 792 1001 q 885 1068 856 1049 q 928 1088 915 1088 q 935 1082 935 1088 q 915 1058 935 1074 q 876 1026 901 1046 q 824 986 851 1007 q 776 951 797 965 q 746 938 754 938 z "},"Ĝ":{"ha":1108,"x_min":103,"x_max":1121,"o":"m 392 -514 q 312 -486 342 -514 q 282 -411 282 -458 q 303 -327 282 -374 q 369 -229 324 -281 q 580 -51 464 -121 q 829 61 696 18 q 865 169 849 114 q 899 279 882 224 q 749 152 831 215 q 575 47 667 89 q 385 4 483 4 q 248 31 313 4 q 143 114 183 58 q 103 257 103 169 q 294 644 103 472 q 537 791 406 746 q 814 836 668 836 q 862 833 831 836 q 926 819 893 829 q 985 790 960 808 q 1014 742 1010 771 q 1015 732 1015 736 q 1015 724 1015 728 q 1010 699 1015 707 q 997 690 1004 690 q 983 713 983 690 q 959 770 981 750 q 906 797 938 790 q 843 804 875 804 q 720 783 792 804 q 569 723 649 761 q 413 633 490 685 q 274 519 336 581 q 174 389 211 457 q 136 251 136 321 q 199 113 136 156 q 360 71 263 71 q 560 104 454 71 q 696 163 639 128 q 804 245 753 199 q 914 347 856 292 q 979 429 939 411 q 1054 447 1019 447 q 1089 444 1074 447 q 1110 442 1104 442 q 1121 433 1121 440 q 1104 424 1121 421 q 1029 384 1061 426 q 978 283 997 342 q 943 183 960 235 q 907 81 926 132 q 1013 100 978 100 q 1035 96 1029 100 q 1040 85 1040 92 q 1031 76 1040 72 q 1013 79 1022 79 q 967 73 994 79 q 917 57 939 67 q 889 33 894 47 q 763 -222 829 -118 q 628 -391 696 -326 q 500 -485 561 -456 q 392 -514 439 -514 m 431 -478 q 532 -438 482 -478 q 628 -336 582 -399 q 713 -203 675 -274 q 779 -68 751 -132 q 821 35 807 -4 q 610 -65 707 -3 q 436 -222 513 -128 q 376 -318 394 -274 q 357 -397 357 -362 q 377 -456 357 -435 q 431 -478 397 -478 m 792 1090 q 816 1065 803 1090 q 840 1008 829 1039 q 857 964 851 978 q 860 946 860 951 q 861 935 861 940 q 849 918 860 921 q 823 948 839 925 q 790 996 807 971 q 765 1035 774 1021 q 708 994 742 1021 q 645 947 675 968 q 603 925 615 925 q 597 931 597 925 q 619 957 599 940 q 659 992 633 969 q 713 1037 685 1014 q 763 1075 740 1060 q 792 1090 785 1090 z "},"Ģ":{"ha":1108,"x_min":103,"x_max":1121,"o":"m 392 -514 q 312 -486 342 -514 q 282 -411 282 -458 q 303 -327 282 -374 q 369 -229 324 -281 q 580 -51 464 -121 q 829 61 696 18 q 865 169 849 114 q 899 279 882 224 q 749 152 831 215 q 575 47 667 89 q 385 4 483 4 q 248 31 313 4 q 143 114 183 58 q 103 257 103 169 q 294 644 103 472 q 537 791 406 746 q 814 836 668 836 q 862 833 831 836 q 926 819 893 829 q 985 790 960 808 q 1014 742 1010 771 q 1015 732 1015 736 q 1015 724 1015 728 q 1010 699 1015 707 q 997 690 1004 690 q 983 713 983 690 q 959 770 981 750 q 906 797 938 790 q 843 804 875 804 q 720 783 792 804 q 569 723 649 761 q 413 633 490 685 q 274 519 336 581 q 174 389 211 457 q 136 251 136 321 q 199 113 136 156 q 360 71 263 71 q 560 104 454 71 q 696 163 639 128 q 804 245 753 199 q 914 347 856 292 q 979 429 939 411 q 1054 447 1019 447 q 1089 444 1074 447 q 1110 442 1104 442 q 1121 433 1121 440 q 1104 424 1121 421 q 1029 384 1061 426 q 978 283 997 342 q 943 183 960 235 q 907 81 926 132 q 1013 100 978 100 q 1035 96 1029 100 q 1040 85 1040 92 q 1031 76 1040 72 q 1013 79 1022 79 q 967 73 994 79 q 917 57 939 67 q 889 33 894 47 q 763 -222 829 -118 q 628 -391 696 -326 q 500 -485 561 -456 q 392 -514 439 -514 m 431 -478 q 532 -438 482 -478 q 628 -336 582 -399 q 713 -203 675 -274 q 779 -68 751 -132 q 821 35 807 -4 q 610 -65 707 -3 q 436 -222 513 -128 q 376 -318 394 -274 q 357 -397 357 -362 q 377 -456 357 -435 q 431 -478 397 -478 m 347 -736 q 340 -739 344 -739 q 335 -735 336 -739 q 335 -729 335 -731 q 344 -715 335 -728 q 361 -687 353 -701 q 383 -645 375 -665 q 392 -614 392 -625 q 387 -597 392 -603 q 382 -582 382 -592 q 410 -561 382 -561 q 438 -572 429 -561 q 446 -599 446 -583 q 427 -644 446 -615 q 385 -700 408 -674 q 347 -736 361 -726 z "},"Ġ":{"ha":1108,"x_min":103,"x_max":1121,"o":"m 392 -514 q 312 -486 342 -514 q 282 -411 282 -458 q 303 -327 282 -374 q 369 -229 324 -281 q 580 -51 464 -121 q 829 61 696 18 q 865 169 849 114 q 899 279 882 224 q 749 152 831 215 q 575 47 667 89 q 385 4 483 4 q 248 31 313 4 q 143 114 183 58 q 103 257 103 169 q 294 644 103 472 q 537 791 406 746 q 814 836 668 836 q 862 833 831 836 q 926 819 893 829 q 985 790 960 808 q 1014 742 1010 771 q 1015 732 1015 736 q 1015 724 1015 728 q 1010 699 1015 707 q 997 690 1004 690 q 983 713 983 690 q 959 770 981 750 q 906 797 938 790 q 843 804 875 804 q 720 783 792 804 q 569 723 649 761 q 413 633 490 685 q 274 519 336 581 q 174 389 211 457 q 136 251 136 321 q 199 113 136 156 q 360 71 263 71 q 560 104 454 71 q 696 163 639 128 q 804 245 753 199 q 914 347 856 292 q 979 429 939 411 q 1054 447 1019 447 q 1089 444 1074 447 q 1110 442 1104 442 q 1121 433 1121 440 q 1104 424 1121 421 q 1029 384 1061 426 q 978 283 997 342 q 943 183 960 235 q 907 81 926 132 q 1013 100 978 100 q 1035 96 1029 100 q 1040 85 1040 92 q 1031 76 1040 72 q 1013 79 1022 79 q 967 73 994 79 q 917 57 939 67 q 889 33 894 47 q 763 -222 829 -118 q 628 -391 696 -326 q 500 -485 561 -456 q 392 -514 439 -514 m 431 -478 q 532 -438 482 -478 q 628 -336 582 -399 q 713 -203 675 -274 q 779 -68 751 -132 q 821 35 807 -4 q 610 -65 707 -3 q 436 -222 513 -128 q 376 -318 394 -274 q 357 -397 357 -362 q 377 -456 357 -435 q 431 -478 397 -478 m 763 935 q 722 939 744 935 q 700 968 700 943 q 713 985 700 972 q 742 1013 726 999 q 761 1029 757 1026 q 803 1051 793 1051 q 815 1028 815 1051 l 815 1008 q 806 982 815 1000 q 784 949 796 964 q 763 935 772 935 z "},"ẞ":{"ha":553,"x_min":-428,"x_max":840,"o":"m 176 97 q 203 87 196 97 q 211 63 210 76 q 214 38 213 49 q 259 -34 224 -6 q 358 -62 294 -62 q 481 -40 426 -62 q 567 22 535 -18 q 599 111 599 61 q 582 184 599 146 q 529 261 565 222 q 461 329 499 297 q 397 388 424 361 q 369 435 369 415 q 392 463 369 451 q 428 478 414 474 q 508 505 463 489 q 601 542 554 521 q 688 590 649 564 q 750 649 728 617 q 769 683 761 665 q 776 717 776 700 q 765 747 776 732 q 700 771 754 761 q 664 776 685 775 q 619 778 643 778 q 564 779 590 778 q 554 778 561 778 q 470 740 514 778 q 380 636 426 701 q 288 490 333 571 q 198 323 242 408 q 115 158 154 238 q 42 15 75 78 q -14 -83 10 -49 q -101 -176 -53 -137 q -206 -232 -150 -214 q -293 -244 -249 -246 q -373 -219 -337 -242 q -425 -147 -408 -196 q -426 -123 -428 -135 q -418 -110 -424 -111 q -408 -114 -414 -108 q -397 -137 -403 -119 q -336 -196 -381 -185 q -247 -189 -300 -206 q -147 -136 -196 -172 q -58 -49 -97 -100 q -23 5 -44 -31 q 33 104 -1 40 q 119 272 67 168 q 247 531 172 376 q 302 627 268 572 q 374 732 336 682 q 444 810 411 782 q 461 822 447 817 q 492 833 479 833 q 504 832 497 833 q 576 836 535 836 q 696 825 644 836 q 803 772 765 810 q 840 699 840 735 q 811 614 839 650 q 738 552 783 578 q 637 508 692 526 q 528 476 582 489 q 431 451 475 463 q 547 374 489 417 q 642 282 604 332 q 681 172 681 232 q 666 103 681 139 q 619 28 651 68 q 503 -54 578 -24 q 344 -85 429 -85 q 213 -54 265 -85 q 150 40 160 -24 q 153 76 150 56 q 176 97 156 97 z "},"H":{"ha":1042,"x_min":-128,"x_max":1197,"o":"m -4 -186 q -81 -165 -47 -186 q -126 -100 -115 -143 q -128 -93 -128 -97 q -128 -86 -128 -89 q -118 -65 -128 -65 q -103 -92 -110 -65 q -62 -137 -90 -126 q -1 -147 -33 -147 q 114 -109 58 -147 q 217 -9 169 -71 q 305 124 265 53 q 374 260 344 194 q 421 372 403 326 q 385 376 403 375 q 349 378 367 376 q 331 378 339 378 q 313 379 322 379 q 224 370 268 379 q 147 337 181 361 q 96 265 113 313 q 89 236 89 249 q 96 211 89 225 q 100 200 100 206 q 86 189 100 189 q 71 199 76 189 q 60 237 64 214 q 57 285 56 260 q 91 383 63 349 q 163 429 119 417 q 257 442 207 442 q 349 436 303 442 q 440 424 394 431 q 483 548 464 486 q 519 663 503 610 q 431 608 481 626 q 339 585 382 590 l 338 585 q 325 594 325 585 q 342 608 325 607 q 424 640 382 613 q 502 709 465 667 q 560 801 539 751 q 579 813 563 808 q 613 818 596 818 q 639 814 628 818 q 647 801 650 810 q 582 631 621 735 q 494 413 543 528 q 664 376 579 396 q 828 347 749 357 q 885 467 856 407 q 938 589 914 526 q 946 613 944 603 q 947 628 947 622 q 947 638 947 635 q 944 644 946 642 q 961 689 946 661 q 1001 744 976 717 q 1056 791 1026 772 q 1111 810 1085 810 q 1140 803 1119 810 q 1179 784 1161 797 q 1196 749 1197 771 q 1187 753 1192 750 q 1179 756 1182 756 q 1114 722 1149 756 q 1044 636 1079 689 q 978 526 1010 583 q 924 419 947 468 q 888 342 900 369 q 943 346 911 342 q 1004 360 975 350 q 1047 392 1033 371 q 1056 397 1051 397 q 1064 391 1061 397 q 1061 376 1067 385 q 1011 337 1044 350 q 942 320 978 324 q 876 317 906 317 q 847 239 863 283 q 822 150 832 194 q 811 71 811 106 q 820 27 811 44 q 851 10 829 10 q 919 34 881 10 q 997 94 958 58 q 1067 166 1035 131 q 1117 224 1100 201 q 1125 226 1119 226 q 1133 223 1129 226 q 1133 211 1136 219 q 1107 174 1131 206 q 1042 97 1083 142 q 949 18 1003 53 q 835 -17 896 -17 q 769 13 788 -17 q 751 82 751 42 q 765 175 751 126 q 789 250 779 224 q 803 285 796 268 q 818 321 811 303 q 646 342 731 328 q 475 365 561 356 q 417 242 451 314 q 339 97 383 171 q 241 -42 294 22 q 126 -147 188 -107 q -4 -186 64 -186 z "},"Ħ":{"ha":733,"x_min":-128,"x_max":1197,"o":"m -4 -186 q -81 -165 -47 -186 q -126 -100 -115 -143 q -128 -93 -128 -97 q -128 -86 -128 -89 q -118 -65 -128 -65 q -103 -92 -110 -65 q -62 -137 -90 -126 q -1 -147 -33 -147 q 114 -109 58 -147 q 217 -9 169 -71 q 305 124 265 53 q 374 260 344 194 q 421 372 403 326 q 385 376 403 375 q 349 378 367 376 q 331 378 339 378 q 313 379 322 379 q 224 370 268 379 q 147 337 181 361 q 96 265 113 313 q 89 236 89 249 q 96 211 89 225 q 100 200 100 206 q 86 189 100 189 q 71 199 76 189 q 60 237 64 214 q 57 285 56 260 q 91 383 63 349 q 163 429 119 417 q 257 442 207 442 q 349 436 303 442 q 440 424 394 431 q 483 548 464 486 q 519 663 503 610 q 431 608 481 626 q 339 585 382 590 l 338 585 q 325 594 325 585 q 342 608 325 607 q 457 665 400 615 q 433 681 433 669 q 454 706 433 696 q 511 722 475 717 q 538 760 526 740 q 560 801 550 781 q 579 813 563 808 q 613 818 596 818 q 639 814 628 818 q 647 801 650 810 q 635 767 642 786 q 619 729 628 749 q 658 731 639 731 q 699 731 678 731 q 829 729 760 731 q 968 728 899 728 l 988 728 q 1047 785 1014 760 q 1111 810 1079 810 q 1140 803 1119 810 q 1179 784 1161 797 q 1196 749 1197 771 q 1187 753 1192 750 q 1179 756 1182 756 q 1110 717 1146 756 q 1129 707 1126 713 q 1117 697 1129 701 q 1085 689 1104 692 q 1024 602 1054 651 q 966 502 993 553 q 919 409 939 451 q 888 342 899 367 q 943 346 911 342 q 1004 360 975 350 q 1047 392 1033 371 q 1056 397 1051 397 q 1064 391 1061 397 q 1061 376 1067 385 q 1011 337 1044 350 q 942 320 978 324 q 876 317 906 317 q 847 239 863 283 q 822 150 832 194 q 811 71 811 106 q 820 27 811 44 q 851 10 829 10 q 919 34 881 10 q 997 94 958 58 q 1067 166 1035 131 q 1117 224 1100 201 q 1125 226 1119 226 q 1133 223 1129 226 q 1133 211 1136 219 q 1107 174 1131 206 q 1042 97 1083 142 q 949 18 1003 53 q 835 -17 896 -17 q 769 13 788 -17 q 751 82 751 42 q 765 175 751 126 q 789 250 779 224 q 803 285 796 268 q 818 321 811 303 q 646 342 731 328 q 475 365 561 356 q 417 242 451 314 q 339 97 383 171 q 241 -42 294 22 q 126 -147 188 -107 q -4 -186 64 -186 m 828 347 q 885 467 856 407 q 938 589 914 526 q 946 613 944 603 q 947 628 947 622 q 947 638 947 635 q 944 644 946 642 q 947 660 944 651 q 954 678 950 668 q 840 674 903 676 q 713 670 776 672 q 597 667 650 668 q 549 546 575 611 q 494 413 524 481 q 664 376 579 396 q 828 347 749 357 z "},"Ĥ":{"ha":1042,"x_min":-128,"x_max":1197,"o":"m -4 -186 q -81 -165 -47 -186 q -126 -100 -115 -143 q -128 -93 -128 -97 q -128 -86 -128 -89 q -118 -65 -128 -65 q -103 -92 -110 -65 q -62 -137 -90 -126 q -1 -147 -33 -147 q 114 -109 58 -147 q 217 -9 169 -71 q 305 124 265 53 q 374 260 344 194 q 421 372 403 326 q 385 376 403 375 q 349 378 367 376 q 331 378 339 378 q 313 379 322 379 q 224 370 268 379 q 147 337 181 361 q 96 265 113 313 q 89 236 89 249 q 96 211 89 225 q 100 200 100 206 q 86 189 100 189 q 71 199 76 189 q 60 237 64 214 q 57 285 56 260 q 91 383 63 349 q 163 429 119 417 q 257 442 207 442 q 349 436 303 442 q 440 424 394 431 q 483 548 464 486 q 519 663 503 610 q 431 608 481 626 q 339 585 382 590 l 338 585 q 325 594 325 585 q 342 608 325 607 q 424 640 382 613 q 502 709 465 667 q 560 801 539 751 q 579 813 563 808 q 613 818 596 818 q 639 814 628 818 q 647 801 650 810 q 582 631 621 735 q 494 413 543 528 q 664 376 579 396 q 828 347 749 357 q 885 467 856 407 q 938 589 914 526 q 946 613 944 603 q 947 628 947 622 q 947 638 947 635 q 944 644 946 642 q 961 689 946 661 q 1001 744 976 717 q 1056 791 1026 772 q 1111 810 1085 810 q 1140 803 1119 810 q 1179 784 1161 797 q 1196 749 1197 771 q 1187 753 1192 750 q 1179 756 1182 756 q 1114 722 1149 756 q 1044 636 1079 689 q 978 526 1010 583 q 924 419 947 468 q 888 342 900 369 q 943 346 911 342 q 1004 360 975 350 q 1047 392 1033 371 q 1056 397 1051 397 q 1064 391 1061 397 q 1061 376 1067 385 q 1011 337 1044 350 q 942 320 978 324 q 876 317 906 317 q 847 239 863 283 q 822 150 832 194 q 811 71 811 106 q 820 27 811 44 q 851 10 829 10 q 919 34 881 10 q 997 94 958 58 q 1067 166 1035 131 q 1117 224 1100 201 q 1125 226 1119 226 q 1133 223 1129 226 q 1133 211 1136 219 q 1107 174 1131 206 q 1042 97 1083 142 q 949 18 1003 53 q 835 -17 896 -17 q 769 13 788 -17 q 751 82 751 42 q 765 175 751 126 q 789 250 779 224 q 803 285 796 268 q 818 321 811 303 q 646 342 731 328 q 475 365 561 356 q 417 242 451 314 q 339 97 383 171 q 241 -42 294 22 q 126 -147 188 -107 q -4 -186 64 -186 m 901 1064 q 926 1038 913 1064 q 950 982 939 1013 q 967 938 961 951 q 970 919 969 925 q 971 908 971 914 q 958 892 969 894 q 933 922 949 899 q 900 969 917 944 q 875 1008 883 994 q 818 968 851 994 q 755 920 785 942 q 713 899 725 899 q 707 904 707 899 q 729 931 708 914 q 769 965 743 943 q 822 1010 794 988 q 872 1049 850 1033 q 901 1064 894 1064 z "},"I":{"ha":597,"x_min":11,"x_max":842,"o":"m 72 -12 q 27 -8 43 -12 q 11 15 11 -3 q 13 30 11 22 q 18 47 14 38 q 42 70 25 63 q 72 78 58 78 q 97 71 86 78 q 143 47 117 57 q 199 36 169 36 q 267 52 232 36 q 332 111 301 68 q 410 247 374 165 q 476 418 446 328 q 529 594 506 508 q 568 742 553 679 q 428 717 496 736 q 316 665 360 699 q 272 581 272 631 q 288 535 272 553 q 323 508 303 518 q 356 492 343 499 q 365 482 365 486 q 353 479 365 474 q 310 498 336 483 q 265 538 285 513 q 243 594 244 563 q 241 603 243 597 q 239 613 239 608 q 266 701 236 665 q 347 760 296 738 q 459 794 397 783 q 583 804 521 804 l 589 818 q 605 830 592 825 q 632 835 618 835 q 655 831 646 835 q 664 819 664 826 q 657 801 664 813 q 741 788 703 797 q 806 764 779 778 q 828 747 815 760 q 842 725 842 733 q 831 718 842 718 q 817 719 825 718 q 797 725 808 721 q 728 739 771 735 q 638 743 686 743 q 588 592 617 679 q 524 410 560 504 q 447 231 489 317 q 360 88 406 146 q 333 60 346 74 q 307 35 319 46 q 447 36 383 33 q 553 40 510 39 l 561 40 q 576 33 576 40 q 568 18 576 26 q 554 7 560 10 q 506 1 547 4 q 405 -5 465 -3 q 279 -9 344 -7 q 158 -12 214 -11 q 72 -12 103 -12 z "},"Ĳ":{"ha":967,"x_min":10,"x_max":1310,"o":"m 597 -144 q 513 -116 546 -144 q 481 -37 481 -87 q 481 -19 481 -28 q 483 -1 482 -11 q 386 -6 442 -4 q 272 -10 331 -8 q 163 -12 214 -11 q 81 -12 113 -12 q 30 -9 50 -12 q 10 14 10 -6 q 28 60 10 42 q 72 78 47 78 q 108 67 89 78 q 149 46 126 57 q 199 35 172 35 q 289 70 247 35 q 367 166 331 106 q 433 301 403 226 q 489 456 464 376 q 534 610 514 536 q 568 742 554 685 q 426 717 494 736 q 315 665 358 699 q 272 581 272 631 q 286 538 272 554 q 318 511 300 521 q 350 495 336 501 q 364 482 364 489 q 360 478 364 478 q 310 496 339 478 q 260 544 282 514 q 239 613 239 575 q 289 726 239 683 q 418 786 339 768 q 583 804 497 804 l 589 818 q 604 830 590 825 q 632 835 618 835 q 664 818 664 835 l 657 801 q 741 788 703 797 q 806 764 779 778 l 813 761 q 925 794 863 783 q 1050 804 988 804 q 1117 802 1085 804 q 1179 794 1149 800 q 1213 824 1194 813 q 1250 835 1231 835 q 1261 831 1257 835 q 1265 825 1265 828 q 1248 810 1265 814 q 1211 788 1231 807 q 1255 773 1232 782 q 1294 753 1278 764 q 1310 725 1310 742 q 1299 718 1310 718 q 1258 726 1289 718 q 1183 740 1228 735 q 1153 650 1168 701 q 1124 547 1138 599 q 1097 451 1111 496 q 1160 465 1131 460 q 1207 471 1189 471 q 1236 456 1236 471 q 1229 446 1236 446 q 1222 448 1228 446 q 1207 450 1217 450 q 1161 444 1188 450 q 1113 428 1135 439 q 1086 404 1092 418 q 966 147 1031 253 q 835 -22 901 42 q 707 -115 768 -86 q 597 -144 646 -144 m 368 33 q 496 38 440 33 q 584 173 526 111 q 716 285 642 235 q 870 372 790 335 q 1026 432 950 408 q 1055 519 1039 465 q 1093 634 1071 574 q 1142 743 1115 694 q 1062 740 1111 743 q 957 729 1013 738 q 852 703 901 721 q 772 655 803 685 q 740 581 740 625 q 754 538 740 554 q 786 511 768 521 q 818 495 804 501 q 832 482 832 489 q 826 478 832 478 q 775 497 803 478 q 727 550 747 517 q 707 622 707 583 q 723 685 707 658 q 765 733 739 713 q 707 741 740 739 q 638 743 674 743 q 594 607 619 685 q 536 444 568 529 q 468 278 504 358 q 391 133 432 197 q 307 35 350 69 q 338 34 322 35 q 368 33 354 33 m 625 -108 q 712 -76 667 -108 q 801 10 757 -44 q 885 131 844 64 q 959 269 925 199 q 1017 406 993 340 q 835 323 928 376 q 671 198 743 269 q 567 40 599 126 q 575 33 575 39 q 564 10 575 21 q 553 -28 553 -1 q 573 -86 553 -64 q 625 -108 593 -108 z "},"Í":{"ha":597,"x_min":11,"x_max":842,"o":"m 72 -12 q 27 -8 43 -12 q 11 15 11 -3 q 13 30 11 22 q 18 47 14 38 q 42 70 25 63 q 72 78 58 78 q 97 71 86 78 q 143 47 117 57 q 199 36 169 36 q 267 52 232 36 q 332 111 301 68 q 410 247 374 165 q 476 418 446 328 q 529 594 506 508 q 568 742 553 679 q 428 717 496 736 q 316 665 360 699 q 272 581 272 631 q 288 535 272 553 q 323 508 303 518 q 356 492 343 499 q 365 482 365 486 q 353 479 365 474 q 310 498 336 483 q 265 538 285 513 q 243 594 244 563 q 241 603 243 597 q 239 613 239 608 q 266 701 236 665 q 347 760 296 738 q 459 794 397 783 q 583 804 521 804 l 589 818 q 605 830 592 825 q 632 835 618 835 q 655 831 646 835 q 664 819 664 826 q 657 801 664 813 q 741 788 703 797 q 806 764 779 778 q 828 747 815 760 q 842 725 842 733 q 831 718 842 718 q 817 719 825 718 q 797 725 808 721 q 728 739 771 735 q 638 743 686 743 q 588 592 617 679 q 524 410 560 504 q 447 231 489 317 q 360 88 406 146 q 333 60 346 74 q 307 35 319 46 q 447 36 383 33 q 553 40 510 39 l 561 40 q 576 33 576 40 q 568 18 576 26 q 554 7 560 10 q 506 1 547 4 q 405 -5 465 -3 q 279 -9 344 -7 q 158 -12 214 -11 q 72 -12 103 -12 m 565 931 q 554 936 554 931 q 575 956 554 943 q 619 985 589 964 q 686 1035 649 1006 q 718 1061 706 1051 q 736 1071 731 1071 q 747 1071 740 1071 q 760 1064 753 1071 q 775 1044 775 1053 q 772 1034 775 1039 q 765 1024 769 1029 q 726 1000 756 1015 q 663 969 697 985 q 600 942 628 953 q 565 931 572 931 z "},"Ĭ":{"ha":597,"x_min":11,"x_max":842,"o":"m 72 -12 q 27 -8 43 -12 q 11 15 11 -3 q 13 30 11 22 q 18 47 14 38 q 42 70 25 63 q 72 78 58 78 q 97 71 86 78 q 143 47 117 57 q 199 36 169 36 q 267 52 232 36 q 332 111 301 68 q 410 247 374 165 q 476 418 446 328 q 529 594 506 508 q 568 742 553 679 q 428 717 496 736 q 316 665 360 699 q 272 581 272 631 q 288 535 272 553 q 323 508 303 518 q 356 492 343 499 q 365 482 365 486 q 353 479 365 474 q 310 498 336 483 q 265 538 285 513 q 243 594 244 563 q 241 603 243 597 q 239 613 239 608 q 266 701 236 665 q 347 760 296 738 q 459 794 397 783 q 583 804 521 804 l 589 818 q 605 830 592 825 q 632 835 618 835 q 655 831 646 835 q 664 819 664 826 q 657 801 664 813 q 741 788 703 797 q 806 764 779 778 q 828 747 815 760 q 842 725 842 733 q 831 718 842 718 q 817 719 825 718 q 797 725 808 721 q 728 739 771 735 q 638 743 686 743 q 588 592 617 679 q 524 410 560 504 q 447 231 489 317 q 360 88 406 146 q 333 60 346 74 q 307 35 319 46 q 447 36 383 33 q 553 40 510 39 l 561 40 q 576 33 576 40 q 568 18 576 26 q 554 7 560 10 q 506 1 547 4 q 405 -5 465 -3 q 279 -9 344 -7 q 158 -12 214 -11 q 72 -12 103 -12 m 636 932 q 564 955 594 932 q 533 1028 533 978 q 540 1059 533 1047 q 556 1071 547 1071 q 569 1066 563 1071 q 575 1054 575 1061 q 601 985 575 1008 q 664 961 628 961 q 728 987 693 961 q 782 1071 764 1013 q 792 1076 782 1076 q 811 1061 811 1076 q 749 965 797 999 q 636 932 701 932 z "},"Î":{"ha":597,"x_min":11,"x_max":842,"o":"m 72 -12 q 27 -8 43 -12 q 11 15 11 -3 q 13 30 11 22 q 18 47 14 38 q 42 70 25 63 q 72 78 58 78 q 97 71 86 78 q 143 47 117 57 q 199 36 169 36 q 267 52 232 36 q 332 111 301 68 q 410 247 374 165 q 476 418 446 328 q 529 594 506 508 q 568 742 553 679 q 428 717 496 736 q 316 665 360 699 q 272 581 272 631 q 288 535 272 553 q 323 508 303 518 q 356 492 343 499 q 365 482 365 486 q 353 479 365 474 q 310 498 336 483 q 265 538 285 513 q 243 594 244 563 q 241 603 243 597 q 239 613 239 608 q 266 701 236 665 q 347 760 296 738 q 459 794 397 783 q 583 804 521 804 l 589 818 q 605 830 592 825 q 632 835 618 835 q 655 831 646 835 q 664 819 664 826 q 657 801 664 813 q 741 788 703 797 q 806 764 779 778 q 828 747 815 760 q 842 725 842 733 q 831 718 842 718 q 817 719 825 718 q 797 725 808 721 q 728 739 771 735 q 638 743 686 743 q 588 592 617 679 q 524 410 560 504 q 447 231 489 317 q 360 88 406 146 q 333 60 346 74 q 307 35 319 46 q 447 36 383 33 q 553 40 510 39 l 561 40 q 576 33 576 40 q 568 18 576 26 q 554 7 560 10 q 506 1 547 4 q 405 -5 465 -3 q 279 -9 344 -7 q 158 -12 214 -11 q 72 -12 103 -12 m 693 1089 q 717 1063 704 1089 q 742 1007 731 1038 q 758 963 753 976 q 762 944 761 950 q 763 933 763 939 q 750 917 761 919 q 724 947 740 924 q 692 994 708 969 q 667 1033 675 1019 q 610 993 643 1019 q 547 945 576 967 q 504 924 517 924 q 499 929 499 924 q 521 956 500 939 q 560 990 535 968 q 614 1035 586 1013 q 664 1074 642 1058 q 693 1089 686 1089 z "},"Ȉ":{"ha":597,"x_min":11,"x_max":842,"o":"m 72 -12 q 27 -8 43 -12 q 11 15 11 -3 q 13 30 11 22 q 18 47 14 38 q 42 70 25 63 q 72 78 58 78 q 97 71 86 78 q 143 47 117 57 q 199 36 169 36 q 267 52 232 36 q 332 111 301 68 q 410 247 374 165 q 476 418 446 328 q 529 594 506 508 q 568 742 553 679 q 428 717 496 736 q 316 665 360 699 q 272 581 272 631 q 288 535 272 553 q 323 508 303 518 q 356 492 343 499 q 365 482 365 486 q 353 479 365 474 q 310 498 336 483 q 265 538 285 513 q 243 594 244 563 q 241 603 243 597 q 239 613 239 608 q 266 701 236 665 q 347 760 296 738 q 459 794 397 783 q 583 804 521 804 l 589 818 q 605 830 592 825 q 632 835 618 835 q 655 831 646 835 q 664 819 664 826 q 657 801 664 813 q 741 788 703 797 q 806 764 779 778 q 828 747 815 760 q 842 725 842 733 q 831 718 842 718 q 817 719 825 718 q 797 725 808 721 q 728 739 771 735 q 638 743 686 743 q 588 592 617 679 q 524 410 560 504 q 447 231 489 317 q 360 88 406 146 q 333 60 346 74 q 307 35 319 46 q 447 36 383 33 q 553 40 510 39 l 561 40 q 576 33 576 40 q 568 18 576 26 q 554 7 560 10 q 506 1 547 4 q 405 -5 465 -3 q 279 -9 344 -7 q 158 -12 214 -11 q 72 -12 103 -12 m 549 921 q 521 943 542 924 q 475 989 500 963 q 430 1038 450 1015 q 404 1072 410 1061 q 398 1083 400 1078 q 397 1093 396 1088 q 419 1108 401 1104 q 440 1108 432 1113 q 456 1092 447 1107 q 476 1056 464 1078 q 519 988 500 1017 q 549 947 539 958 q 561 922 564 931 q 549 921 560 917 m 674 921 q 646 943 667 924 q 600 989 625 963 q 555 1038 575 1015 q 529 1072 535 1061 q 523 1083 525 1078 q 522 1093 521 1088 q 544 1108 526 1104 q 565 1108 557 1113 q 581 1092 572 1107 q 601 1056 589 1078 q 644 988 625 1017 q 674 947 664 958 q 686 922 689 931 q 674 921 685 917 z "},"Ï":{"ha":597,"x_min":11,"x_max":842,"o":"m 72 -12 q 27 -8 43 -12 q 11 15 11 -3 q 13 30 11 22 q 18 47 14 38 q 42 70 25 63 q 72 78 58 78 q 97 71 86 78 q 143 47 117 57 q 199 36 169 36 q 267 52 232 36 q 332 111 301 68 q 410 247 374 165 q 476 418 446 328 q 529 594 506 508 q 568 742 553 679 q 428 717 496 736 q 316 665 360 699 q 272 581 272 631 q 288 535 272 553 q 323 508 303 518 q 356 492 343 499 q 365 482 365 486 q 353 479 365 474 q 310 498 336 483 q 265 538 285 513 q 243 594 244 563 q 241 603 243 597 q 239 613 239 608 q 266 701 236 665 q 347 760 296 738 q 459 794 397 783 q 583 804 521 804 l 589 818 q 605 830 592 825 q 632 835 618 835 q 655 831 646 835 q 664 819 664 826 q 657 801 664 813 q 741 788 703 797 q 806 764 779 778 q 828 747 815 760 q 842 725 842 733 q 831 718 842 718 q 817 719 825 718 q 797 725 808 721 q 728 739 771 735 q 638 743 686 743 q 588 592 617 679 q 524 410 560 504 q 447 231 489 317 q 360 88 406 146 q 333 60 346 74 q 307 35 319 46 q 447 36 383 33 q 553 40 510 39 l 561 40 q 576 33 576 40 q 568 18 576 26 q 554 7 560 10 q 506 1 547 4 q 405 -5 465 -3 q 279 -9 344 -7 q 158 -12 214 -11 q 72 -12 103 -12 m 575 932 q 544 935 560 932 q 528 954 528 938 q 542 970 528 958 q 574 994 557 982 q 593 1010 590 1007 q 617 1025 610 1025 q 619 1022 619 1025 q 615 1006 619 1017 q 610 986 610 996 q 597 953 610 975 q 575 932 583 932 m 714 932 q 683 935 699 932 q 668 954 668 938 q 683 970 668 958 q 714 994 697 982 q 733 1010 731 1007 q 757 1025 750 1025 q 758 1022 758 1025 q 754 1006 758 1017 q 750 986 750 996 q 736 953 750 975 q 714 932 722 932 z "},"İ":{"ha":597,"x_min":11,"x_max":842,"o":"m 72 -12 q 27 -8 43 -12 q 11 15 11 -3 q 13 30 11 22 q 18 47 14 38 q 42 70 25 63 q 72 78 58 78 q 97 71 86 78 q 143 47 117 57 q 199 36 169 36 q 267 52 232 36 q 332 111 301 68 q 410 247 374 165 q 476 418 446 328 q 529 594 506 508 q 568 742 553 679 q 428 717 496 736 q 316 665 360 699 q 272 581 272 631 q 288 535 272 553 q 323 508 303 518 q 356 492 343 499 q 365 482 365 486 q 353 479 365 474 q 310 498 336 483 q 265 538 285 513 q 243 594 244 563 q 241 603 243 597 q 239 613 239 608 q 266 701 236 665 q 347 760 296 738 q 459 794 397 783 q 583 804 521 804 l 589 818 q 605 830 592 825 q 632 835 618 835 q 655 831 646 835 q 664 819 664 826 q 657 801 664 813 q 741 788 703 797 q 806 764 779 778 q 828 747 815 760 q 842 725 842 733 q 831 718 842 718 q 817 719 825 718 q 797 725 808 721 q 728 739 771 735 q 638 743 686 743 q 588 592 617 679 q 524 410 560 504 q 447 231 489 317 q 360 88 406 146 q 333 60 346 74 q 307 35 319 46 q 447 36 383 33 q 553 40 510 39 l 561 40 q 576 33 576 40 q 568 18 576 26 q 554 7 560 10 q 506 1 547 4 q 405 -5 465 -3 q 279 -9 344 -7 q 158 -12 214 -11 q 72 -12 103 -12 m 664 933 q 624 938 646 933 q 601 967 601 942 q 615 984 601 971 q 643 1011 628 997 q 663 1028 658 1025 q 704 1050 694 1050 q 717 1026 717 1050 l 717 1007 q 707 981 717 999 q 685 948 697 963 q 664 933 674 933 z "},"Ị":{"ha":597,"x_min":11,"x_max":842,"o":"m 72 -12 q 27 -8 43 -12 q 11 15 11 -3 q 13 30 11 22 q 18 47 14 38 q 42 70 25 63 q 72 78 58 78 q 97 71 86 78 q 143 47 117 57 q 199 36 169 36 q 267 52 232 36 q 332 111 301 68 q 410 247 374 165 q 476 418 446 328 q 529 594 506 508 q 568 742 553 679 q 428 717 496 736 q 316 665 360 699 q 272 581 272 631 q 288 535 272 553 q 323 508 303 518 q 356 492 343 499 q 365 482 365 486 q 353 479 365 474 q 310 498 336 483 q 265 538 285 513 q 243 594 244 563 q 241 603 243 597 q 239 613 239 608 q 266 701 236 665 q 347 760 296 738 q 459 794 397 783 q 583 804 521 804 l 589 818 q 605 830 592 825 q 632 835 618 835 q 655 831 646 835 q 664 819 664 826 q 657 801 664 813 q 741 788 703 797 q 806 764 779 778 q 828 747 815 760 q 842 725 842 733 q 831 718 842 718 q 817 719 825 718 q 797 725 808 721 q 728 739 771 735 q 638 743 686 743 q 588 592 617 679 q 524 410 560 504 q 447 231 489 317 q 360 88 406 146 q 333 60 346 74 q 307 35 319 46 q 447 36 383 33 q 553 40 510 39 l 561 40 q 576 33 576 40 q 568 18 576 26 q 554 7 560 10 q 506 1 547 4 q 405 -5 465 -3 q 279 -9 344 -7 q 158 -12 214 -11 q 72 -12 103 -12 m 236 -186 q 201 -183 221 -186 q 182 -158 182 -179 q 194 -144 182 -156 q 219 -120 206 -132 q 235 -106 232 -108 q 269 -87 261 -87 q 281 -107 281 -87 l 281 -124 q 273 -146 281 -131 q 255 -174 265 -161 q 236 -186 244 -186 z "},"Ì":{"ha":597,"x_min":11,"x_max":842,"o":"m 72 -12 q 27 -8 43 -12 q 11 15 11 -3 q 13 30 11 22 q 18 47 14 38 q 42 70 25 63 q 72 78 58 78 q 97 71 86 78 q 143 47 117 57 q 199 36 169 36 q 267 52 232 36 q 332 111 301 68 q 410 247 374 165 q 476 418 446 328 q 529 594 506 508 q 568 742 553 679 q 428 717 496 736 q 316 665 360 699 q 272 581 272 631 q 288 535 272 553 q 323 508 303 518 q 356 492 343 499 q 365 482 365 486 q 353 479 365 474 q 310 498 336 483 q 265 538 285 513 q 243 594 244 563 q 241 603 243 597 q 239 613 239 608 q 266 701 236 665 q 347 760 296 738 q 459 794 397 783 q 583 804 521 804 l 589 818 q 605 830 592 825 q 632 835 618 835 q 655 831 646 835 q 664 819 664 826 q 657 801 664 813 q 741 788 703 797 q 806 764 779 778 q 828 747 815 760 q 842 725 842 733 q 831 718 842 718 q 817 719 825 718 q 797 725 808 721 q 728 739 771 735 q 638 743 686 743 q 588 592 617 679 q 524 410 560 504 q 447 231 489 317 q 360 88 406 146 q 333 60 346 74 q 307 35 319 46 q 447 36 383 33 q 553 40 510 39 l 561 40 q 576 33 576 40 q 568 18 576 26 q 554 7 560 10 q 506 1 547 4 q 405 -5 465 -3 q 279 -9 344 -7 q 158 -12 214 -11 q 72 -12 103 -12 m 701 932 q 665 943 693 932 q 604 970 638 954 q 542 1001 571 986 q 504 1025 514 1017 q 494 1033 499 1029 q 490 1043 490 1038 q 506 1067 490 1056 q 526 1075 517 1075 q 547 1064 533 1075 q 581 1036 561 1053 q 648 985 618 1007 q 692 957 678 964 q 713 938 713 947 q 701 932 713 932 z "},"Ỉ":{"ha":597,"x_min":11,"x_max":842,"o":"m 72 -12 q 27 -8 43 -12 q 11 15 11 -3 q 13 30 11 22 q 18 47 14 38 q 42 70 25 63 q 72 78 58 78 q 97 71 86 78 q 143 47 117 57 q 199 36 169 36 q 267 52 232 36 q 332 111 301 68 q 410 247 374 165 q 476 418 446 328 q 529 594 506 508 q 568 742 553 679 q 428 717 496 736 q 316 665 360 699 q 272 581 272 631 q 288 535 272 553 q 323 508 303 518 q 356 492 343 499 q 365 482 365 486 q 353 479 365 474 q 310 498 336 483 q 265 538 285 513 q 243 594 244 563 q 241 603 243 597 q 239 613 239 608 q 266 701 236 665 q 347 760 296 738 q 459 794 397 783 q 583 804 521 804 l 589 818 q 605 830 592 825 q 632 835 618 835 q 655 831 646 835 q 664 819 664 826 q 657 801 664 813 q 741 788 703 797 q 806 764 779 778 q 828 747 815 760 q 842 725 842 733 q 831 718 842 718 q 817 719 825 718 q 797 725 808 721 q 728 739 771 735 q 638 743 686 743 q 588 592 617 679 q 524 410 560 504 q 447 231 489 317 q 360 88 406 146 q 333 60 346 74 q 307 35 319 46 q 447 36 383 33 q 553 40 510 39 l 561 40 q 576 33 576 40 q 568 18 576 26 q 554 7 560 10 q 506 1 547 4 q 405 -5 465 -3 q 279 -9 344 -7 q 158 -12 214 -11 q 72 -12 103 -12 m 671 931 q 658 926 663 926 q 651 932 651 926 q 657 943 651 938 q 695 994 676 965 q 714 1051 714 1024 q 701 1083 714 1072 q 671 1093 689 1093 q 625 1085 642 1093 q 606 1078 608 1078 q 599 1086 597 1078 q 621 1103 601 1094 q 663 1119 640 1113 q 696 1126 685 1126 q 740 1112 719 1126 q 761 1069 761 1097 q 746 1008 761 1036 q 710 959 731 979 q 671 931 689 939 z "},"Ȋ":{"ha":597,"x_min":11,"x_max":842,"o":"m 72 -12 q 27 -8 43 -12 q 11 15 11 -3 q 13 30 11 22 q 18 47 14 38 q 42 70 25 63 q 72 78 58 78 q 97 71 86 78 q 143 47 117 57 q 199 36 169 36 q 267 52 232 36 q 332 111 301 68 q 410 247 374 165 q 476 418 446 328 q 529 594 506 508 q 568 742 553 679 q 428 717 496 736 q 316 665 360 699 q 272 581 272 631 q 288 535 272 553 q 323 508 303 518 q 356 492 343 499 q 365 482 365 486 q 353 479 365 474 q 310 498 336 483 q 265 538 285 513 q 243 594 244 563 q 241 603 243 597 q 239 613 239 608 q 266 701 236 665 q 347 760 296 738 q 459 794 397 783 q 583 804 521 804 l 589 818 q 605 830 592 825 q 632 835 618 835 q 655 831 646 835 q 664 819 664 826 q 657 801 664 813 q 741 788 703 797 q 806 764 779 778 q 828 747 815 760 q 842 725 842 733 q 831 718 842 718 q 817 719 825 718 q 797 725 808 721 q 728 739 771 735 q 638 743 686 743 q 588 592 617 679 q 524 410 560 504 q 447 231 489 317 q 360 88 406 146 q 333 60 346 74 q 307 35 319 46 q 447 36 383 33 q 553 40 510 39 l 561 40 q 576 33 576 40 q 568 18 576 26 q 554 7 560 10 q 506 1 547 4 q 405 -5 465 -3 q 279 -9 344 -7 q 158 -12 214 -11 q 72 -12 103 -12 m 686 1074 q 758 1051 728 1074 q 789 978 789 1028 q 782 947 789 958 q 767 935 775 935 q 754 940 761 935 q 747 951 747 946 q 721 1021 747 997 q 658 1044 694 1044 q 594 1019 629 1044 q 540 935 560 993 q 531 929 540 929 q 511 944 511 929 q 573 1040 525 1007 q 686 1074 621 1074 z "},"Ī":{"ha":597,"x_min":11,"x_max":842,"o":"m 72 -12 q 27 -8 43 -12 q 11 15 11 -3 q 13 30 11 22 q 18 47 14 38 q 42 70 25 63 q 72 78 58 78 q 97 71 86 78 q 143 47 117 57 q 199 36 169 36 q 267 52 232 36 q 332 111 301 68 q 410 247 374 165 q 476 418 446 328 q 529 594 506 508 q 568 742 553 679 q 428 717 496 736 q 316 665 360 699 q 272 581 272 631 q 288 535 272 553 q 323 508 303 518 q 356 492 343 499 q 365 482 365 486 q 353 479 365 474 q 310 498 336 483 q 265 538 285 513 q 243 594 244 563 q 241 603 243 597 q 239 613 239 608 q 266 701 236 665 q 347 760 296 738 q 459 794 397 783 q 583 804 521 804 l 589 818 q 605 830 592 825 q 632 835 618 835 q 655 831 646 835 q 664 819 664 826 q 657 801 664 813 q 741 788 703 797 q 806 764 779 778 q 828 747 815 760 q 842 725 842 733 q 831 718 842 718 q 817 719 825 718 q 797 725 808 721 q 728 739 771 735 q 638 743 686 743 q 588 592 617 679 q 524 410 560 504 q 447 231 489 317 q 360 88 406 146 q 333 60 346 74 q 307 35 319 46 q 447 36 383 33 q 553 40 510 39 l 561 40 q 576 33 576 40 q 568 18 576 26 q 554 7 560 10 q 506 1 547 4 q 405 -5 465 -3 q 279 -9 344 -7 q 158 -12 214 -11 q 72 -12 103 -12 m 556 928 q 521 940 521 928 q 556 970 521 964 q 646 976 592 976 q 706 976 674 976 q 771 975 739 975 q 801 972 786 975 q 817 960 817 969 q 806 947 818 951 q 779 940 793 942 q 761 938 765 939 q 690 934 729 936 q 615 930 651 932 q 556 928 579 928 z "},"Į":{"ha":597,"x_min":11,"x_max":842,"o":"m 72 -12 q 27 -8 43 -12 q 11 15 11 -3 q 13 30 11 22 q 18 47 14 38 q 42 70 25 63 q 72 78 58 78 q 97 71 86 78 q 143 47 117 57 q 199 36 169 36 q 267 52 232 36 q 332 111 301 68 q 410 247 374 165 q 476 418 446 328 q 529 594 506 508 q 568 742 553 679 q 428 717 496 736 q 316 665 360 699 q 272 581 272 631 q 288 535 272 553 q 323 508 303 518 q 356 492 343 499 q 365 482 365 486 q 353 479 365 474 q 310 498 336 483 q 265 538 285 513 q 243 594 244 563 q 241 603 243 597 q 239 613 239 608 q 266 701 236 665 q 347 760 296 738 q 459 794 397 783 q 583 804 521 804 l 589 818 q 605 830 592 825 q 632 835 618 835 q 655 831 646 835 q 664 819 664 826 q 657 801 664 813 q 741 788 703 797 q 806 764 779 778 q 828 747 815 760 q 842 725 842 733 q 831 718 842 718 q 817 719 825 718 q 797 725 808 721 q 728 739 771 735 q 638 743 686 743 q 588 592 617 679 q 524 410 560 504 q 447 231 489 317 q 360 88 406 146 q 333 60 346 74 q 307 35 319 46 q 447 36 383 33 q 553 40 510 39 l 561 40 q 576 33 576 40 q 568 18 576 26 q 554 7 560 10 q 506 1 547 4 q 405 -5 465 -3 q 279 -9 344 -7 q 158 -12 214 -11 q 72 -12 103 -12 m 128 -307 q 72 -283 100 -307 q 43 -224 43 -258 q 61 -162 43 -193 q 110 -107 79 -131 q 177 -53 142 -81 q 240 -8 213 -26 q 278 11 268 11 q 290 7 290 11 l 288 6 q 230 -42 267 -12 q 158 -108 193 -72 q 132 -144 149 -119 q 101 -198 115 -169 q 88 -251 88 -226 q 94 -276 88 -261 q 111 -290 100 -290 q 149 -273 126 -290 q 196 -232 172 -256 q 238 -187 219 -208 q 264 -161 257 -167 q 276 -154 274 -154 q 282 -160 282 -154 q 281 -166 282 -161 q 276 -175 281 -171 q 259 -203 272 -182 q 226 -248 246 -224 q 182 -290 207 -272 q 128 -307 157 -307 z "},"Ĩ":{"ha":597,"x_min":11,"x_max":850,"o":"m 490 922 q 478 929 478 922 l 478 931 q 535 1003 504 969 q 604 1038 565 1038 q 649 1022 621 1038 q 710 990 678 1006 q 769 975 743 975 q 799 988 788 975 q 818 1013 810 1000 q 836 1025 826 1025 q 850 1018 850 1025 q 805 957 833 983 q 743 931 776 931 q 692 942 718 931 q 640 965 665 954 q 589 976 614 976 q 549 963 571 976 q 511 936 528 950 q 490 922 494 922 m 72 -12 q 27 -8 43 -12 q 11 15 11 -3 q 13 30 11 22 q 18 47 14 38 q 42 70 25 63 q 72 78 58 78 q 97 71 86 78 q 143 47 117 57 q 199 36 169 36 q 267 52 232 36 q 332 111 301 68 q 410 247 374 165 q 476 418 446 328 q 529 594 506 508 q 568 742 553 679 q 428 717 496 736 q 316 665 360 699 q 272 581 272 631 q 288 535 272 553 q 323 508 303 518 q 356 492 343 499 q 365 482 365 486 q 353 479 365 474 q 310 498 336 483 q 265 538 285 513 q 243 594 244 563 q 241 603 243 597 q 239 613 239 608 q 266 701 236 665 q 347 760 296 738 q 459 794 397 783 q 583 804 521 804 l 589 818 q 605 830 592 825 q 632 835 618 835 q 655 831 646 835 q 664 819 664 826 q 657 801 664 813 q 741 788 703 797 q 806 764 779 778 q 828 747 815 760 q 842 725 842 733 q 831 718 842 718 q 817 719 825 718 q 797 725 808 721 q 728 739 771 735 q 638 743 686 743 q 588 592 617 679 q 524 410 560 504 q 447 231 489 317 q 360 88 406 146 q 333 60 346 74 q 307 35 319 46 q 447 36 383 33 q 553 40 510 39 l 561 40 q 576 33 576 40 q 568 18 576 26 q 554 7 560 10 q 506 1 547 4 q 405 -5 465 -3 q 279 -9 344 -7 q 158 -12 214 -11 q 72 -12 103 -12 z "},"J":{"ha":796,"x_min":47,"x_max":876,"o":"m 164 -146 q 79 -116 111 -146 q 47 -36 47 -86 q 67 46 47 0 q 132 143 88 92 q 342 321 226 253 q 593 432 458 389 q 622 519 606 465 q 660 634 638 574 q 708 743 682 694 q 576 738 646 746 q 445 712 507 731 q 345 660 383 693 q 307 581 307 628 q 323 535 307 553 q 359 508 339 518 q 390 492 379 499 q 400 482 400 486 q 386 479 400 475 q 307 527 340 489 q 274 613 274 565 q 300 701 271 665 q 379 760 329 738 q 492 794 429 783 q 618 804 554 804 q 685 802 653 804 q 746 794 717 800 q 779 824 761 813 q 817 835 797 835 q 832 825 832 835 q 817 811 832 814 q 778 788 797 808 q 812 776 796 782 q 842 764 828 771 q 863 746 850 760 q 876 725 876 732 q 867 718 876 718 q 853 719 861 718 q 832 725 844 721 q 750 740 799 736 q 719 650 735 701 q 691 547 704 599 q 664 451 678 496 q 775 471 735 471 q 797 467 792 471 q 803 456 803 463 q 793 447 803 443 q 774 450 785 450 q 728 444 754 450 q 680 428 701 439 q 653 404 658 418 q 533 147 597 253 q 401 -23 468 42 q 274 -117 335 -87 q 164 -146 213 -146 m 192 -107 q 294 -67 243 -107 q 390 35 344 -28 q 475 168 436 97 q 542 303 514 239 q 583 406 569 367 q 372 306 469 368 q 199 149 275 243 q 138 52 157 97 q 119 -26 119 7 q 139 -85 119 -64 q 192 -107 158 -107 z "},"Ĵ":{"ha":796,"x_min":47,"x_max":896,"o":"m 164 -146 q 79 -116 111 -146 q 47 -36 47 -86 q 67 46 47 0 q 132 143 88 92 q 342 321 226 253 q 593 432 458 389 q 622 519 606 465 q 660 634 638 574 q 708 743 682 694 q 576 738 646 746 q 445 712 507 731 q 345 660 383 693 q 307 581 307 628 q 323 535 307 553 q 359 508 339 518 q 390 492 379 499 q 400 482 400 486 q 386 479 400 475 q 307 527 340 489 q 274 613 274 565 q 300 701 271 665 q 379 760 329 738 q 492 794 429 783 q 618 804 554 804 q 685 802 653 804 q 746 794 717 800 q 779 824 761 813 q 817 835 797 835 q 832 825 832 835 q 817 811 832 814 q 778 788 797 808 q 812 776 796 782 q 842 764 828 771 q 863 746 850 760 q 876 725 876 732 q 867 718 876 718 q 853 719 861 718 q 832 725 844 721 q 750 740 799 736 q 719 650 735 701 q 691 547 704 599 q 664 451 678 496 q 775 471 735 471 q 797 467 792 471 q 803 456 803 463 q 793 447 803 443 q 774 450 785 450 q 728 444 754 450 q 680 428 701 439 q 653 404 658 418 q 533 147 597 253 q 401 -23 468 42 q 274 -117 335 -87 q 164 -146 213 -146 m 192 -107 q 294 -67 243 -107 q 390 35 344 -28 q 475 168 436 97 q 542 303 514 239 q 583 406 569 367 q 372 306 469 368 q 199 149 275 243 q 138 52 157 97 q 119 -26 119 7 q 139 -85 119 -64 q 192 -107 158 -107 m 826 1072 q 851 1047 838 1072 q 875 990 864 1021 q 892 946 886 960 q 895 928 894 933 q 896 917 896 922 q 883 900 894 903 q 858 930 874 907 q 825 978 842 953 q 800 1017 808 1003 q 743 976 776 1003 q 680 928 710 950 q 638 907 650 907 q 632 913 632 907 q 654 939 633 922 q 694 974 668 951 q 747 1019 719 996 q 797 1057 775 1042 q 826 1072 819 1072 z "},"K":{"ha":775,"x_min":-314,"x_max":968,"o":"m -190 -186 q -266 -165 -233 -186 q -312 -100 -299 -143 q -313 -94 -312 -97 q -314 -89 -314 -92 q -311 -72 -314 -79 q -304 -65 -308 -65 q -289 -92 -294 -65 q -247 -137 -275 -126 q -185 -147 -219 -147 q -162 -146 -174 -147 q -142 -142 -151 -144 q -24 -72 -79 -122 q 78 51 31 -21 q 165 205 125 122 q 236 372 204 288 q 292 531 268 456 q 333 663 317 607 q 246 608 294 626 q 156 585 197 590 l 154 585 q 139 596 139 585 q 156 608 139 607 q 238 640 196 613 q 316 709 279 667 q 375 801 353 751 q 394 813 378 808 q 426 818 410 818 q 453 814 442 818 q 463 801 465 810 q 355 528 407 667 q 238 254 303 389 q 295 323 265 289 q 363 396 325 357 l 363 414 q 363 433 363 425 q 364 450 363 442 q 372 467 367 457 q 383 476 378 476 q 393 458 389 476 q 394 449 393 453 q 396 439 394 444 l 399 442 q 446 485 411 454 q 528 557 481 515 q 629 642 576 599 q 729 726 682 686 q 811 792 776 765 q 857 824 846 818 q 895 839 878 835 q 925 843 913 843 q 958 834 947 843 q 968 813 968 825 q 936 771 968 788 q 838 719 894 751 q 718 647 781 686 q 596 565 656 607 q 486 482 536 522 q 406 408 436 442 q 446 282 426 335 q 494 181 465 229 q 569 74 522 133 q 635 14 601 36 q 694 -8 668 -8 q 727 2 718 -8 q 736 28 736 13 q 726 68 736 47 q 707 103 717 89 q 700 118 700 114 q 707 124 700 124 q 733 111 721 124 q 752 81 740 104 q 764 39 764 57 q 744 -8 764 11 q 700 -37 725 -28 q 657 -46 675 -46 q 542 -8 592 -46 q 459 90 493 29 q 403 222 425 150 q 368 361 381 293 q 250 221 308 292 q 156 101 192 150 q 93 7 129 57 q 13 -87 57 -43 q -81 -158 -31 -131 q -190 -186 -132 -186 z "},"Ķ":{"ha":775,"x_min":-314,"x_max":968,"o":"m -190 -186 q -266 -165 -233 -186 q -312 -100 -299 -143 q -313 -94 -312 -97 q -314 -89 -314 -92 q -311 -72 -314 -79 q -304 -65 -308 -65 q -289 -92 -294 -65 q -247 -137 -275 -126 q -185 -147 -219 -147 q -162 -146 -174 -147 q -142 -142 -151 -144 q -24 -72 -79 -122 q 78 51 31 -21 q 165 205 125 122 q 236 372 204 288 q 292 531 268 456 q 333 663 317 607 q 246 608 294 626 q 156 585 197 590 l 154 585 q 139 596 139 585 q 156 608 139 607 q 238 640 196 613 q 316 709 279 667 q 375 801 353 751 q 394 813 378 808 q 426 818 410 818 q 453 814 442 818 q 463 801 465 810 q 355 528 407 667 q 238 254 303 389 q 295 323 265 289 q 363 396 325 357 l 363 414 q 363 433 363 425 q 364 450 363 442 q 372 467 367 457 q 383 476 378 476 q 393 458 389 476 q 394 449 393 453 q 396 439 394 444 l 399 442 q 446 485 411 454 q 528 557 481 515 q 629 642 576 599 q 729 726 682 686 q 811 792 776 765 q 857 824 846 818 q 895 839 878 835 q 925 843 913 843 q 958 834 947 843 q 968 813 968 825 q 936 771 968 788 q 838 719 894 751 q 718 647 781 686 q 596 565 656 607 q 486 482 536 522 q 406 408 436 442 q 446 282 426 335 q 494 181 465 229 q 569 74 522 133 q 635 14 601 36 q 694 -8 668 -8 q 727 2 718 -8 q 736 28 736 13 q 726 68 736 47 q 707 103 717 89 q 700 118 700 114 q 707 124 700 124 q 733 111 721 124 q 752 81 740 104 q 764 39 764 57 q 744 -8 764 11 q 700 -37 725 -28 q 657 -46 675 -46 q 542 -8 592 -46 q 459 90 493 29 q 403 222 425 150 q 368 361 381 293 q 250 221 308 292 q 156 101 192 150 q 93 7 129 57 q 13 -87 57 -43 q -81 -158 -31 -131 q -190 -186 -132 -186 m 219 -258 q 213 -261 217 -261 q 208 -257 208 -261 q 207 -251 207 -253 q 216 -237 207 -250 q 233 -210 225 -224 q 256 -167 247 -187 q 264 -136 264 -147 q 259 -119 264 -125 q 254 -104 254 -114 q 282 -83 254 -83 q 310 -94 301 -83 q 318 -121 318 -106 q 299 -167 318 -137 q 257 -222 281 -196 q 219 -258 233 -249 z "},"L":{"ha":572,"x_min":3,"x_max":988,"o":"m 825 -228 q 705 -212 767 -228 q 589 -174 643 -196 q 494 -139 535 -153 q 357 -87 421 -112 q 267 -57 293 -62 q 76 -22 132 -22 q 58 -34 67 -29 q 40 -40 50 -39 q 28 -42 36 -42 q 3 -25 3 -42 q 18 -6 3 -15 q 44 1 29 0 q 74 3 58 1 q 134 74 106 31 q 175 139 163 117 q 197 177 186 158 q 218 214 207 196 q 172 203 196 208 q 126 199 149 199 q 53 215 86 199 q 21 276 21 232 q 47 331 21 306 q 100 356 72 356 q 117 342 117 356 q 104 333 117 333 q 76 315 89 333 q 64 278 64 297 q 73 251 64 264 q 104 235 82 238 q 149 231 125 231 q 231 242 189 231 q 267 319 250 281 q 301 394 285 357 q 372 543 336 471 q 443 672 408 615 q 506 757 478 729 q 612 828 558 807 q 708 849 665 849 q 725 848 717 849 q 740 846 733 847 q 813 810 792 838 q 833 746 833 783 q 829 706 833 726 q 756 542 811 618 q 624 403 701 465 q 458 299 546 342 q 286 236 369 256 q 248 176 268 206 q 204 117 228 146 q 164 63 190 96 q 110 3 138 31 q 152 -1 129 1 q 201 -7 175 -3 q 433 -60 317 -25 q 663 -125 549 -96 q 753 -146 694 -133 q 864 -158 813 -158 q 940 -140 914 -158 q 961 -106 961 -128 q 946 -78 961 -89 q 938 -67 938 -71 q 954 -62 938 -53 q 980 -92 972 -75 q 988 -126 988 -108 q 980 -165 988 -147 q 961 -189 972 -182 q 825 -228 904 -228 m 307 268 q 578 431 461 335 q 763 683 694 526 q 785 768 785 732 q 767 814 785 797 q 735 826 757 826 q 640 794 689 826 q 562 714 599 764 q 493 608 525 664 q 437 503 461 553 q 396 425 413 454 q 362 360 385 403 q 307 268 339 317 z "},"Ǉ":{"ha":1368,"x_min":3,"x_max":1449,"o":"m 840 -296 q 720 -280 782 -296 q 604 -242 658 -264 q 510 -207 550 -221 q 458 -186 499 -203 q 361 -147 417 -169 q 248 -99 306 -124 q 144 -53 190 -74 q 76 -22 97 -33 q 58 -34 67 -29 q 40 -40 50 -39 q 28 -42 36 -42 q 3 -25 3 -42 q 18 -6 3 -15 q 44 1 29 0 q 74 3 58 1 q 134 74 106 31 q 175 139 163 117 q 197 177 186 158 q 218 214 207 196 q 172 203 196 208 q 126 199 149 199 q 53 215 86 199 q 21 276 21 232 q 47 331 21 306 q 100 356 72 356 q 117 342 117 356 q 104 333 117 333 q 76 315 89 333 q 64 278 64 297 q 73 251 64 264 q 104 235 82 238 q 149 231 125 231 q 231 242 189 231 q 267 319 250 281 q 301 394 285 357 q 372 543 336 471 q 443 672 408 615 q 506 757 478 729 q 612 828 558 807 q 708 849 665 849 q 725 848 717 849 q 740 846 733 847 q 813 810 792 838 q 833 746 833 783 q 829 706 833 726 q 756 542 811 618 q 624 403 701 465 q 458 299 546 342 q 286 236 369 256 q 248 176 268 206 q 204 117 228 146 q 164 63 190 96 q 110 3 138 31 q 109 -5 90 4 q 171 -30 128 -14 q 273 -66 214 -46 q 396 -106 332 -86 q 518 -144 460 -126 q 619 -176 576 -162 q 678 -193 663 -189 q 769 -214 710 -201 q 879 -226 828 -226 q 956 -208 929 -226 q 976 -174 976 -196 q 961 -146 976 -157 q 953 -135 953 -139 q 969 -131 953 -121 q 995 -160 988 -143 q 1003 -194 1003 -176 q 995 -233 1003 -215 q 976 -257 988 -250 q 840 -296 919 -296 m 736 -146 q 651 -116 683 -146 q 619 -36 619 -86 q 640 46 619 0 q 704 143 660 92 q 915 321 799 253 q 1165 432 1031 389 q 1194 519 1178 465 q 1232 634 1210 574 q 1281 743 1254 694 q 1149 738 1218 746 q 1017 712 1079 731 q 917 660 956 693 q 879 581 879 628 q 895 535 879 553 q 931 508 911 518 q 963 492 951 499 q 972 482 972 486 q 958 479 972 475 q 879 527 913 489 q 846 613 846 565 q 872 701 843 665 q 951 760 901 738 q 1064 794 1001 783 q 1190 804 1126 804 q 1257 802 1225 804 q 1318 794 1289 800 q 1351 824 1333 813 q 1389 835 1369 835 q 1404 825 1404 835 q 1389 811 1404 814 q 1350 788 1369 808 q 1384 776 1368 782 q 1414 764 1400 771 q 1435 746 1422 760 q 1449 725 1449 732 q 1439 718 1449 718 q 1425 719 1433 718 q 1404 725 1417 721 q 1322 740 1371 736 q 1292 650 1307 701 q 1263 547 1276 599 q 1236 451 1250 496 q 1347 471 1307 471 q 1369 467 1364 471 q 1375 456 1375 463 q 1365 447 1375 443 q 1346 450 1357 450 q 1300 444 1326 450 q 1252 428 1274 439 q 1225 404 1231 418 q 1105 147 1169 253 q 974 -23 1040 42 q 846 -117 907 -87 q 736 -146 785 -146 m 307 268 q 578 431 461 335 q 763 683 694 526 q 785 768 785 732 q 767 814 785 797 q 735 826 757 826 q 640 794 689 826 q 562 714 599 764 q 493 608 525 664 q 437 503 461 553 q 396 425 413 454 q 362 360 385 403 q 307 268 339 317 m 764 -107 q 866 -67 815 -107 q 963 35 917 -28 q 1047 168 1008 97 q 1114 303 1086 239 q 1156 406 1142 367 q 944 306 1042 368 q 771 149 847 243 q 710 52 729 97 q 692 -26 692 7 q 711 -85 692 -64 q 764 -107 731 -107 z "},"Ĺ":{"ha":572,"x_min":3,"x_max":988,"o":"m 825 -228 q 705 -212 767 -228 q 589 -174 643 -196 q 494 -139 535 -153 q 357 -87 421 -112 q 267 -57 293 -62 q 76 -22 132 -22 q 58 -34 67 -29 q 40 -40 50 -39 q 28 -42 36 -42 q 3 -25 3 -42 q 18 -6 3 -15 q 44 1 29 0 q 74 3 58 1 q 134 74 106 31 q 175 139 163 117 q 197 177 186 158 q 218 214 207 196 q 172 203 196 208 q 126 199 149 199 q 53 215 86 199 q 21 276 21 232 q 47 331 21 306 q 100 356 72 356 q 117 342 117 356 q 104 333 117 333 q 76 315 89 333 q 64 278 64 297 q 73 251 64 264 q 104 235 82 238 q 149 231 125 231 q 231 242 189 231 q 267 319 250 281 q 301 394 285 357 q 372 543 336 471 q 443 672 408 615 q 506 757 478 729 q 612 828 558 807 q 708 849 665 849 q 725 848 717 849 q 740 846 733 847 q 813 810 792 838 q 833 746 833 783 q 829 706 833 726 q 756 542 811 618 q 624 403 701 465 q 458 299 546 342 q 286 236 369 256 q 248 176 268 206 q 204 117 228 146 q 164 63 190 96 q 110 3 138 31 q 152 -1 129 1 q 201 -7 175 -3 q 433 -60 317 -25 q 663 -125 549 -96 q 753 -146 694 -133 q 864 -158 813 -158 q 940 -140 914 -158 q 961 -106 961 -128 q 946 -78 961 -89 q 938 -67 938 -71 q 954 -62 938 -53 q 980 -92 972 -75 q 988 -126 988 -108 q 980 -165 988 -147 q 961 -189 972 -182 q 825 -228 904 -228 m 307 268 q 578 431 461 335 q 763 683 694 526 q 785 768 785 732 q 767 814 785 797 q 735 826 757 826 q 640 794 689 826 q 562 714 599 764 q 493 608 525 664 q 437 503 461 553 q 396 425 413 454 q 362 360 385 403 q 307 268 339 317 m 676 943 q 665 949 665 943 q 686 968 665 956 q 730 997 700 976 q 797 1047 760 1018 q 829 1074 817 1064 q 847 1083 842 1083 q 858 1083 851 1083 q 871 1076 864 1083 q 886 1057 886 1065 q 883 1047 886 1051 q 876 1036 881 1042 q 838 1013 867 1028 q 774 981 808 997 q 711 954 739 965 q 676 943 683 943 z "},"Ľ":{"ha":572,"x_min":3,"x_max":1025,"o":"m 825 -228 q 705 -212 767 -228 q 589 -174 643 -196 q 494 -139 535 -153 q 357 -87 421 -112 q 267 -57 293 -62 q 76 -22 132 -22 q 58 -34 67 -29 q 40 -40 50 -39 q 28 -42 36 -42 q 3 -25 3 -42 q 18 -6 3 -15 q 44 1 29 0 q 74 3 58 1 q 134 74 106 31 q 175 139 163 117 q 197 177 186 158 q 218 214 207 196 q 172 203 196 208 q 126 199 149 199 q 53 215 86 199 q 21 276 21 232 q 47 331 21 306 q 100 356 72 356 q 117 342 117 356 q 104 333 117 333 q 76 315 89 333 q 64 278 64 297 q 73 251 64 264 q 104 235 82 238 q 149 231 125 231 q 231 242 189 231 q 267 319 250 281 q 301 394 285 357 q 372 543 336 471 q 443 672 408 615 q 506 757 478 729 q 612 828 558 807 q 708 849 665 849 q 725 848 717 849 q 740 846 733 847 q 813 810 792 838 q 833 746 833 783 q 829 706 833 726 q 756 542 811 618 q 624 403 701 465 q 458 299 546 342 q 286 236 369 256 q 248 176 268 206 q 204 117 228 146 q 164 63 190 96 q 110 3 138 31 q 152 -1 129 1 q 201 -7 175 -3 q 433 -60 317 -25 q 663 -125 549 -96 q 753 -146 694 -133 q 864 -158 813 -158 q 940 -140 914 -158 q 961 -106 961 -128 q 946 -78 961 -89 q 938 -67 938 -71 q 954 -62 938 -53 q 980 -92 972 -75 q 988 -126 988 -108 q 980 -165 988 -147 q 961 -189 972 -182 q 825 -228 904 -228 m 307 268 q 578 431 461 335 q 763 683 694 526 q 785 768 785 732 q 767 814 785 797 q 735 826 757 826 q 640 794 689 826 q 562 714 599 764 q 493 608 525 664 q 437 503 461 553 q 396 425 413 454 q 362 360 385 403 q 307 268 339 317 m 869 611 q 863 616 864 611 q 863 624 863 621 q 878 644 863 628 q 913 686 893 661 q 947 739 932 711 q 963 792 963 767 q 956 813 963 806 q 950 835 950 819 q 968 852 950 850 q 989 854 986 854 q 1015 837 1006 854 q 1025 808 1025 819 q 1004 763 1025 794 q 955 695 983 731 q 901 635 926 660 q 869 611 876 611 z "},"Ļ":{"ha":572,"x_min":3,"x_max":988,"o":"m 825 -228 q 705 -212 767 -228 q 589 -174 643 -196 q 494 -139 535 -153 q 357 -87 421 -112 q 267 -57 293 -62 q 76 -22 132 -22 q 58 -34 67 -29 q 40 -40 50 -39 q 28 -42 36 -42 q 3 -25 3 -42 q 18 -6 3 -15 q 44 1 29 0 q 74 3 58 1 q 134 74 106 31 q 175 139 163 117 q 197 177 186 158 q 218 214 207 196 q 172 203 196 208 q 126 199 149 199 q 53 215 86 199 q 21 276 21 232 q 47 331 21 306 q 100 356 72 356 q 117 342 117 356 q 104 333 117 333 q 76 315 89 333 q 64 278 64 297 q 73 251 64 264 q 104 235 82 238 q 149 231 125 231 q 231 242 189 231 q 267 319 250 281 q 301 394 285 357 q 372 543 336 471 q 443 672 408 615 q 506 757 478 729 q 612 828 558 807 q 708 849 665 849 q 725 848 717 849 q 740 846 733 847 q 813 810 792 838 q 833 746 833 783 q 829 706 833 726 q 756 542 811 618 q 624 403 701 465 q 458 299 546 342 q 286 236 369 256 q 248 176 268 206 q 204 117 228 146 q 164 63 190 96 q 110 3 138 31 q 152 -1 129 1 q 201 -7 175 -3 q 433 -60 317 -25 q 663 -125 549 -96 q 753 -146 694 -133 q 864 -158 813 -158 q 940 -140 914 -158 q 961 -106 961 -128 q 946 -78 961 -89 q 938 -67 938 -71 q 954 -62 938 -53 q 980 -92 972 -75 q 988 -126 988 -108 q 980 -165 988 -147 q 961 -189 972 -182 q 825 -228 904 -228 m 307 268 q 578 431 461 335 q 763 683 694 526 q 785 768 785 732 q 767 814 785 797 q 735 826 757 826 q 640 794 689 826 q 562 714 599 764 q 493 608 525 664 q 437 503 461 553 q 396 425 413 454 q 362 360 385 403 q 307 268 339 317 m 383 -375 q 376 -378 381 -378 q 372 -374 372 -378 q 371 -368 371 -369 q 380 -353 371 -367 q 397 -326 389 -340 q 419 -284 411 -304 q 428 -253 428 -264 q 423 -236 428 -242 q 418 -221 418 -231 q 446 -200 418 -200 q 474 -211 465 -200 q 482 -237 482 -222 q 463 -283 482 -254 q 421 -339 444 -312 q 383 -375 397 -365 z "},"Ŀ":{"ha":572,"x_min":3,"x_max":988,"o":"m 825 -228 q 705 -212 767 -228 q 589 -174 643 -196 q 494 -139 535 -153 q 357 -87 421 -112 q 267 -57 293 -62 q 76 -22 132 -22 q 58 -34 67 -29 q 40 -40 50 -39 q 28 -42 36 -42 q 3 -25 3 -42 q 18 -6 3 -15 q 44 1 29 0 q 74 3 58 1 q 134 74 106 31 q 175 139 163 117 q 197 177 186 158 q 218 214 207 196 q 172 203 196 208 q 126 199 149 199 q 53 215 86 199 q 21 276 21 232 q 47 331 21 306 q 100 356 72 356 q 117 342 117 356 q 104 333 117 333 q 76 315 89 333 q 64 278 64 297 q 73 251 64 264 q 104 235 82 238 q 149 231 125 231 q 231 242 189 231 q 267 319 250 281 q 301 394 285 357 q 372 543 336 471 q 443 672 408 615 q 506 757 478 729 q 612 828 558 807 q 708 849 665 849 q 725 848 717 849 q 740 846 733 847 q 813 810 792 838 q 833 746 833 783 q 829 706 833 726 q 756 542 811 618 q 624 403 701 465 q 458 299 546 342 q 286 236 369 256 q 248 176 268 206 q 204 117 228 146 q 164 63 190 96 q 110 3 138 31 q 152 -1 129 1 q 201 -7 175 -3 q 433 -60 317 -25 q 663 -125 549 -96 q 753 -146 694 -133 q 864 -158 813 -158 q 940 -140 914 -158 q 961 -106 961 -128 q 946 -78 961 -89 q 938 -67 938 -71 q 954 -62 938 -53 q 980 -92 972 -75 q 988 -126 988 -108 q 980 -165 988 -147 q 961 -189 972 -182 q 825 -228 904 -228 m 307 268 q 578 431 461 335 q 763 683 694 526 q 785 768 785 732 q 767 814 785 797 q 735 826 757 826 q 640 794 689 826 q 562 714 599 764 q 493 608 525 664 q 437 503 461 553 q 396 425 413 454 q 362 360 385 403 q 307 268 339 317 m 515 104 q 485 107 501 104 q 469 126 469 110 q 479 140 469 129 q 499 160 489 150 q 513 174 510 171 q 543 189 536 189 q 551 178 551 189 q 551 157 551 168 q 538 126 551 147 q 515 104 525 104 z "},"ǈ":{"ha":871,"x_min":3,"x_max":997,"o":"m 825 -228 q 705 -212 767 -228 q 589 -174 643 -196 q 494 -139 535 -153 q 357 -87 421 -112 q 267 -57 293 -62 q 76 -22 132 -22 q 58 -34 67 -29 q 40 -40 50 -39 q 28 -42 36 -42 q 3 -25 3 -42 q 18 -6 3 -15 q 44 1 29 0 q 74 3 58 1 q 134 74 106 31 q 175 139 163 117 q 197 177 186 158 q 218 214 207 196 q 172 203 196 208 q 126 199 149 199 q 53 215 86 199 q 21 276 21 232 q 47 331 21 306 q 100 356 72 356 q 117 342 117 356 q 104 333 117 333 q 76 315 89 333 q 64 278 64 297 q 73 251 64 264 q 104 235 82 238 q 149 231 125 231 q 231 242 189 231 q 267 319 250 281 q 301 394 285 357 q 372 543 336 471 q 443 672 408 615 q 506 757 478 729 q 612 828 558 807 q 708 849 665 849 q 725 848 717 849 q 740 846 733 847 q 813 810 792 838 q 833 746 833 783 q 829 706 833 726 q 756 542 811 618 q 624 403 701 465 q 458 299 546 342 q 286 236 369 256 q 248 176 268 206 q 204 117 228 146 q 164 63 190 96 q 110 3 138 31 q 152 -1 129 1 q 201 -7 175 -3 q 433 -60 317 -25 q 663 -125 549 -96 q 753 -146 694 -133 q 864 -158 813 -158 q 940 -140 914 -158 q 961 -106 961 -128 q 946 -78 961 -89 q 938 -67 938 -71 q 954 -62 938 -53 q 980 -92 972 -75 q 988 -126 988 -108 q 980 -165 988 -147 q 961 -189 972 -182 q 825 -228 904 -228 m 307 268 q 578 431 461 335 q 763 683 694 526 q 785 768 785 732 q 767 814 785 797 q 735 826 757 826 q 640 794 689 826 q 562 714 599 764 q 493 608 525 664 q 437 503 461 553 q 396 425 413 454 q 362 360 385 403 q 307 268 339 317 m 936 558 q 898 563 918 558 q 878 589 878 567 q 897 607 878 592 q 935 638 915 622 q 960 657 956 654 q 990 675 986 675 q 990 658 997 675 q 983 625 983 640 q 974 601 983 618 q 954 572 965 585 q 936 558 943 558 m 289 -510 q 274 -505 282 -507 q 263 -501 267 -503 q 224 -470 236 -487 q 213 -432 213 -453 q 234 -364 213 -400 q 289 -289 256 -328 q 379 -204 325 -247 q 491 -122 433 -161 q 593 -53 549 -82 q 673 122 636 36 q 740 301 710 208 q 699 250 726 282 q 651 194 671 218 q 639 186 646 186 q 631 196 631 186 q 636 210 631 204 q 707 300 671 253 q 761 372 743 347 q 788 383 768 383 q 835 369 811 383 q 854 346 858 354 q 779 176 817 261 q 703 7 742 90 q 763 50 721 17 q 854 131 804 83 q 947 228 904 178 q 972 246 964 246 q 976 231 981 246 q 953 194 972 217 q 892 131 931 168 q 812 56 854 94 q 733 -12 769 18 q 675 -53 696 -42 q 592 -226 632 -144 q 517 -357 551 -307 q 463 -428 494 -392 q 393 -488 431 -464 q 313 -512 356 -512 q 301 -512 307 -512 q 289 -510 296 -511 m 275 -474 q 286 -476 281 -476 q 342 -449 308 -476 q 434 -348 394 -406 q 506 -227 474 -290 q 567 -106 538 -164 q 444 -201 513 -146 q 321 -310 375 -256 q 274 -372 293 -337 q 254 -435 254 -407 q 275 -474 254 -461 z "},"Ł":{"ha":572,"x_min":3,"x_max":988,"o":"m 63 50 q 33 42 44 42 q 21 53 21 42 q 33 81 21 64 q 61 103 46 97 q 108 119 75 107 q 179 147 140 132 q 199 181 189 164 q 218 214 208 197 q 172 203 196 208 q 126 199 149 199 q 53 215 86 199 q 21 276 21 232 q 47 331 21 306 q 100 356 72 356 q 117 342 117 356 q 104 333 117 333 q 76 315 89 333 q 64 278 64 297 q 73 251 64 264 q 104 235 82 238 q 149 231 125 231 q 231 242 189 231 q 267 319 250 281 q 301 394 285 357 q 372 543 336 471 q 443 672 408 615 q 506 757 478 729 q 612 828 558 807 q 708 849 665 849 q 725 848 717 849 q 740 846 733 847 q 813 810 792 838 q 833 746 833 783 q 829 706 833 726 q 756 542 811 618 q 624 403 701 465 q 458 299 546 342 q 286 236 369 256 q 266 203 276 219 q 244 171 256 188 q 269 181 257 176 q 292 189 282 185 q 372 208 346 208 q 388 201 388 208 q 370 183 388 193 q 334 164 353 172 q 308 151 315 156 q 256 129 285 142 q 196 104 226 117 q 157 55 181 83 q 110 3 133 26 q 152 -1 129 1 q 201 -7 175 -3 q 433 -60 317 -25 q 663 -125 549 -96 q 753 -146 694 -133 q 864 -158 813 -158 q 940 -140 914 -158 q 961 -106 961 -128 q 946 -78 961 -89 q 938 -67 938 -71 q 954 -62 938 -53 q 980 -92 972 -75 q 988 -126 988 -108 q 980 -165 988 -147 q 961 -189 972 -182 q 825 -228 904 -228 q 705 -212 767 -228 q 589 -174 643 -196 q 494 -139 535 -153 q 357 -87 421 -112 q 267 -57 293 -62 q 76 -22 132 -22 q 58 -34 67 -29 q 40 -40 50 -39 q 28 -42 36 -42 q 3 -25 3 -42 q 18 -6 3 -15 q 44 1 29 0 q 74 3 58 1 q 107 39 90 18 q 139 81 124 60 q 96 63 115 71 q 63 50 76 56 m 307 268 q 578 431 461 335 q 763 683 694 526 q 785 768 785 732 q 767 814 785 797 q 735 826 757 826 q 640 794 689 826 q 562 714 599 764 q 493 608 525 664 q 437 503 461 553 q 396 425 413 454 q 362 360 385 403 q 307 268 339 317 z "},"M":{"ha":1521,"x_min":-12,"x_max":1617,"o":"m 57 -107 q 7 -87 26 -107 q -12 -33 -12 -68 q -5 10 -12 -14 q 21 63 3 35 q 103 174 53 113 q 211 297 154 236 q 319 409 268 358 q 400 488 369 460 q 427 574 414 529 q 454 665 440 618 q 366 611 415 629 q 274 590 317 593 l 272 590 q 258 600 258 590 q 275 613 258 611 q 358 644 315 617 q 438 713 401 671 q 494 804 475 756 q 513 817 497 813 q 547 821 529 821 q 574 817 563 821 q 583 804 586 814 q 535 681 558 740 q 489 567 511 622 q 642 683 571 636 q 758 732 714 729 q 883 706 838 736 q 947 624 928 675 q 965 517 965 574 q 965 490 965 503 q 963 465 964 478 q 935 319 956 401 q 890 167 914 238 q 882 142 888 160 q 881 125 876 125 q 894 143 882 125 q 962 255 929 200 q 1032 368 994 310 q 1153 542 1088 454 q 1286 699 1219 629 q 1341 740 1313 726 q 1394 754 1369 754 q 1441 735 1422 754 q 1460 678 1460 717 q 1458 656 1460 668 q 1453 631 1456 644 q 1414 508 1436 564 q 1369 399 1392 453 q 1330 288 1347 346 q 1306 158 1313 229 q 1303 135 1304 146 q 1303 114 1303 124 q 1317 45 1303 67 q 1353 24 1331 24 q 1415 47 1379 24 q 1486 103 1450 69 q 1551 170 1522 138 q 1594 222 1581 203 q 1603 226 1597 226 q 1613 222 1608 226 q 1613 211 1617 218 q 1562 147 1594 183 q 1494 76 1529 110 q 1431 21 1458 42 q 1383 -4 1410 6 q 1329 -14 1356 -14 q 1274 1 1299 -14 q 1239 54 1249 17 q 1233 83 1235 68 q 1232 115 1232 99 q 1249 245 1232 174 q 1290 388 1265 317 q 1338 519 1315 460 q 1374 613 1361 578 q 1383 649 1383 632 q 1358 678 1383 678 q 1310 654 1338 678 q 1222 564 1269 619 q 1124 442 1174 508 q 1028 305 1075 375 q 944 170 982 235 q 882 56 906 106 q 860 35 872 35 q 841 47 850 35 q 827 74 832 60 q 825 94 822 89 q 858 203 843 139 q 883 341 874 268 q 893 481 893 414 q 871 631 893 569 q 793 693 849 693 q 701 663 757 693 q 581 581 646 632 q 449 467 517 529 q 412 378 436 436 q 355 249 388 319 q 283 108 322 178 q 201 -15 243 38 q 126 -85 164 -62 q 57 -107 89 -107 m 64 -58 q 138 -20 100 -58 q 215 77 176 18 q 285 200 253 136 q 340 318 317 264 q 372 399 363 372 q 290 316 333 361 q 206 224 247 271 q 132 138 165 178 q 79 71 99 97 q 47 16 57 40 q 36 -26 36 -8 q 64 -58 36 -58 z "},"N":{"ha":1089,"x_min":-239,"x_max":1161,"o":"m -122 -179 q -167 -174 -146 -179 q -237 -96 -224 -154 q -239 -83 -239 -92 q -231 -64 -239 -64 q -214 -89 -224 -64 q -167 -136 -204 -128 q -146 -140 -158 -139 q -122 -142 -133 -142 q -24 -112 -71 -142 q 62 -38 22 -83 q 133 55 101 7 q 186 142 165 103 q 289 378 247 258 q 369 629 331 499 q 281 575 329 593 q 189 553 232 557 l 188 553 q 174 563 174 553 q 190 576 174 574 q 274 610 231 583 q 353 679 317 638 q 410 769 390 721 q 429 783 413 778 q 463 788 446 788 q 490 783 478 788 q 499 769 501 779 q 490 722 493 754 q 483 671 486 690 q 479 599 479 646 q 486 458 479 539 q 509 293 493 378 q 550 135 525 208 q 610 16 575 61 q 693 -29 646 -29 q 785 18 742 -29 q 863 142 828 65 q 922 308 897 218 q 960 483 947 397 q 974 632 974 568 q 969 692 974 667 q 953 756 964 729 q 932 813 943 783 l 932 814 q 943 828 932 819 q 960 839 954 838 q 998 819 981 839 q 1031 772 1015 800 q 1061 715 1046 743 q 1094 671 1076 688 q 1112 658 1106 661 q 1132 656 1118 656 l 1140 660 q 1156 658 1151 660 q 1161 644 1160 656 q 1151 626 1161 633 q 1129 617 1140 619 q 1083 635 1111 617 q 1042 665 1056 654 q 1043 649 1043 657 q 1043 632 1043 640 q 1024 462 1043 556 q 970 274 1004 368 q 891 100 936 179 q 793 -28 846 21 q 683 -76 740 -76 q 570 -36 617 -76 q 492 72 524 4 q 443 222 461 140 q 418 390 425 304 q 411 549 411 475 q 326 336 368 436 q 228 135 283 236 q 167 35 203 89 q 88 -67 132 -18 q -10 -148 43 -117 q -122 -179 -62 -179 z "},"Ǌ":{"ha":1750,"x_min":-239,"x_max":1831,"o":"m -122 -179 q -167 -174 -146 -179 q -237 -96 -224 -154 q -239 -83 -239 -92 q -231 -64 -239 -64 q -214 -89 -224 -64 q -167 -136 -204 -128 q -146 -140 -158 -139 q -122 -142 -133 -142 q -24 -112 -71 -142 q 62 -38 22 -83 q 133 55 101 7 q 186 142 165 103 q 289 378 247 258 q 369 629 331 499 q 281 575 329 593 q 189 553 232 557 l 188 553 q 174 563 174 553 q 190 576 174 574 q 274 610 231 583 q 353 679 317 638 q 410 769 390 721 q 429 783 413 778 q 463 788 446 788 q 490 783 478 788 q 499 769 501 779 q 490 722 493 754 q 483 671 486 690 q 479 599 479 646 q 486 458 479 539 q 509 293 493 378 q 550 135 525 208 q 610 16 575 61 q 693 -29 646 -29 q 785 18 742 -29 q 863 142 828 65 q 922 308 897 218 q 960 483 947 397 q 974 632 974 568 q 969 692 974 667 q 953 756 964 729 q 932 813 943 783 l 932 814 q 943 828 932 819 q 960 839 954 838 q 998 819 981 839 q 1031 772 1015 800 q 1061 715 1046 743 q 1094 671 1076 688 q 1112 658 1106 661 q 1132 656 1118 656 l 1140 660 q 1156 658 1151 660 q 1161 644 1160 656 q 1151 626 1161 633 q 1129 617 1140 619 q 1083 635 1111 617 q 1042 665 1056 654 q 1043 649 1043 657 q 1043 632 1043 640 q 1024 462 1043 556 q 970 274 1004 368 q 891 100 936 179 q 793 -28 846 21 q 683 -76 740 -76 q 570 -36 617 -76 q 492 72 524 4 q 443 222 461 140 q 418 390 425 304 q 411 549 411 475 q 326 336 368 436 q 228 135 283 236 q 167 35 203 89 q 88 -67 132 -18 q -10 -148 43 -117 q -122 -179 -62 -179 m 1118 -146 q 1033 -116 1065 -146 q 1001 -36 1001 -86 q 1022 46 1001 0 q 1086 143 1042 92 q 1297 321 1181 253 q 1547 432 1413 389 q 1576 519 1560 465 q 1614 634 1592 574 q 1663 743 1636 694 q 1531 738 1600 746 q 1399 712 1461 731 q 1299 660 1338 693 q 1261 581 1261 628 q 1277 535 1261 553 q 1313 508 1293 518 q 1344 492 1333 499 q 1354 482 1354 486 q 1340 479 1354 475 q 1261 527 1294 489 q 1228 613 1228 565 q 1254 701 1225 665 q 1333 760 1283 738 q 1446 794 1383 783 q 1572 804 1508 804 q 1639 802 1607 804 q 1700 794 1671 800 q 1733 824 1715 813 q 1771 835 1751 835 q 1786 825 1786 835 q 1771 811 1786 814 q 1732 788 1751 808 q 1766 776 1750 782 q 1796 764 1782 771 q 1817 746 1804 760 q 1831 725 1831 732 q 1821 718 1831 718 q 1807 719 1815 718 q 1786 725 1799 721 q 1704 740 1753 736 q 1674 650 1689 701 q 1645 547 1658 599 q 1618 451 1632 496 q 1729 471 1689 471 q 1751 467 1746 471 q 1757 456 1757 463 q 1747 447 1757 443 q 1728 450 1739 450 q 1682 444 1708 450 q 1634 428 1656 439 q 1607 404 1613 418 q 1487 147 1551 253 q 1356 -23 1422 42 q 1228 -117 1289 -87 q 1118 -146 1167 -146 m 1146 -107 q 1248 -67 1197 -107 q 1344 35 1299 -28 q 1429 168 1390 97 q 1496 303 1468 239 q 1538 406 1524 367 q 1326 306 1424 368 q 1153 149 1229 243 q 1092 52 1111 97 q 1074 -26 1074 7 q 1093 -85 1074 -64 q 1146 -107 1113 -107 z "}}}
